M48
; DRILL file {KiCad 9.0.1} date 2025-04-28T02:05:27+0800
; FORMAT={-:-/ absolute / metric / decimal}
; #@! TF.CreationDate,2025-04-28T02:05:27+08:00
; #@! TF.GenerationSoftware,Kicad,Pcbnew,9.0.1
; #@! TF.FileFunction,Plated,1,4,PTH
FMAT,2
METRIC
; #@! TA.AperFunction,Plated,PTH,ViaDrill
T1C0.300
; #@! TA.AperFunction,Plated,PTH,ViaDrill
T2C0.600
; #@! TA.AperFunction,Plated,PTH,ComponentDrill
T3C0.813
; #@! TA.AperFunction,Plated,PTH,ComponentDrill
T4C0.991
; #@! TA.AperFunction,Plated,PTH,ComponentDrill
T5C1.000
%
G90
G05
T1
X136.0Y-100.0
X136.0Y-102.0
X136.0Y-104.0
X136.0Y-106.0
X136.0Y-108.0
X136.0Y-121.0
X136.0Y-123.0
X136.0Y-125.0
X136.0Y-127.0
X136.0Y-129.0
X138.0Y-100.0
X138.0Y-102.0
X138.0Y-104.0
X138.0Y-106.0
X138.0Y-108.0
X138.0Y-121.0
X138.0Y-123.0
X138.0Y-125.0
X138.0Y-127.0
X138.0Y-129.0
X140.0Y-96.0
X140.0Y-98.0
X140.0Y-100.0
X140.0Y-102.0
X140.0Y-104.0
X140.0Y-106.0
X140.0Y-108.0
X140.0Y-133.0
X142.0Y-96.0
X142.0Y-98.0
X142.0Y-133.0
X142.3Y-122.0
X142.805Y-110.1
X143.417Y-101.848
X143.5Y-113.2
X144.0Y-96.0
X144.0Y-98.0
X144.5Y-102.822
X144.9Y-113.2
X145.7Y-113.2
X145.772Y-103.702
X145.8Y-119.901
X146.0Y-96.0
X146.0Y-98.0
X146.69Y-107.91
X147.1Y-120.3
X147.3Y-121.124
X147.4Y-112.99
X147.7Y-124.2
X148.0Y-96.0
X148.0Y-98.0
X149.5Y-111.35
X149.819Y-118.049
X150.0Y-96.0
X150.0Y-98.0
X150.1Y-101.9
X150.1Y-120.1
X150.626Y-104.674
X151.0Y-129.0
X151.0Y-131.0
X151.0Y-133.0
X151.994Y-105.02
X152.0Y-96.0
X152.0Y-98.0
X152.3Y-115.4
X152.31Y-116.304
X152.531Y-104.427
X152.7Y-117.6
X152.701Y-113.4
X152.765Y-103.16
X153.0Y-131.0
X153.0Y-133.0
X153.8Y-129.8
X153.85Y-117.901
X154.0Y-96.0
X154.0Y-98.0
X154.4Y-127.4
X155.086Y-125.795
X156.0Y-96.0
X156.0Y-98.0
X156.0Y-100.0
X156.2Y-103.2
X156.5Y-104.5
X156.507Y-107.507
X156.55Y-118.2
X157.1Y-118.9
X157.3Y-106.8
X157.7Y-126.0
X158.457Y-105.557
X160.3Y-119.0
X160.4Y-104.1
X161.0Y-129.6
X161.068Y-113.211
X161.2Y-114.0
X161.38Y-125.9
X161.44Y-124.9
X161.8Y-127.0
X163.7Y-114.0
X163.9Y-112.5
X164.0Y-99.0
X164.0Y-101.0
X164.0Y-103.0
X164.0Y-105.0
X164.0Y-107.0
X164.0Y-109.0
X165.0Y-116.3
X165.237Y-114.08
X165.4Y-117.0
X165.462Y-114.914
X165.6Y-119.5
X166.0Y-99.0
X166.0Y-101.0
X166.0Y-103.0
X166.0Y-105.0
X166.0Y-107.0
X166.0Y-109.0
X166.0Y-121.0
X166.0Y-123.0
X166.0Y-125.0
X166.0Y-127.0
X166.116Y-118.75
X167.3Y-109.9
X167.3Y-111.0
X167.3Y-120.3
X167.4Y-121.3
X168.0Y-97.0
X168.0Y-99.0
X168.0Y-101.0
X168.0Y-103.0
X168.0Y-105.0
X168.0Y-107.0
X168.0Y-109.0
X168.0Y-123.0
X168.0Y-125.0
X168.0Y-127.0
X168.0Y-129.0
X168.0Y-131.0
X168.0Y-133.0
X168.3Y-109.9
X168.3Y-111.0
X168.3Y-120.3
X168.338Y-114.35
X168.4Y-121.3
X170.0Y-101.0
X170.0Y-103.0
X170.0Y-105.0
X170.0Y-107.0
X170.0Y-109.0
X170.0Y-111.0
X170.0Y-113.0
X170.0Y-119.0
X170.0Y-123.0
X170.0Y-125.0
X170.0Y-127.0
X170.0Y-129.0
X171.3Y-110.0
X171.4Y-111.1
X171.4Y-120.4
X171.4Y-121.3
X172.0Y-101.0
X172.0Y-103.0
X172.0Y-105.0
X172.0Y-107.0
X172.0Y-109.0
X172.0Y-113.0
X172.0Y-115.0
X172.0Y-117.0
X172.0Y-119.0
X172.0Y-123.0
X172.0Y-125.0
X172.0Y-127.0
X172.0Y-129.0
X172.3Y-120.4
X172.3Y-121.3
X172.4Y-110.0
X172.4Y-111.1
T2
X141.98Y-121.1
T3
X145.6Y-128.1
X147.6Y-128.1
T4
X157.961Y-96.25
X157.961Y-102.75
X162.461Y-96.25
X162.461Y-102.75
T5
X137.9Y-110.7
X137.9Y-113.2
X137.9Y-115.7
X137.9Y-118.2
X157.1Y-131.0
X159.6Y-131.0
X162.1Y-131.0
X164.6Y-131.0
M30
