%TF.GenerationSoftware,KiCad,Pcbnew,9.0.1*%
%TF.CreationDate,2025-04-28T02:05:13+08:00*%
%TF.ProjectId,Flight_Control,466c6967-6874-45f4-936f-6e74726f6c2e,rev?*%
%TF.SameCoordinates,Original*%
%TF.FileFunction,Paste,Top*%
%TF.FilePolarity,Positive*%
%FSLAX46Y46*%
G04 Gerber Fmt 4.6, Leading zero omitted, Abs format (unit mm)*
G04 Created by KiCad (PCBNEW 9.0.1) date 2025-04-28 02:05:13*
%MOMM*%
%LPD*%
G01*
G04 APERTURE LIST*
G04 Aperture macros list*
%AMRoundRect*
0 Rectangle with rounded corners*
0 $1 Rounding radius*
0 $2 $3 $4 $5 $6 $7 $8 $9 X,Y pos of 4 corners*
0 Add a 4 corners polygon primitive as box body*
4,1,4,$2,$3,$4,$5,$6,$7,$8,$9,$2,$3,0*
0 Add four circle primitives for the rounded corners*
1,1,$1+$1,$2,$3*
1,1,$1+$1,$4,$5*
1,1,$1+$1,$6,$7*
1,1,$1+$1,$8,$9*
0 Add four rect primitives between the rounded corners*
20,1,$1+$1,$2,$3,$4,$5,0*
20,1,$1+$1,$4,$5,$6,$7,0*
20,1,$1+$1,$6,$7,$8,$9,0*
20,1,$1+$1,$8,$9,$2,$3,0*%
G04 Aperture macros list end*
%ADD10C,0.000000*%
%ADD11RoundRect,0.140000X0.140000X0.170000X-0.140000X0.170000X-0.140000X-0.170000X0.140000X-0.170000X0*%
%ADD12RoundRect,0.140000X0.170000X-0.140000X0.170000X0.140000X-0.170000X0.140000X-0.170000X-0.140000X0*%
%ADD13RoundRect,0.135000X0.135000X0.185000X-0.135000X0.185000X-0.135000X-0.185000X0.135000X-0.185000X0*%
%ADD14RoundRect,0.140000X-0.140000X-0.170000X0.140000X-0.170000X0.140000X0.170000X-0.140000X0.170000X0*%
%ADD15R,1.150000X0.500000*%
%ADD16R,1.150000X0.250000*%
%ADD17R,2.000000X2.180000*%
%ADD18RoundRect,0.140000X-0.170000X0.140000X-0.170000X-0.140000X0.170000X-0.140000X0.170000X0.140000X0*%
%ADD19RoundRect,0.135000X-0.185000X0.135000X-0.185000X-0.135000X0.185000X-0.135000X0.185000X0.135000X0*%
%ADD20RoundRect,0.135000X0.185000X-0.135000X0.185000X0.135000X-0.185000X0.135000X-0.185000X-0.135000X0*%
%ADD21R,0.370000X0.450000*%
%ADD22R,0.370000X0.600000*%
%ADD23R,1.670000X0.900000*%
%ADD24R,0.279400X0.254000*%
%ADD25R,0.254000X0.279400*%
%ADD26RoundRect,0.075000X-0.700000X-0.075000X0.700000X-0.075000X0.700000X0.075000X-0.700000X0.075000X0*%
%ADD27RoundRect,0.075000X-0.075000X-0.700000X0.075000X-0.700000X0.075000X0.700000X-0.075000X0.700000X0*%
%ADD28R,0.533400X0.304800*%
%ADD29R,0.304800X0.533400*%
%ADD30RoundRect,0.135000X-0.135000X-0.185000X0.135000X-0.185000X0.135000X0.185000X-0.135000X0.185000X0*%
%ADD31R,0.838200X0.355600*%
%ADD32RoundRect,0.075000X-0.275000X0.390000X-0.275000X-0.390000X0.275000X-0.390000X0.275000X0.390000X0*%
%ADD33RoundRect,0.075000X-0.275000X0.075000X-0.275000X-0.075000X0.275000X-0.075000X0.275000X0.075000X0*%
%ADD34RoundRect,0.147500X-0.147500X-0.172500X0.147500X-0.172500X0.147500X0.172500X-0.147500X0.172500X0*%
G04 APERTURE END LIST*
D10*
%TO.C,U5*%
G36*
X143569100Y-120477800D02*
G01*
X142730900Y-120477800D01*
X142730900Y-120122200D01*
X143569100Y-120122200D01*
X143569100Y-120477800D01*
G37*
G36*
X143569100Y-121277801D02*
G01*
X142730900Y-121277801D01*
X142730900Y-120922201D01*
X143569100Y-120922201D01*
X143569100Y-121277801D01*
G37*
G36*
X143569100Y-122077799D02*
G01*
X142730900Y-122077799D01*
X142730900Y-121722199D01*
X143569100Y-121722199D01*
X143569100Y-122077799D01*
G37*
G36*
X143569100Y-122877800D02*
G01*
X142730900Y-122877800D01*
X142730900Y-122522200D01*
X143569100Y-122522200D01*
X143569100Y-122877800D01*
G37*
G36*
X143569100Y-123677798D02*
G01*
X142730900Y-123677798D01*
X142730900Y-123322198D01*
X143569100Y-123322198D01*
X143569100Y-123677798D01*
G37*
G36*
X147519100Y-120477800D02*
G01*
X146680900Y-120477800D01*
X146680900Y-120122200D01*
X147519100Y-120122200D01*
X147519100Y-120477800D01*
G37*
G36*
X147519100Y-121277798D02*
G01*
X146680900Y-121277798D01*
X146680900Y-120922198D01*
X147519100Y-120922198D01*
X147519100Y-121277798D01*
G37*
G36*
X147519100Y-122077799D02*
G01*
X146680900Y-122077799D01*
X146680900Y-121722199D01*
X147519100Y-121722199D01*
X147519100Y-122077799D01*
G37*
G36*
X147519100Y-122877797D02*
G01*
X146680900Y-122877797D01*
X146680900Y-122522197D01*
X147519100Y-122522197D01*
X147519100Y-122877797D01*
G37*
G36*
X147519100Y-123677798D02*
G01*
X146680900Y-123677798D01*
X146680900Y-123322198D01*
X147519100Y-123322198D01*
X147519100Y-123677798D01*
G37*
G36*
X144237600Y-120871178D02*
G01*
X144096179Y-121012599D01*
X143904530Y-121012599D01*
X143904530Y-120476329D01*
X144237600Y-120476329D01*
X144237600Y-120871178D01*
G37*
G36*
X144237600Y-122928820D02*
G01*
X144237600Y-123323669D01*
X143904530Y-123323669D01*
X143904530Y-122787399D01*
X144096179Y-122787399D01*
X144237600Y-122928820D01*
G37*
G36*
X146345470Y-121012599D02*
G01*
X146153821Y-121012599D01*
X146012400Y-120871178D01*
X146012400Y-120476329D01*
X146345470Y-120476329D01*
X146345470Y-121012599D01*
G37*
G36*
X146345470Y-123323669D02*
G01*
X146012400Y-123323669D01*
X146012400Y-122928820D01*
X146153821Y-122787399D01*
X146345470Y-122787399D01*
X146345470Y-123323669D01*
G37*
G36*
X144237600Y-121354020D02*
G01*
X144237600Y-121658578D01*
X144096179Y-121799999D01*
X143904530Y-121799999D01*
X143904530Y-121212599D01*
X144096179Y-121212599D01*
X144237600Y-121354020D01*
G37*
G36*
X144237600Y-122141420D02*
G01*
X144237600Y-122445978D01*
X144096179Y-122587399D01*
X143904530Y-122587399D01*
X143904530Y-121999999D01*
X144096179Y-121999999D01*
X144237600Y-122141420D01*
G37*
G36*
X145025000Y-120871178D02*
G01*
X144883579Y-121012599D01*
X144579021Y-121012599D01*
X144437600Y-120871178D01*
X144437600Y-120476329D01*
X145025000Y-120476329D01*
X145025000Y-120871178D01*
G37*
G36*
X145025000Y-122928820D02*
G01*
X145025000Y-123323669D01*
X144437600Y-123323669D01*
X144437600Y-122928820D01*
X144579021Y-122787399D01*
X144883579Y-122787399D01*
X145025000Y-122928820D01*
G37*
G36*
X145812400Y-120871178D02*
G01*
X145670979Y-121012599D01*
X145366421Y-121012599D01*
X145225000Y-120871178D01*
X145225000Y-120476329D01*
X145812400Y-120476329D01*
X145812400Y-120871178D01*
G37*
G36*
X145812400Y-122928820D02*
G01*
X145812400Y-123323669D01*
X145225000Y-123323669D01*
X145225000Y-122928820D01*
X145366421Y-122787399D01*
X145670979Y-122787399D01*
X145812400Y-122928820D01*
G37*
G36*
X146345470Y-121799999D02*
G01*
X146153821Y-121799999D01*
X146012400Y-121658578D01*
X146012400Y-121354020D01*
X146153821Y-121212599D01*
X146345470Y-121212599D01*
X146345470Y-121799999D01*
G37*
G36*
X146345470Y-122587399D02*
G01*
X146153821Y-122587399D01*
X146012400Y-122445978D01*
X146012400Y-122141420D01*
X146153821Y-121999999D01*
X146345470Y-121999999D01*
X146345470Y-122587399D01*
G37*
G36*
X145025000Y-121354020D02*
G01*
X145025000Y-121658578D01*
X144883579Y-121799999D01*
X144579021Y-121799999D01*
X144437600Y-121658578D01*
X144437600Y-121354020D01*
X144579021Y-121212599D01*
X144883579Y-121212599D01*
X145025000Y-121354020D01*
G37*
G36*
X145025000Y-122141420D02*
G01*
X145025000Y-122445978D01*
X144883579Y-122587399D01*
X144579021Y-122587399D01*
X144437600Y-122445978D01*
X144437600Y-122141420D01*
X144579021Y-121999999D01*
X144883579Y-121999999D01*
X145025000Y-122141420D01*
G37*
G36*
X145812400Y-121354020D02*
G01*
X145812400Y-121658578D01*
X145670979Y-121799999D01*
X145366421Y-121799999D01*
X145225000Y-121658578D01*
X145225000Y-121354020D01*
X145366421Y-121212599D01*
X145670979Y-121212599D01*
X145812400Y-121354020D01*
G37*
G36*
X145812400Y-122141420D02*
G01*
X145812400Y-122445978D01*
X145670979Y-122587399D01*
X145366421Y-122587399D01*
X145225000Y-122445978D01*
X145225000Y-122141420D01*
X145366421Y-121999999D01*
X145670979Y-121999999D01*
X145812400Y-122141420D01*
G37*
%TD*%
D11*
%TO.C,C37*%
X148520000Y-116300000D03*
X149480000Y-116300000D03*
%TD*%
%TO.C,C24*%
X155160000Y-123800000D03*
X154200000Y-123800000D03*
%TD*%
D12*
%TO.C,C20*%
X147000000Y-118880000D03*
X147000000Y-117920000D03*
%TD*%
D11*
%TO.C,C4*%
X145900000Y-106000000D03*
X144940000Y-106000000D03*
%TD*%
D13*
%TO.C,R4*%
X141410000Y-125100000D03*
X140390000Y-125100000D03*
%TD*%
D14*
%TO.C,C11*%
X146620000Y-108800000D03*
X147580000Y-108800000D03*
%TD*%
D15*
%TO.C,J2*%
X167262500Y-118900000D03*
X167262500Y-118100000D03*
D16*
X167262500Y-116950000D03*
X167262500Y-115950000D03*
X167262500Y-115450000D03*
X167262500Y-114450000D03*
D15*
X167262500Y-112500000D03*
X167262500Y-113300000D03*
D16*
X167262500Y-113950000D03*
X167262500Y-114950000D03*
X167262500Y-116450000D03*
X167262500Y-117450000D03*
D17*
X167837500Y-120810000D03*
X167837500Y-110590000D03*
X171767500Y-120810000D03*
X171767500Y-110590000D03*
%TD*%
D18*
%TO.C,C1*%
X150900000Y-101200000D03*
X150900000Y-102160000D03*
%TD*%
D11*
%TO.C,C35*%
X143900000Y-108800000D03*
X142940000Y-108800000D03*
%TD*%
D18*
%TO.C,C32*%
X160400000Y-123920000D03*
X160400000Y-124880000D03*
%TD*%
D19*
%TO.C,R10*%
X148800000Y-122490000D03*
X148800000Y-123510000D03*
%TD*%
D12*
%TO.C,C26*%
X148100000Y-115180000D03*
X148100000Y-114220000D03*
%TD*%
D11*
%TO.C,C14*%
X141380000Y-121700000D03*
X140420000Y-121700000D03*
%TD*%
D20*
%TO.C,R13*%
X160300000Y-127910000D03*
X160300000Y-126890000D03*
%TD*%
D21*
%TO.C,IC2*%
X144700000Y-114100000D03*
D22*
X145350000Y-114025000D03*
D21*
X146000000Y-114100000D03*
X146000000Y-112450000D03*
X145350000Y-112450000D03*
X144700000Y-112450000D03*
D23*
X145350000Y-113275000D03*
%TD*%
D24*
%TO.C,U2*%
X152212600Y-102750000D03*
X152212600Y-103250000D03*
D25*
X152500001Y-103787400D03*
X153000000Y-103787400D03*
X153499999Y-103787400D03*
D24*
X153787400Y-103250000D03*
X153787400Y-102750000D03*
D25*
X153499999Y-102212600D03*
X153000000Y-102212600D03*
X152500001Y-102212600D03*
%TD*%
D18*
%TO.C,C12*%
X145900000Y-109820000D03*
X145900000Y-110780000D03*
%TD*%
D14*
%TO.C,C25*%
X160420000Y-125900000D03*
X161380000Y-125900000D03*
%TD*%
%TO.C,C3*%
X147040000Y-103900000D03*
X148000000Y-103900000D03*
%TD*%
D19*
%TO.C,R14*%
X165600000Y-96190000D03*
X165600000Y-97210000D03*
%TD*%
D14*
%TO.C,C33*%
X161440000Y-122900000D03*
X162400000Y-122900000D03*
%TD*%
%TO.C,C30*%
X164320000Y-111400000D03*
X165280000Y-111400000D03*
%TD*%
%TO.C,C21*%
X150120000Y-122400000D03*
X151080000Y-122400000D03*
%TD*%
D18*
%TO.C,C29*%
X160200000Y-122020000D03*
X160200000Y-122980000D03*
%TD*%
D26*
%TO.C,U1*%
X151025000Y-110950000D03*
X151025000Y-111450000D03*
X151025000Y-111950000D03*
X151025000Y-112450000D03*
X151025000Y-112950000D03*
X151025000Y-113450000D03*
X151025000Y-113950000D03*
X151025000Y-114450000D03*
X151025000Y-114950000D03*
X151025000Y-115450000D03*
X151025000Y-115950000D03*
X151025000Y-116450000D03*
X151025000Y-116950000D03*
X151025000Y-117450000D03*
X151025000Y-117950000D03*
X151025000Y-118450000D03*
D27*
X152950000Y-120375000D03*
X153450000Y-120375000D03*
X153950000Y-120375000D03*
X154450000Y-120375000D03*
X154950000Y-120375000D03*
X155450000Y-120375000D03*
X155950000Y-120375000D03*
X156450000Y-120375000D03*
X156950000Y-120375000D03*
X157450000Y-120375000D03*
X157950000Y-120375000D03*
X158450000Y-120375000D03*
X158950000Y-120375000D03*
X159450000Y-120375000D03*
X159950000Y-120375000D03*
X160450000Y-120375000D03*
D26*
X162375000Y-118450000D03*
X162375000Y-117950000D03*
X162375000Y-117450000D03*
X162375000Y-116950000D03*
X162375000Y-116450000D03*
X162375000Y-115950000D03*
X162375000Y-115450000D03*
X162375000Y-114950000D03*
X162375000Y-114450000D03*
X162375000Y-113950000D03*
X162375000Y-113450000D03*
X162375000Y-112950000D03*
X162375000Y-112450000D03*
X162375000Y-111950000D03*
X162375000Y-111450000D03*
X162375000Y-110950000D03*
D27*
X160450000Y-109025000D03*
X159950000Y-109025000D03*
X159450000Y-109025000D03*
X158950000Y-109025000D03*
X158450000Y-109025000D03*
X157950000Y-109025000D03*
X157450000Y-109025000D03*
X156950000Y-109025000D03*
X156450000Y-109025000D03*
X155950000Y-109025000D03*
X155450000Y-109025000D03*
X154950000Y-109025000D03*
X154450000Y-109025000D03*
X153950000Y-109025000D03*
X153450000Y-109025000D03*
X152950000Y-109025000D03*
%TD*%
D14*
%TO.C,C7*%
X161440000Y-123900000D03*
X162400000Y-123900000D03*
%TD*%
D18*
%TO.C,C18*%
X149400000Y-120220000D03*
X149400000Y-121180000D03*
%TD*%
%TO.C,C22*%
X142000000Y-128220000D03*
X142000000Y-129180000D03*
%TD*%
D11*
%TO.C,C28*%
X149400000Y-113100000D03*
X148440000Y-113100000D03*
%TD*%
%TO.C,C31*%
X157200000Y-122400000D03*
X156240000Y-122400000D03*
%TD*%
D18*
%TO.C,C34*%
X147100000Y-109820000D03*
X147100000Y-110780000D03*
%TD*%
D14*
%TO.C,C6*%
X161440000Y-121900000D03*
X162400000Y-121900000D03*
%TD*%
D13*
%TO.C,R8*%
X148210000Y-125110000D03*
X147190000Y-125110000D03*
%TD*%
D18*
%TO.C,C23*%
X164400000Y-96220000D03*
X164400000Y-97180000D03*
%TD*%
D11*
%TO.C,C36*%
X149400000Y-117300000D03*
X148440000Y-117300000D03*
%TD*%
D21*
%TO.C,IC1*%
X157050000Y-126100000D03*
D22*
X157700000Y-126025000D03*
D21*
X158350000Y-126100000D03*
X158350000Y-124450000D03*
X157700000Y-124450000D03*
X157050000Y-124450000D03*
D23*
X157700000Y-125275000D03*
%TD*%
D14*
%TO.C,C17*%
X142540000Y-118900000D03*
X143500000Y-118900000D03*
%TD*%
D28*
%TO.C,U3*%
X143439400Y-101999999D03*
X143439400Y-102500000D03*
X143439400Y-103000000D03*
X143439400Y-103500001D03*
D29*
X144069701Y-103639000D03*
X144569700Y-103639000D03*
X145069699Y-103639000D03*
D28*
X145700000Y-103500001D03*
X145700000Y-103000000D03*
X145700000Y-102500000D03*
X145700000Y-101999999D03*
D29*
X145069699Y-101861000D03*
X144569700Y-101861000D03*
X144069701Y-101861000D03*
%TD*%
D18*
%TO.C,C13*%
X144700000Y-109840000D03*
X144700000Y-110800000D03*
%TD*%
D30*
%TO.C,R12*%
X158190000Y-122400000D03*
X159210000Y-122400000D03*
%TD*%
D11*
%TO.C,C8*%
X155160000Y-124800000D03*
X154200000Y-124800000D03*
%TD*%
D12*
%TO.C,C10*%
X145300000Y-108780000D03*
X145300000Y-107820000D03*
%TD*%
D14*
%TO.C,C2*%
X152240000Y-100900000D03*
X153200000Y-100900000D03*
%TD*%
D18*
%TO.C,C27*%
X143600000Y-109820000D03*
X143600000Y-110780000D03*
%TD*%
D11*
%TO.C,C15*%
X141380000Y-122900000D03*
X140420000Y-122900000D03*
%TD*%
D31*
%TO.C,U5*%
X143150000Y-120300000D03*
X143150000Y-121100001D03*
X143150000Y-121899999D03*
X143150000Y-122700000D03*
X143150000Y-123499998D03*
X147100000Y-123499998D03*
X147100000Y-122699997D03*
X147100000Y-121899999D03*
X147100000Y-121099998D03*
X147100000Y-120300000D03*
%TD*%
D14*
%TO.C,C9*%
X161440000Y-124900000D03*
X162400000Y-124900000D03*
%TD*%
D32*
%TO.C,D5*%
X140500000Y-128400000D03*
D33*
X140500000Y-129285000D03*
%TD*%
D13*
%TO.C,R9*%
X146110000Y-125100000D03*
X145090000Y-125100000D03*
%TD*%
D11*
%TO.C,C16*%
X141380000Y-124000000D03*
X140420000Y-124000000D03*
%TD*%
D14*
%TO.C,C19*%
X150140000Y-123500000D03*
X151100000Y-123500000D03*
%TD*%
D19*
%TO.C,R15*%
X142700000Y-114690000D03*
X142700000Y-115710000D03*
%TD*%
D34*
%TO.C,L1*%
X144530000Y-118900000D03*
X145500000Y-118900000D03*
%TD*%
D11*
%TO.C,C5*%
X145900000Y-104900000D03*
X144940000Y-104900000D03*
%TD*%
M02*
