%TF.GenerationSoftware,KiCad,Pcbnew,9.0.1*%
%TF.CreationDate,2025-04-28T02:05:13+08:00*%
%TF.ProjectId,Flight_Control,466c6967-6874-45f4-936f-6e74726f6c2e,rev?*%
%TF.SameCoordinates,Original*%
%TF.FileFunction,Copper,L4,Bot*%
%TF.FilePolarity,Positive*%
%FSLAX46Y46*%
G04 Gerber Fmt 4.6, Leading zero omitted, Abs format (unit mm)*
G04 Created by KiCad (PCBNEW 9.0.1) date 2025-04-28 02:05:13*
%MOMM*%
%LPD*%
G01*
G04 APERTURE LIST*
G04 Aperture macros list*
%AMRoundRect*
0 Rectangle with rounded corners*
0 $1 Rounding radius*
0 $2 $3 $4 $5 $6 $7 $8 $9 X,Y pos of 4 corners*
0 Add a 4 corners polygon primitive as box body*
4,1,4,$2,$3,$4,$5,$6,$7,$8,$9,$2,$3,0*
0 Add four circle primitives for the rounded corners*
1,1,$1+$1,$2,$3*
1,1,$1+$1,$4,$5*
1,1,$1+$1,$6,$7*
1,1,$1+$1,$8,$9*
0 Add four rect primitives between the rounded corners*
20,1,$1+$1,$2,$3,$4,$5,0*
20,1,$1+$1,$4,$5,$6,$7,0*
20,1,$1+$1,$6,$7,$8,$9,0*
20,1,$1+$1,$8,$9,$2,$3,0*%
G04 Aperture macros list end*
%TA.AperFunction,ComponentPad*%
%ADD10C,1.320800*%
%TD*%
%TA.AperFunction,ComponentPad*%
%ADD11R,1.498600X1.498600*%
%TD*%
%TA.AperFunction,ComponentPad*%
%ADD12C,1.498600*%
%TD*%
%TA.AperFunction,ComponentPad*%
%ADD13R,1.508000X1.508000*%
%TD*%
%TA.AperFunction,ComponentPad*%
%ADD14C,1.508000*%
%TD*%
%TA.AperFunction,SMDPad,CuDef*%
%ADD15RoundRect,0.150000X-0.150000X0.512500X-0.150000X-0.512500X0.150000X-0.512500X0.150000X0.512500X0*%
%TD*%
%TA.AperFunction,SMDPad,CuDef*%
%ADD16RoundRect,0.075000X-0.275000X0.390000X-0.275000X-0.390000X0.275000X-0.390000X0.275000X0.390000X0*%
%TD*%
%TA.AperFunction,SMDPad,CuDef*%
%ADD17RoundRect,0.075000X-0.275000X0.075000X-0.275000X-0.075000X0.275000X-0.075000X0.275000X0.075000X0*%
%TD*%
%TA.AperFunction,SMDPad,CuDef*%
%ADD18RoundRect,0.147500X-0.147500X-0.172500X0.147500X-0.172500X0.147500X0.172500X-0.147500X0.172500X0*%
%TD*%
%TA.AperFunction,SMDPad,CuDef*%
%ADD19RoundRect,0.135000X-0.135000X-0.185000X0.135000X-0.185000X0.135000X0.185000X-0.135000X0.185000X0*%
%TD*%
%TA.AperFunction,SMDPad,CuDef*%
%ADD20RoundRect,0.135000X-0.185000X0.135000X-0.185000X-0.135000X0.185000X-0.135000X0.185000X0.135000X0*%
%TD*%
%TA.AperFunction,SMDPad,CuDef*%
%ADD21RoundRect,0.147500X-0.172500X0.147500X-0.172500X-0.147500X0.172500X-0.147500X0.172500X0.147500X0*%
%TD*%
%TA.AperFunction,SMDPad,CuDef*%
%ADD22RoundRect,0.250000X-0.600000X0.400000X-0.600000X-0.400000X0.600000X-0.400000X0.600000X0.400000X0*%
%TD*%
%TA.AperFunction,SMDPad,CuDef*%
%ADD23RoundRect,0.135000X0.135000X0.185000X-0.135000X0.185000X-0.135000X-0.185000X0.135000X-0.185000X0*%
%TD*%
%TA.AperFunction,SMDPad,CuDef*%
%ADD24RoundRect,0.147500X0.172500X-0.147500X0.172500X0.147500X-0.172500X0.147500X-0.172500X-0.147500X0*%
%TD*%
%TA.AperFunction,ViaPad*%
%ADD25C,0.800000*%
%TD*%
%TA.AperFunction,ViaPad*%
%ADD26C,0.600000*%
%TD*%
%TA.AperFunction,ViaPad*%
%ADD27C,0.700000*%
%TD*%
%TA.AperFunction,Conductor*%
%ADD28C,0.200000*%
%TD*%
%TA.AperFunction,Conductor*%
%ADD29C,0.500000*%
%TD*%
%TA.AperFunction,Conductor*%
%ADD30C,0.300000*%
%TD*%
G04 APERTURE END LIST*
D10*
%TO.P,J3,2,-*%
%TO.N,GND*%
X147600001Y-128100000D03*
%TO.P,J3,1,+*%
%TO.N,+7.4V*%
X145600000Y-128100000D03*
%TD*%
D11*
%TO.P,SW1,1,1*%
%TO.N,+3.3V MCU*%
X157960599Y-102750001D03*
D12*
%TO.P,SW1,2,2*%
%TO.N,unconnected-(SW1-Pad2)*%
X157960599Y-96250000D03*
%TO.P,SW1,3,3*%
%TO.N,BOOT*%
X162460600Y-102750001D03*
%TO.P,SW1,4,4*%
%TO.N,Net-(C23-Pad1)*%
X162460600Y-96250000D03*
%TD*%
D13*
%TO.P,J1,1,1*%
%TO.N,TX_Rad*%
X137900000Y-110700000D03*
D14*
%TO.P,J1,2,2*%
%TO.N,RX_Rad*%
X137900000Y-113200000D03*
%TO.P,J1,3,3*%
%TO.N,+5V*%
X137900000Y-115700000D03*
%TO.P,J1,4,4*%
%TO.N,GND*%
X137900000Y-118200000D03*
%TD*%
D13*
%TO.P,J4,1,1*%
%TO.N,M1*%
X157100000Y-131000000D03*
D14*
%TO.P,J4,2,2*%
%TO.N,M2*%
X159600000Y-131000000D03*
%TO.P,J4,3,3*%
%TO.N,M3*%
X162100000Y-131000000D03*
%TO.P,J4,4,4*%
%TO.N,M4*%
X164600000Y-131000000D03*
%TD*%
D15*
%TO.P,U4,1,I/O1*%
%TO.N,D+*%
X167387500Y-114612500D03*
%TO.P,U4,2,GND*%
%TO.N,GND*%
X168337500Y-114612500D03*
%TO.P,U4,3,I/O2*%
%TO.N,USB_DP*%
X169287500Y-114612500D03*
%TO.P,U4,4,I/O2*%
%TO.N,USB_DM*%
X169287500Y-116887500D03*
%TO.P,U4,5,VBUS*%
%TO.N,V_USB*%
X168337500Y-116887500D03*
%TO.P,U4,6,I/O1*%
%TO.N,D-*%
X167387500Y-116887500D03*
%TD*%
D16*
%TO.P,D2,1,K*%
%TO.N,+3.3V MCU*%
X160500000Y-125100000D03*
D17*
%TO.P,D2,2,A*%
%TO.N,GND*%
X160500000Y-125985000D03*
%TD*%
D18*
%TO.P,D3,1,K*%
%TO.N,+5V MCU*%
X164115000Y-120700000D03*
%TO.P,D3,2,A*%
%TO.N,V_USB*%
X165085000Y-120700000D03*
%TD*%
D19*
%TO.P,R11,1*%
%TO.N,+7.4V*%
X151190000Y-127400000D03*
%TO.P,R11,2*%
%TO.N,ADC_BAT*%
X152210000Y-127400000D03*
%TD*%
D20*
%TO.P,R5,1*%
%TO.N,Net-(U5-PWRGD)*%
X146700000Y-122900000D03*
%TO.P,R5,2*%
%TO.N,Net-(R5-Pad2)*%
X146700000Y-123920000D03*
%TD*%
D19*
%TO.P,R6,1*%
%TO.N,Net-(U5-PWRGD)*%
X150890000Y-120600000D03*
%TO.P,R6,2*%
%TO.N,+5V*%
X151910000Y-120600000D03*
%TD*%
D20*
%TO.P,R16,1*%
%TO.N,INT_IMU*%
X153000000Y-115500000D03*
%TO.P,R16,2*%
%TO.N,GND*%
X153000000Y-116520000D03*
%TD*%
%TO.P,R17,1*%
%TO.N,INTB*%
X156400000Y-121790000D03*
%TO.P,R17,2*%
%TO.N,GND*%
X156400000Y-122810000D03*
%TD*%
D19*
%TO.P,R2,1*%
%TO.N,Net-(J2-CC2)*%
X164980000Y-113800000D03*
%TO.P,R2,2*%
%TO.N,GND*%
X166000000Y-113800000D03*
%TD*%
%TO.P,R3,1*%
%TO.N,+7.4V*%
X140590000Y-122200000D03*
%TO.P,R3,2*%
%TO.N,Net-(U5-EN)*%
X141610000Y-122200000D03*
%TD*%
D21*
%TO.P,L2,1,1*%
%TO.N,+3.3V MCU*%
X149500000Y-111800000D03*
%TO.P,L2,2,2*%
%TO.N,+3.3V MCU A*%
X149500000Y-112770000D03*
%TD*%
D22*
%TO.P,D1,1,K*%
%TO.N,Net-(D1-K)*%
X149200000Y-121950000D03*
%TO.P,D1,2,A*%
%TO.N,GND*%
X149200000Y-125450000D03*
%TD*%
D16*
%TO.P,D6,1,K*%
%TO.N,+3.3V P*%
X147400000Y-112990000D03*
D17*
%TO.P,D6,2,A*%
%TO.N,GND*%
X147400000Y-113875000D03*
%TD*%
D23*
%TO.P,R1,1*%
%TO.N,GND*%
X166000000Y-117700000D03*
%TO.P,R1,2*%
%TO.N,Net-(J2-CC1)*%
X164980000Y-117700000D03*
%TD*%
%TO.P,R7,1*%
%TO.N,Net-(U5-EN)*%
X141610000Y-123400000D03*
%TO.P,R7,2*%
%TO.N,GND*%
X140590000Y-123400000D03*
%TD*%
D24*
%TO.P,D4,1,K*%
%TO.N,+5V MCU*%
X152600000Y-123085000D03*
%TO.P,D4,2,A*%
%TO.N,+5V*%
X152600000Y-122115000D03*
%TD*%
D25*
%TO.N,+7.4V*%
X141979999Y-121100001D03*
D26*
%TO.N,GND*%
X152309785Y-116304309D03*
X171400000Y-121300000D03*
X172300000Y-121300000D03*
X172300000Y-120400000D03*
X171400000Y-120400000D03*
X167400000Y-121300000D03*
X168400000Y-121300000D03*
X168300000Y-120300000D03*
X167300000Y-120300000D03*
X171400000Y-111100000D03*
X172400000Y-111100000D03*
X172400000Y-110000000D03*
X171300000Y-110000000D03*
X168300000Y-111000000D03*
X167300000Y-111000000D03*
X168300000Y-109900000D03*
X167300000Y-109900000D03*
X153000000Y-131000000D03*
X151000000Y-129000000D03*
X151000000Y-131000000D03*
X156000000Y-100000000D03*
X156000000Y-98000000D03*
X156000000Y-96000000D03*
X154000000Y-98000000D03*
X154000000Y-96000000D03*
X152000000Y-96000000D03*
X152000000Y-98000000D03*
X150000000Y-98000000D03*
X150000000Y-96000000D03*
X148000000Y-96000000D03*
X148000000Y-98000000D03*
X146000000Y-98000000D03*
X146000000Y-96000000D03*
X144000000Y-96000000D03*
X144000000Y-98000000D03*
X142000000Y-98000000D03*
X142000000Y-96000000D03*
X140000000Y-96000000D03*
X140000000Y-98000000D03*
X136000000Y-100000000D03*
X138000000Y-100000000D03*
X140000000Y-100000000D03*
X140000000Y-102000000D03*
X138000000Y-102000000D03*
X136000000Y-102000000D03*
X136000000Y-104000000D03*
X138000000Y-104000000D03*
X140000000Y-104000000D03*
X140000000Y-106000000D03*
X140000000Y-108000000D03*
X138000000Y-108000000D03*
X138000000Y-106000000D03*
X136000000Y-106000000D03*
X136000000Y-108000000D03*
X138000000Y-121000000D03*
X136000000Y-121000000D03*
X136000000Y-123000000D03*
X138000000Y-123000000D03*
X138000000Y-125000000D03*
X136000000Y-125000000D03*
X136000000Y-127000000D03*
X138000000Y-127000000D03*
X138000000Y-129000000D03*
X136000000Y-129000000D03*
X168000000Y-97000000D03*
X168000000Y-99000000D03*
X166000000Y-99000000D03*
X164000000Y-99000000D03*
X164000000Y-101000000D03*
X166000000Y-101000000D03*
X168000000Y-101000000D03*
X170000000Y-101000000D03*
X172000000Y-101000000D03*
X172000000Y-103000000D03*
X170000000Y-103000000D03*
X168000000Y-103000000D03*
X166000000Y-103000000D03*
X164000000Y-103000000D03*
X164000000Y-105000000D03*
X166000000Y-105000000D03*
X168000000Y-105000000D03*
X170000000Y-105000000D03*
X172000000Y-105000000D03*
X172000000Y-107000000D03*
X170000000Y-107000000D03*
X168000000Y-107000000D03*
X166000000Y-107000000D03*
X164000000Y-107000000D03*
X164000000Y-109000000D03*
X166000000Y-109000000D03*
X168000000Y-109000000D03*
X172000000Y-109000000D03*
X170000000Y-109000000D03*
X170000000Y-111000000D03*
X170000000Y-113000000D03*
X172000000Y-113000000D03*
X172000000Y-117000000D03*
X172000000Y-115000000D03*
X170000000Y-119000000D03*
X172000000Y-119000000D03*
X166000000Y-121000000D03*
X166000000Y-123000000D03*
X168000000Y-123000000D03*
X170000000Y-123000000D03*
X172000000Y-123000000D03*
X172000000Y-125000000D03*
X170000000Y-125000000D03*
X168000000Y-125000000D03*
X166000000Y-125000000D03*
X166000000Y-127000000D03*
X168000000Y-127000000D03*
X170000000Y-127000000D03*
X172000000Y-127000000D03*
X172000000Y-129000000D03*
X170000000Y-129000000D03*
X168000000Y-129000000D03*
X168000000Y-131000000D03*
X168000000Y-133000000D03*
X153000000Y-133000000D03*
X151000000Y-133000000D03*
X142000000Y-133000000D03*
X140000000Y-133000000D03*
X157700000Y-126000000D03*
X166115762Y-118750000D03*
%TO.N,D-*%
X165000000Y-116300000D03*
%TO.N,GND*%
X150625735Y-104674265D03*
D27*
%TO.N,+3.3V MCU*%
X161440000Y-124900000D03*
D26*
%TO.N,GND*%
X161380000Y-125900000D03*
%TO.N,M2*%
X149818506Y-118048954D03*
%TO.N,M3*%
X153850000Y-117901472D03*
X156550000Y-118200000D03*
X160300000Y-119000000D03*
X161000000Y-129600000D03*
%TO.N,INTB*%
X157100000Y-118900000D03*
%TO.N,M1*%
X152700000Y-117600000D03*
X153800000Y-129800000D03*
D27*
%TO.N,+5V*%
X152000000Y-120600000D03*
D26*
%TO.N,+3.3V MCU A*%
X152701000Y-113400000D03*
%TO.N,GND*%
X168337502Y-114350000D03*
D27*
%TO.N,+3.3V P*%
X147400000Y-112990000D03*
%TO.N,+5V MCU*%
X155085880Y-125794880D03*
D26*
%TO.N,Net-(D1-K)*%
X147300000Y-121124266D03*
X145800000Y-119901397D03*
%TO.N,Net-(U5-PWRGD)*%
X147100000Y-120300000D03*
X150100000Y-120100000D03*
%TO.N,Net-(R5-Pad2)*%
X147700000Y-124200000D03*
%TO.N,Net-(U5-EN)*%
X142300000Y-122000000D03*
%TO.N,INTB*%
X156200000Y-103200000D03*
%TO.N,CSB*%
X156500000Y-104500000D03*
X158457353Y-105557353D03*
%TO.N,SCK*%
X152764816Y-103159545D03*
X157300000Y-106800000D03*
%TO.N,SDO*%
X156507353Y-107507353D03*
X151993711Y-105020244D03*
X143417299Y-101847598D03*
%TO.N,SDI*%
X152530541Y-104427102D03*
X150100000Y-101900000D03*
D27*
%TO.N,+3.3V P*%
X145772101Y-103702402D03*
X144500000Y-102822298D03*
D26*
%TO.N,GND*%
X142805309Y-110100000D03*
X146690000Y-107910000D03*
X145700000Y-113200000D03*
X144900000Y-113200000D03*
D27*
%TO.N,+3.3V MCU*%
X149500000Y-111350000D03*
X154100000Y-111800000D03*
X160400000Y-104100000D03*
D26*
%TO.N,INT_IMU*%
X152300000Y-115400000D03*
%TO.N,TX_Rad*%
X161068480Y-113210883D03*
%TO.N,RX_Rad*%
X161200000Y-114000000D03*
X143500000Y-113200000D03*
%TO.N,ADC_BAT*%
X154400000Y-127400000D03*
D27*
%TO.N,+5V MCU*%
X161800000Y-127000000D03*
D26*
%TO.N,D+*%
X165462265Y-114913735D03*
D27*
%TO.N,V_USB*%
X165600000Y-119500000D03*
D26*
%TO.N,USB_DM*%
X163700000Y-114000000D03*
%TO.N,USB_DP*%
X163900000Y-112500000D03*
%TO.N,Net-(J2-CC2)*%
X165236722Y-114080006D03*
%TO.N,Net-(J2-CC1)*%
X165400000Y-117000000D03*
%TD*%
D28*
%TO.N,M1*%
X155536880Y-120436880D02*
X152700000Y-117600000D01*
X156000000Y-125000000D02*
X155536880Y-124536880D01*
X155536880Y-124536880D02*
X155536880Y-120436880D01*
X156000000Y-127600000D02*
X156000000Y-125000000D01*
X153800000Y-129800000D02*
X156000000Y-127600000D01*
%TO.N,M2*%
X158545000Y-129945000D02*
X159600000Y-131000000D01*
X156045000Y-129945000D02*
X158545000Y-129945000D01*
X155589000Y-130401000D02*
X156045000Y-129945000D01*
X153551057Y-130401000D02*
X155589000Y-130401000D01*
X153199000Y-130048943D02*
X153551057Y-130401000D01*
X153199000Y-129551057D02*
X153199000Y-130048943D01*
X155135880Y-126857561D02*
X155135880Y-127614177D01*
X151979000Y-122828943D02*
X151979000Y-123700681D01*
X155135880Y-127614177D02*
X153199000Y-129551057D01*
X149499000Y-120348943D02*
X151979000Y-122828943D01*
X151979000Y-123700681D02*
X155135880Y-126857561D01*
X149499000Y-118368460D02*
X149499000Y-120348943D01*
X149818506Y-118048954D02*
X149499000Y-118368460D01*
D29*
%TO.N,+7.4V*%
X141370000Y-121100001D02*
X141979999Y-121100001D01*
X140590000Y-121880001D02*
X141370000Y-121100001D01*
X140590000Y-122200000D02*
X140590000Y-121880001D01*
D28*
%TO.N,USB_DP*%
X169287500Y-113950001D02*
X169287500Y-114612500D01*
X168720504Y-113383005D02*
X169287500Y-113950001D01*
X168617509Y-113486000D02*
X168720504Y-113383005D01*
X167650508Y-113101000D02*
X167661500Y-113090008D01*
X166699000Y-112700000D02*
X166699000Y-112748943D01*
X168057492Y-113486000D02*
X168617509Y-113486000D01*
X164100000Y-112700000D02*
X166699000Y-112700000D01*
X166699000Y-112748943D02*
X167051057Y-113101000D01*
X163900000Y-112500000D02*
X164100000Y-112700000D01*
X167051057Y-113101000D02*
X167650508Y-113101000D01*
X167661500Y-113090008D02*
X168057492Y-113486000D01*
%TO.N,GND*%
X168337502Y-114328746D02*
X168337502Y-114350000D01*
X167707756Y-113699000D02*
X168337502Y-114328746D01*
X166101000Y-113699000D02*
X167707756Y-113699000D01*
X166000000Y-113800000D02*
X166101000Y-113699000D01*
%TO.N,Net-(J2-CC2)*%
X164980000Y-113985613D02*
X164980000Y-113800000D01*
X165236722Y-114080006D02*
X165074393Y-114080006D01*
X165074393Y-114080006D02*
X164980000Y-113985613D01*
D29*
%TO.N,+7.4V*%
X145800000Y-127900000D02*
X145600000Y-128100000D01*
X145987500Y-127900000D02*
X145800000Y-127900000D01*
X147387500Y-126500000D02*
X145987500Y-127900000D01*
X150290000Y-126500000D02*
X147387500Y-126500000D01*
X151190000Y-127400000D02*
X150290000Y-126500000D01*
D28*
%TO.N,GND*%
X166000000Y-118634238D02*
X166115762Y-118750000D01*
X166000000Y-117700000D02*
X166000000Y-118634238D01*
%TO.N,D-*%
X166800000Y-116300000D02*
X165000000Y-116300000D01*
X167387500Y-116887500D02*
X166800000Y-116300000D01*
%TO.N,USB_DM*%
X165600000Y-115900000D02*
X163700000Y-114000000D01*
X168962499Y-115900000D02*
X165600000Y-115900000D01*
X169287500Y-116887500D02*
X169287500Y-116225001D01*
X169287500Y-116225001D02*
X168962499Y-115900000D01*
D30*
%TO.N,+3.3V MCU*%
X161240000Y-125100000D02*
X161440000Y-124900000D01*
X160500000Y-125100000D02*
X161240000Y-125100000D01*
D28*
%TO.N,GND*%
X161295000Y-125985000D02*
X161380000Y-125900000D01*
X160500000Y-125985000D02*
X161295000Y-125985000D01*
%TO.N,M3*%
X154148527Y-118200000D02*
X156550000Y-118200000D01*
X153850000Y-117901472D02*
X154148527Y-118200000D01*
X159849000Y-119451000D02*
X160300000Y-119000000D01*
X159849000Y-128449000D02*
X159849000Y-119451000D01*
X161000000Y-129600000D02*
X159849000Y-128449000D01*
%TO.N,INTB*%
X156400000Y-121790000D02*
X156400000Y-119600000D01*
X156400000Y-119600000D02*
X157100000Y-118900000D01*
D30*
%TO.N,+5V*%
X152600000Y-121290000D02*
X151910000Y-120600000D01*
X152600000Y-122115000D02*
X152600000Y-121290000D01*
X151910000Y-120600000D02*
X152000000Y-120600000D01*
D28*
%TO.N,+3.3V MCU A*%
X152071000Y-112770000D02*
X152701000Y-113400000D01*
X149500000Y-112770000D02*
X152071000Y-112770000D01*
D30*
%TO.N,+5V MCU*%
X152600000Y-123309000D02*
X155085880Y-125794880D01*
X152600000Y-123085000D02*
X152600000Y-123309000D01*
D28*
%TO.N,Net-(D1-K)*%
X148750000Y-121950000D02*
X149200000Y-121950000D01*
X147612133Y-120812133D02*
X148750000Y-121950000D01*
X147612133Y-120812133D02*
X147300000Y-121124266D01*
X147701000Y-120723266D02*
X147612133Y-120812133D01*
X147701000Y-120051057D02*
X147701000Y-120723266D01*
X146002397Y-119699000D02*
X147348943Y-119699000D01*
X145800000Y-119901397D02*
X146002397Y-119699000D01*
X147348943Y-119699000D02*
X147701000Y-120051057D01*
%TO.N,Net-(U5-PWRGD)*%
X146700000Y-120700000D02*
X147100000Y-120300000D01*
X146700000Y-122900000D02*
X146700000Y-120700000D01*
X150390000Y-120100000D02*
X150890000Y-120600000D01*
X150100000Y-120100000D02*
X150390000Y-120100000D01*
%TO.N,Net-(R5-Pad2)*%
X147420000Y-123920000D02*
X147700000Y-124200000D01*
X146700000Y-123920000D02*
X147420000Y-123920000D01*
%TO.N,Net-(U5-EN)*%
X141610000Y-122200000D02*
X141610000Y-123400000D01*
X141810000Y-122000000D02*
X141610000Y-122200000D01*
X142300000Y-122000000D02*
X141810000Y-122000000D01*
%TO.N,INTB*%
X161801000Y-110451057D02*
X161801000Y-116389000D01*
X157076572Y-105726629D02*
X161801000Y-110451057D01*
X155899000Y-105726629D02*
X157076572Y-105726629D01*
X155899000Y-103501000D02*
X155899000Y-105726629D01*
X156200000Y-103200000D02*
X155899000Y-103501000D01*
X161801000Y-116389000D02*
X156400000Y-121790000D01*
%TO.N,CSB*%
X158457353Y-105557353D02*
X157557353Y-105557353D01*
X157557353Y-105557353D02*
X156500000Y-104500000D01*
X156500000Y-104500000D02*
X156400000Y-104400000D01*
%TO.N,SCK*%
X157300000Y-106800000D02*
X156405271Y-106800000D01*
X156405271Y-106800000D02*
X152764816Y-103159545D01*
%TO.N,SDO*%
X156200000Y-107200000D02*
X154173467Y-107200000D01*
X154173467Y-107200000D02*
X151993711Y-105020244D01*
X156507353Y-107507353D02*
X156200000Y-107200000D01*
X148647598Y-101847598D02*
X143417299Y-101847598D01*
X151820244Y-105020244D02*
X148647598Y-101847598D01*
X151993711Y-105020244D02*
X151820244Y-105020244D01*
%TO.N,SDI*%
X150100000Y-102200000D02*
X150100000Y-101900000D01*
X152327102Y-104427102D02*
X150100000Y-102200000D01*
X152530541Y-104427102D02*
X152327102Y-104427102D01*
%TO.N,+3.3V P*%
X144500000Y-102822298D02*
X144891997Y-102822298D01*
X144891997Y-102822298D02*
X145772101Y-103702402D01*
D30*
%TO.N,+3.3V MCU*%
X149500000Y-111350000D02*
X149500000Y-111800000D01*
X149500000Y-111800000D02*
X154100000Y-111800000D01*
X159050001Y-102750001D02*
X160400000Y-104100000D01*
X157960599Y-102750001D02*
X159050001Y-102750001D01*
D28*
%TO.N,INT_IMU*%
X152400000Y-115500000D02*
X152300000Y-115400000D01*
X153000000Y-115500000D02*
X152400000Y-115500000D01*
%TO.N,TX_Rad*%
X161068480Y-113210883D02*
X158557597Y-110700000D01*
X158557597Y-110700000D02*
X137900000Y-110700000D01*
%TO.N,RX_Rad*%
X147995638Y-112224000D02*
X149771638Y-114000000D01*
X144476000Y-112224000D02*
X147995638Y-112224000D01*
X143500000Y-113200000D02*
X144476000Y-112224000D01*
X149771638Y-114000000D02*
X161200000Y-114000000D01*
%TO.N,ADC_BAT*%
X154400000Y-127400000D02*
X152210000Y-127400000D01*
D30*
%TO.N,+5V MCU*%
X164115000Y-124685000D02*
X161800000Y-127000000D01*
X164115000Y-120700000D02*
X164115000Y-124685000D01*
D28*
%TO.N,D+*%
X165838902Y-114861098D02*
X166200000Y-114500000D01*
X166200000Y-114500000D02*
X167275000Y-114500000D01*
X165514902Y-114861098D02*
X165838902Y-114861098D01*
X165462265Y-114913735D02*
X165514902Y-114861098D01*
X167275000Y-114500000D02*
X167387500Y-114612500D01*
D30*
%TO.N,V_USB*%
X166392500Y-119392500D02*
X166285000Y-119500000D01*
X166285000Y-119500000D02*
X165600000Y-119500000D01*
X166392500Y-119392500D02*
X168337500Y-117447500D01*
X165085000Y-120700000D02*
X166392500Y-119392500D01*
X168337500Y-117447500D02*
X168337500Y-116887500D01*
D28*
%TO.N,Net-(J2-CC1)*%
X165400000Y-117000000D02*
X165400000Y-117280000D01*
X165400000Y-117280000D02*
X164980000Y-117700000D01*
%TD*%
%TA.AperFunction,Conductor*%
%TO.N,GND*%
G36*
X166754194Y-113183845D02*
G01*
X166763714Y-113182491D01*
X166797637Y-113201840D01*
X166834472Y-113238675D01*
X166834475Y-113238679D01*
X166838692Y-113242896D01*
X166838693Y-113242897D01*
X166909160Y-113313364D01*
X166936126Y-113324534D01*
X167001229Y-113351501D01*
X167001230Y-113351501D01*
X167109497Y-113351501D01*
X167109505Y-113351500D01*
X167538079Y-113351500D01*
X167590405Y-113373174D01*
X167740420Y-113523189D01*
X167762094Y-113575515D01*
X167740420Y-113627841D01*
X167669816Y-113698444D01*
X167631538Y-113763169D01*
X167586246Y-113797175D01*
X167567843Y-113799500D01*
X167192636Y-113799500D01*
X167167513Y-113802414D01*
X167167507Y-113802415D01*
X167064734Y-113847794D01*
X166985294Y-113927234D01*
X166939914Y-114030011D01*
X166937000Y-114055135D01*
X166937000Y-114175500D01*
X166915326Y-114227826D01*
X166863000Y-114249500D01*
X166817971Y-114249500D01*
X166765645Y-114227826D01*
X166743971Y-114175500D01*
X166746909Y-114154855D01*
X166767166Y-114085127D01*
X166769931Y-114050000D01*
X166074000Y-114050000D01*
X166021674Y-114028326D01*
X166000000Y-113976000D01*
X166000000Y-113624000D01*
X166021674Y-113571674D01*
X166074000Y-113550000D01*
X166769930Y-113550000D01*
X166767166Y-113514873D01*
X166722405Y-113360806D01*
X166681616Y-113291835D01*
X166678842Y-113272349D01*
X166671311Y-113254166D01*
X166674990Y-113245282D01*
X166673636Y-113235763D01*
X166685452Y-113220024D01*
X166692985Y-113201840D01*
X166701868Y-113198160D01*
X166707642Y-113190471D01*
X166727127Y-113187697D01*
X166745311Y-113180166D01*
X166754194Y-113183845D01*
G37*
%TD.AperFunction*%
%TA.AperFunction,Conductor*%
G36*
X172435714Y-94403770D02*
G01*
X172436035Y-94403792D01*
X172440738Y-94403792D01*
X172504202Y-94403792D01*
X172509042Y-94403950D01*
X172736669Y-94418874D01*
X172746258Y-94420136D01*
X172967615Y-94464170D01*
X172976954Y-94466672D01*
X173140423Y-94522164D01*
X173190671Y-94539222D01*
X173199614Y-94542927D01*
X173251780Y-94568653D01*
X173402021Y-94642745D01*
X173410401Y-94647584D01*
X173598047Y-94772968D01*
X173605726Y-94778860D01*
X173775404Y-94927666D01*
X173782248Y-94934511D01*
X173931052Y-95104191D01*
X173936945Y-95111870D01*
X174062326Y-95299518D01*
X174067166Y-95307901D01*
X174166984Y-95510313D01*
X174170688Y-95519256D01*
X174243231Y-95732962D01*
X174245736Y-95742311D01*
X174289764Y-95963654D01*
X174291028Y-95973251D01*
X174305947Y-96200864D01*
X174306105Y-96205717D01*
X174299511Y-132929486D01*
X174299510Y-132934066D01*
X174299500Y-132934108D01*
X174299500Y-132997558D01*
X174299500Y-132997570D01*
X174299342Y-133002410D01*
X174284421Y-133230046D01*
X174283157Y-133239642D01*
X174239130Y-133460984D01*
X174236625Y-133470335D01*
X174164079Y-133684047D01*
X174160375Y-133692989D01*
X174060558Y-133895400D01*
X174055718Y-133903783D01*
X173930331Y-134091436D01*
X173924438Y-134099115D01*
X173775637Y-134268792D01*
X173768792Y-134275637D01*
X173599115Y-134424438D01*
X173591436Y-134430331D01*
X173403783Y-134555718D01*
X173395400Y-134560558D01*
X173192989Y-134660375D01*
X173184047Y-134664079D01*
X172970335Y-134736625D01*
X172960984Y-134739130D01*
X172739642Y-134783157D01*
X172730046Y-134784421D01*
X172502396Y-134799342D01*
X172497568Y-134799500D01*
X172434108Y-134799500D01*
X172434069Y-134799509D01*
X172429581Y-134799510D01*
X172429581Y-134799511D01*
X136003946Y-134806136D01*
X135999094Y-134805978D01*
X135771462Y-134791061D01*
X135761865Y-134789797D01*
X135540518Y-134745770D01*
X135531168Y-134743265D01*
X135317456Y-134670722D01*
X135308513Y-134667018D01*
X135106096Y-134567199D01*
X135097714Y-134562359D01*
X134910060Y-134436976D01*
X134902380Y-134431084D01*
X134901521Y-134430331D01*
X134732695Y-134282277D01*
X134725851Y-134275432D01*
X134577040Y-134105751D01*
X134571153Y-134098080D01*
X134445758Y-133910420D01*
X134440920Y-133902039D01*
X134341100Y-133699630D01*
X134337395Y-133690687D01*
X134264845Y-133476971D01*
X134262340Y-133467622D01*
X134232915Y-133319706D01*
X134218305Y-133246262D01*
X134217043Y-133236670D01*
X134212641Y-133169524D01*
X134202173Y-133009859D01*
X134202015Y-133005088D01*
X134202015Y-132940738D01*
X134202006Y-132940705D01*
X134201872Y-132001582D01*
X135449500Y-132001582D01*
X135449500Y-132198417D01*
X135480290Y-132392823D01*
X135480293Y-132392836D01*
X135541113Y-132580019D01*
X135541115Y-132580024D01*
X135541116Y-132580025D01*
X135630476Y-132755405D01*
X135746172Y-132914646D01*
X135885354Y-133053828D01*
X136044595Y-133169524D01*
X136219975Y-133258884D01*
X136219977Y-133258884D01*
X136219980Y-133258886D01*
X136407163Y-133319706D01*
X136407169Y-133319707D01*
X136407174Y-133319709D01*
X136536780Y-133340236D01*
X136601582Y-133350500D01*
X136601583Y-133350500D01*
X136798418Y-133350500D01*
X136847019Y-133342802D01*
X136992826Y-133319709D01*
X136992833Y-133319706D01*
X136992836Y-133319706D01*
X137180019Y-133258886D01*
X137180019Y-133258885D01*
X137180025Y-133258884D01*
X137355405Y-133169524D01*
X137514646Y-133053828D01*
X137653828Y-132914646D01*
X137769524Y-132755405D01*
X137858884Y-132580025D01*
X137919709Y-132392826D01*
X137950500Y-132198417D01*
X137950500Y-132001583D01*
X137950500Y-132001582D01*
X170449500Y-132001582D01*
X170449500Y-132198417D01*
X170480290Y-132392823D01*
X170480293Y-132392836D01*
X170541113Y-132580019D01*
X170541115Y-132580024D01*
X170541116Y-132580025D01*
X170630476Y-132755405D01*
X170746172Y-132914646D01*
X170885354Y-133053828D01*
X171044595Y-133169524D01*
X171219975Y-133258884D01*
X171219977Y-133258884D01*
X171219980Y-133258886D01*
X171407163Y-133319706D01*
X171407169Y-133319707D01*
X171407174Y-133319709D01*
X171536780Y-133340236D01*
X171601582Y-133350500D01*
X171601583Y-133350500D01*
X171798418Y-133350500D01*
X171847019Y-133342802D01*
X171992826Y-133319709D01*
X171992833Y-133319706D01*
X171992836Y-133319706D01*
X172180019Y-133258886D01*
X172180019Y-133258885D01*
X172180025Y-133258884D01*
X172355405Y-133169524D01*
X172514646Y-133053828D01*
X172653828Y-132914646D01*
X172769524Y-132755405D01*
X172858884Y-132580025D01*
X172919709Y-132392826D01*
X172950500Y-132198417D01*
X172950500Y-132001583D01*
X172919709Y-131807174D01*
X172919707Y-131807169D01*
X172919706Y-131807163D01*
X172858886Y-131619980D01*
X172858884Y-131619977D01*
X172858884Y-131619975D01*
X172769524Y-131444595D01*
X172653828Y-131285354D01*
X172514646Y-131146172D01*
X172514643Y-131146169D01*
X172514641Y-131146168D01*
X172355404Y-131030475D01*
X172180019Y-130941113D01*
X171992836Y-130880293D01*
X171992823Y-130880290D01*
X171798418Y-130849500D01*
X171798417Y-130849500D01*
X171601583Y-130849500D01*
X171601582Y-130849500D01*
X171407176Y-130880290D01*
X171407163Y-130880293D01*
X171219980Y-130941113D01*
X171044595Y-131030475D01*
X170885358Y-131146168D01*
X170746168Y-131285358D01*
X170630475Y-131444595D01*
X170541113Y-131619980D01*
X170480293Y-131807163D01*
X170480290Y-131807176D01*
X170449500Y-132001582D01*
X137950500Y-132001582D01*
X137919709Y-131807174D01*
X137919707Y-131807169D01*
X137919706Y-131807163D01*
X137858886Y-131619980D01*
X137858884Y-131619977D01*
X137858884Y-131619975D01*
X137769524Y-131444595D01*
X137653828Y-131285354D01*
X137514646Y-131146172D01*
X137514643Y-131146169D01*
X137514641Y-131146168D01*
X137355404Y-131030475D01*
X137180019Y-130941113D01*
X136992836Y-130880293D01*
X136992823Y-130880290D01*
X136798418Y-130849500D01*
X136798417Y-130849500D01*
X136601583Y-130849500D01*
X136601582Y-130849500D01*
X136407176Y-130880290D01*
X136407163Y-130880293D01*
X136219980Y-130941113D01*
X136044595Y-131030475D01*
X135885358Y-131146168D01*
X135746168Y-131285358D01*
X135630475Y-131444595D01*
X135541113Y-131619980D01*
X135480293Y-131807163D01*
X135480290Y-131807176D01*
X135449500Y-132001582D01*
X134201872Y-132001582D01*
X134201306Y-128020133D01*
X144789100Y-128020133D01*
X144789100Y-128179866D01*
X144820260Y-128336524D01*
X144820263Y-128336535D01*
X144881387Y-128484102D01*
X144952745Y-128590897D01*
X144970133Y-128616919D01*
X145083081Y-128729867D01*
X145215895Y-128818611D01*
X145363469Y-128879738D01*
X145520133Y-128910900D01*
X145520134Y-128910900D01*
X145679866Y-128910900D01*
X145679867Y-128910900D01*
X145836531Y-128879738D01*
X145984105Y-128818611D01*
X146116919Y-128729867D01*
X146229867Y-128616919D01*
X146318611Y-128484105D01*
X146346128Y-128417673D01*
X146386176Y-128377624D01*
X146442813Y-128377624D01*
X146482862Y-128417672D01*
X146484873Y-128423124D01*
X146524613Y-128545433D01*
X146607536Y-128708178D01*
X146620468Y-128725978D01*
X147193601Y-128152845D01*
X147193601Y-128153504D01*
X147221296Y-128256865D01*
X147274800Y-128349536D01*
X147350465Y-128425201D01*
X147443136Y-128478705D01*
X147546497Y-128506400D01*
X147547154Y-128506400D01*
X146974021Y-129079532D01*
X146991816Y-129092461D01*
X146991822Y-129092464D01*
X147154560Y-129175384D01*
X147154565Y-129175386D01*
X147328262Y-129231824D01*
X147328275Y-129231827D01*
X147508675Y-129260400D01*
X147691327Y-129260400D01*
X147871726Y-129231827D01*
X147871739Y-129231824D01*
X148045436Y-129175386D01*
X148045441Y-129175384D01*
X148208173Y-129092468D01*
X148208182Y-129092462D01*
X148225979Y-129079531D01*
X147652848Y-128506400D01*
X147653505Y-128506400D01*
X147756866Y-128478705D01*
X147849537Y-128425201D01*
X147925202Y-128349536D01*
X147978706Y-128256865D01*
X148006401Y-128153504D01*
X148006401Y-128152847D01*
X148579532Y-128725978D01*
X148592463Y-128708181D01*
X148592469Y-128708172D01*
X148675385Y-128545440D01*
X148675387Y-128545435D01*
X148731825Y-128371738D01*
X148731828Y-128371725D01*
X148760401Y-128191325D01*
X148760401Y-128008674D01*
X148731828Y-127828274D01*
X148731825Y-127828261D01*
X148675387Y-127654564D01*
X148675385Y-127654559D01*
X148592465Y-127491821D01*
X148592462Y-127491815D01*
X148579533Y-127474020D01*
X148006401Y-128047152D01*
X148006401Y-128046496D01*
X147978706Y-127943135D01*
X147925202Y-127850464D01*
X147849537Y-127774799D01*
X147756866Y-127721295D01*
X147653505Y-127693600D01*
X147652847Y-127693600D01*
X148225979Y-127120467D01*
X148225980Y-127120467D01*
X148208179Y-127107535D01*
X148076487Y-127040435D01*
X148039704Y-126997368D01*
X148044147Y-126940905D01*
X148087214Y-126904122D01*
X148110082Y-126900500D01*
X150093455Y-126900500D01*
X150145781Y-126922174D01*
X150747826Y-127524219D01*
X150769500Y-127576544D01*
X150769500Y-127627622D01*
X150772269Y-127651495D01*
X150772269Y-127651497D01*
X150772270Y-127651498D01*
X150815384Y-127749141D01*
X150890859Y-127824616D01*
X150988502Y-127867730D01*
X151012377Y-127870500D01*
X151367622Y-127870499D01*
X151391498Y-127867730D01*
X151489141Y-127824616D01*
X151564616Y-127749141D01*
X151607730Y-127651498D01*
X151610500Y-127627623D01*
X151610499Y-127172378D01*
X151607730Y-127148502D01*
X151564616Y-127050859D01*
X151489141Y-126975384D01*
X151391498Y-126932270D01*
X151367623Y-126929500D01*
X151367619Y-126929500D01*
X151316545Y-126929500D01*
X151264219Y-126907826D01*
X150918655Y-126562262D01*
X150535913Y-126179520D01*
X150535910Y-126179518D01*
X150535908Y-126179516D01*
X150533806Y-126177903D01*
X150533138Y-126176746D01*
X150532483Y-126176091D01*
X150532658Y-126175915D01*
X150505490Y-126128852D01*
X150508614Y-126095921D01*
X150539505Y-126002699D01*
X150539505Y-126002697D01*
X150549999Y-125899975D01*
X150550000Y-125899973D01*
X150550000Y-125700000D01*
X147850001Y-125700000D01*
X147850001Y-125899976D01*
X147860494Y-126002701D01*
X147861340Y-126006650D01*
X147859995Y-126006937D01*
X147856218Y-126058718D01*
X147813362Y-126095746D01*
X147790093Y-126099500D01*
X147440227Y-126099500D01*
X147334773Y-126099500D01*
X147324719Y-126102194D01*
X147232911Y-126126793D01*
X147232907Y-126126795D01*
X147141590Y-126179517D01*
X145987680Y-127333425D01*
X145935354Y-127355099D01*
X145907036Y-127349466D01*
X145836531Y-127320262D01*
X145836524Y-127320260D01*
X145718501Y-127296784D01*
X145679867Y-127289100D01*
X145520133Y-127289100D01*
X145489141Y-127295264D01*
X145363475Y-127320260D01*
X145363464Y-127320263D01*
X145215897Y-127381387D01*
X145083084Y-127470130D01*
X144970130Y-127583084D01*
X144881387Y-127715897D01*
X144820263Y-127863464D01*
X144820260Y-127863475D01*
X144789100Y-128020133D01*
X134201306Y-128020133D01*
X134200684Y-123650000D01*
X139820069Y-123650000D01*
X139822833Y-123685126D01*
X139867594Y-123839193D01*
X139949264Y-123977289D01*
X140062710Y-124090735D01*
X140200806Y-124172405D01*
X140339999Y-124212845D01*
X140340000Y-124212845D01*
X140340000Y-123650000D01*
X139820069Y-123650000D01*
X134200684Y-123650000D01*
X134200613Y-123150000D01*
X139820069Y-123150000D01*
X140516000Y-123150000D01*
X140568326Y-123171674D01*
X140590000Y-123224000D01*
X140590000Y-123400000D01*
X140766000Y-123400000D01*
X140818326Y-123421674D01*
X140840000Y-123474000D01*
X140840000Y-124212845D01*
X140979193Y-124172405D01*
X141117289Y-124090735D01*
X141230735Y-123977289D01*
X141285462Y-123884750D01*
X141330753Y-123850744D01*
X141379048Y-123854725D01*
X141396355Y-123862366D01*
X141408502Y-123867730D01*
X141432377Y-123870500D01*
X141787622Y-123870499D01*
X141811498Y-123867730D01*
X141909141Y-123824616D01*
X141984616Y-123749141D01*
X141987601Y-123742380D01*
X146229500Y-123742380D01*
X146229500Y-124097622D01*
X146232269Y-124121495D01*
X146232269Y-124121497D01*
X146232270Y-124121498D01*
X146275384Y-124219141D01*
X146350859Y-124294616D01*
X146448502Y-124337730D01*
X146472377Y-124340500D01*
X146927622Y-124340499D01*
X146951498Y-124337730D01*
X147049141Y-124294616D01*
X147124192Y-124219564D01*
X147176517Y-124197891D01*
X147228843Y-124219565D01*
X147246385Y-124255121D01*
X147248244Y-124254624D01*
X147280199Y-124373882D01*
X147280201Y-124373887D01*
X147339508Y-124476609D01*
X147339509Y-124476610D01*
X147339511Y-124476613D01*
X147423387Y-124560489D01*
X147423389Y-124560490D01*
X147423390Y-124560491D01*
X147526112Y-124619798D01*
X147526114Y-124619799D01*
X147526115Y-124619799D01*
X147526117Y-124619800D01*
X147534380Y-124622014D01*
X147640688Y-124650499D01*
X147640689Y-124650500D01*
X147640691Y-124650500D01*
X147759311Y-124650500D01*
X147759311Y-124650499D01*
X147801649Y-124639154D01*
X147827539Y-124632218D01*
X147883692Y-124639610D01*
X147918170Y-124684543D01*
X147916936Y-124726972D01*
X147860494Y-124897301D01*
X147850000Y-125000024D01*
X147850000Y-125200000D01*
X148950000Y-125200000D01*
X149450000Y-125200000D01*
X150549999Y-125200000D01*
X150549999Y-125000029D01*
X150549998Y-125000023D01*
X150539505Y-124897303D01*
X150484357Y-124730878D01*
X150392316Y-124581656D01*
X150392314Y-124581653D01*
X150268347Y-124457686D01*
X150268343Y-124457683D01*
X150119121Y-124365642D01*
X149952697Y-124310494D01*
X149849975Y-124300000D01*
X149450000Y-124300000D01*
X149450000Y-125200000D01*
X148950000Y-125200000D01*
X148950000Y-124300000D01*
X148550029Y-124300000D01*
X148550023Y-124300001D01*
X148447303Y-124310494D01*
X148280875Y-124365643D01*
X148249087Y-124385250D01*
X148193173Y-124394272D01*
X148147257Y-124361114D01*
X148138235Y-124305200D01*
X148138750Y-124303157D01*
X148150500Y-124259309D01*
X148150500Y-124140691D01*
X148150500Y-124140689D01*
X148150499Y-124140688D01*
X148119800Y-124026117D01*
X148119798Y-124026112D01*
X148060491Y-123923390D01*
X148060490Y-123923389D01*
X148060489Y-123923387D01*
X147976613Y-123839511D01*
X147976610Y-123839509D01*
X147976609Y-123839508D01*
X147873887Y-123780201D01*
X147873882Y-123780199D01*
X147759311Y-123749500D01*
X147759309Y-123749500D01*
X147640691Y-123749500D01*
X147635841Y-123749500D01*
X147635841Y-123746785D01*
X147589524Y-123734369D01*
X147582253Y-123727992D01*
X147561898Y-123707637D01*
X147561894Y-123707634D01*
X147469828Y-123669500D01*
X147194311Y-123669500D01*
X147141985Y-123647826D01*
X147126617Y-123625391D01*
X147124616Y-123620859D01*
X147049141Y-123545384D01*
X146951498Y-123502270D01*
X146927623Y-123499500D01*
X146927619Y-123499500D01*
X146472377Y-123499500D01*
X146448504Y-123502269D01*
X146350858Y-123545384D01*
X146275385Y-123620857D01*
X146232270Y-123718501D01*
X146229500Y-123742380D01*
X141987601Y-123742380D01*
X142027730Y-123651498D01*
X142030500Y-123627623D01*
X142030499Y-123172378D01*
X142027730Y-123148502D01*
X141984616Y-123050859D01*
X141909141Y-122975384D01*
X141909139Y-122975383D01*
X141909137Y-122975381D01*
X141904609Y-122973382D01*
X141865497Y-122932419D01*
X141860500Y-122905688D01*
X141860500Y-122694311D01*
X141882174Y-122641985D01*
X141904608Y-122626617D01*
X141909141Y-122624616D01*
X141984616Y-122549141D01*
X142025569Y-122456390D01*
X142066532Y-122417278D01*
X142121381Y-122418545D01*
X142121631Y-122417942D01*
X142126112Y-122419798D01*
X142126114Y-122419799D01*
X142126115Y-122419799D01*
X142126117Y-122419800D01*
X142155313Y-122427623D01*
X142240688Y-122450499D01*
X142240689Y-122450500D01*
X142240691Y-122450500D01*
X142359311Y-122450500D01*
X142359311Y-122450499D01*
X142473886Y-122419799D01*
X142576613Y-122360489D01*
X142660489Y-122276613D01*
X142719799Y-122173886D01*
X142750499Y-122059311D01*
X142750500Y-122059311D01*
X142750500Y-121940689D01*
X142750499Y-121940688D01*
X142719800Y-121826117D01*
X142719798Y-121826112D01*
X142660491Y-121723390D01*
X142660490Y-121723389D01*
X142660489Y-121723387D01*
X142576613Y-121639511D01*
X142576610Y-121639509D01*
X142576609Y-121639508D01*
X142473887Y-121580201D01*
X142473882Y-121580199D01*
X142443454Y-121572046D01*
X142398521Y-121537567D01*
X142391129Y-121481415D01*
X142410281Y-121448242D01*
X142420508Y-121438016D01*
X142492983Y-121312486D01*
X142530498Y-121172478D01*
X142530499Y-121172478D01*
X142530499Y-121027524D01*
X142530498Y-121027523D01*
X142522913Y-120999217D01*
X142507558Y-120941909D01*
X142492984Y-120887519D01*
X142492982Y-120887514D01*
X142436778Y-120790167D01*
X142420508Y-120761986D01*
X142318014Y-120659492D01*
X142248755Y-120619505D01*
X142192485Y-120587017D01*
X142192480Y-120587015D01*
X142052476Y-120549501D01*
X142052474Y-120549501D01*
X141907524Y-120549501D01*
X141907522Y-120549501D01*
X141767517Y-120587015D01*
X141767512Y-120587017D01*
X141641983Y-120659492D01*
X141623649Y-120677827D01*
X141571323Y-120699501D01*
X141427273Y-120699501D01*
X141427257Y-120699500D01*
X141422727Y-120699500D01*
X141317273Y-120699500D01*
X141317271Y-120699500D01*
X141215416Y-120726792D01*
X141215411Y-120726794D01*
X141124086Y-120779521D01*
X141049518Y-120854090D01*
X140269517Y-121634091D01*
X140216795Y-121725408D01*
X140216793Y-121725412D01*
X140210339Y-121749499D01*
X140192658Y-121815489D01*
X140189500Y-121827274D01*
X140189500Y-121896024D01*
X140189375Y-121898171D01*
X140187988Y-121901035D01*
X140183195Y-121923759D01*
X140172270Y-121948499D01*
X140169500Y-121972380D01*
X140169500Y-122427622D01*
X140172269Y-122451495D01*
X140172269Y-122451497D01*
X140172270Y-122451498D01*
X140182782Y-122475306D01*
X140213284Y-122544386D01*
X140214592Y-122601008D01*
X140183259Y-122637970D01*
X140062711Y-122709263D01*
X139949264Y-122822710D01*
X139867594Y-122960806D01*
X139822833Y-123114873D01*
X139820069Y-123150000D01*
X134200613Y-123150000D01*
X134199895Y-118101307D01*
X136646000Y-118101307D01*
X136646000Y-118298692D01*
X136676876Y-118493643D01*
X136676879Y-118493656D01*
X136737869Y-118681363D01*
X136737869Y-118681364D01*
X136827484Y-118857240D01*
X136827484Y-118857241D01*
X136853456Y-118892988D01*
X137417037Y-118329407D01*
X137434075Y-118392993D01*
X137499901Y-118507007D01*
X137592993Y-118600099D01*
X137707007Y-118665925D01*
X137770590Y-118682962D01*
X137207010Y-119246542D01*
X137242762Y-119272517D01*
X137418635Y-119362130D01*
X137606343Y-119423120D01*
X137606356Y-119423123D01*
X137801307Y-119454000D01*
X137998693Y-119454000D01*
X138193643Y-119423123D01*
X138193656Y-119423120D01*
X138381363Y-119362130D01*
X138381364Y-119362130D01*
X138557242Y-119272515D01*
X138592988Y-119246542D01*
X138592989Y-119246542D01*
X138029409Y-118682962D01*
X138092993Y-118665925D01*
X138207007Y-118600099D01*
X138300099Y-118507007D01*
X138365925Y-118392993D01*
X138382962Y-118329409D01*
X138946542Y-118892989D01*
X138946542Y-118892988D01*
X138972515Y-118857242D01*
X139062130Y-118681364D01*
X139062130Y-118681363D01*
X139123120Y-118493656D01*
X139123123Y-118493643D01*
X139154000Y-118298692D01*
X139154000Y-118101307D01*
X139123123Y-117906356D01*
X139123120Y-117906343D01*
X139062130Y-117718636D01*
X139062130Y-117718635D01*
X138972517Y-117542762D01*
X138946541Y-117507010D01*
X138382962Y-118070590D01*
X138365925Y-118007007D01*
X138300099Y-117892993D01*
X138207007Y-117799901D01*
X138092993Y-117734075D01*
X138029407Y-117717037D01*
X138592988Y-117153456D01*
X138557241Y-117127484D01*
X138381364Y-117037869D01*
X138193656Y-116976879D01*
X138193643Y-116976876D01*
X137998693Y-116946000D01*
X137801307Y-116946000D01*
X137606356Y-116976876D01*
X137606343Y-116976879D01*
X137418636Y-117037869D01*
X137418630Y-117037871D01*
X137242765Y-117127479D01*
X137207010Y-117153456D01*
X137207010Y-117153457D01*
X137770590Y-117717037D01*
X137707007Y-117734075D01*
X137592993Y-117799901D01*
X137499901Y-117892993D01*
X137434075Y-118007007D01*
X137417037Y-118070590D01*
X136853457Y-117507010D01*
X136853456Y-117507010D01*
X136827479Y-117542765D01*
X136737871Y-117718630D01*
X136737869Y-117718636D01*
X136676879Y-117906343D01*
X136676876Y-117906356D01*
X136646000Y-118101307D01*
X134199895Y-118101307D01*
X134199848Y-117772341D01*
X134199764Y-117181670D01*
X134199541Y-115610915D01*
X136995500Y-115610915D01*
X136995500Y-115789085D01*
X137001610Y-115819800D01*
X137030258Y-115963827D01*
X137030260Y-115963833D01*
X137098443Y-116128441D01*
X137182730Y-116254587D01*
X137197429Y-116276585D01*
X137323415Y-116402571D01*
X137471559Y-116501557D01*
X137636167Y-116569740D01*
X137810915Y-116604500D01*
X137810917Y-116604500D01*
X137989083Y-116604500D01*
X137989085Y-116604500D01*
X138163833Y-116569740D01*
X138328441Y-116501557D01*
X138476585Y-116402571D01*
X138602571Y-116276585D01*
X138701557Y-116128441D01*
X138769740Y-115963833D01*
X138804500Y-115789085D01*
X138804500Y-115610915D01*
X138769740Y-115436167D01*
X138730191Y-115340688D01*
X151849500Y-115340688D01*
X151849500Y-115459311D01*
X151880199Y-115573882D01*
X151880201Y-115573887D01*
X151939508Y-115676609D01*
X151939509Y-115676610D01*
X151939511Y-115676613D01*
X152023387Y-115760489D01*
X152023389Y-115760490D01*
X152023390Y-115760491D01*
X152126112Y-115819798D01*
X152126114Y-115819799D01*
X152126115Y-115819799D01*
X152126117Y-115819800D01*
X152156071Y-115827826D01*
X152240688Y-115850499D01*
X152240689Y-115850500D01*
X152272823Y-115850500D01*
X152325149Y-115872174D01*
X152346823Y-115924500D01*
X152325149Y-115976826D01*
X152309264Y-115992710D01*
X152227594Y-116130806D01*
X152187154Y-116269999D01*
X152187155Y-116270000D01*
X153812845Y-116270000D01*
X153812845Y-116269999D01*
X153772405Y-116130806D01*
X153690735Y-115992710D01*
X153577289Y-115879264D01*
X153484750Y-115824536D01*
X153450744Y-115779244D01*
X153454724Y-115730951D01*
X153467730Y-115701498D01*
X153470500Y-115677623D01*
X153470499Y-115322378D01*
X153467730Y-115298502D01*
X153424616Y-115200859D01*
X153349141Y-115125384D01*
X153251498Y-115082270D01*
X153227623Y-115079500D01*
X153227619Y-115079500D01*
X152772377Y-115079500D01*
X152748508Y-115082268D01*
X152748502Y-115082270D01*
X152705293Y-115101348D01*
X152648671Y-115102654D01*
X152623081Y-115085979D01*
X152576613Y-115039511D01*
X152576610Y-115039509D01*
X152576609Y-115039508D01*
X152473887Y-114980201D01*
X152473882Y-114980199D01*
X152359311Y-114949500D01*
X152359309Y-114949500D01*
X152240691Y-114949500D01*
X152240689Y-114949500D01*
X152126117Y-114980199D01*
X152126112Y-114980201D01*
X152023390Y-115039508D01*
X151939508Y-115123390D01*
X151880201Y-115226112D01*
X151880199Y-115226117D01*
X151849500Y-115340688D01*
X138730191Y-115340688D01*
X138701557Y-115271559D01*
X138602571Y-115123415D01*
X138476585Y-114997429D01*
X138450801Y-114980201D01*
X138328441Y-114898443D01*
X138163833Y-114830260D01*
X138163827Y-114830258D01*
X138046806Y-114806981D01*
X137989085Y-114795500D01*
X137810915Y-114795500D01*
X137761375Y-114805354D01*
X137636172Y-114830258D01*
X137636166Y-114830260D01*
X137471558Y-114898443D01*
X137323415Y-114997428D01*
X137323414Y-114997430D01*
X137197430Y-115123414D01*
X137197428Y-115123415D01*
X137098443Y-115271558D01*
X137030260Y-115436166D01*
X137030258Y-115436172D01*
X137006206Y-115557093D01*
X136995500Y-115610915D01*
X134199541Y-115610915D01*
X134199540Y-115607291D01*
X134199185Y-113110915D01*
X136995500Y-113110915D01*
X136995500Y-113289085D01*
X137002551Y-113324534D01*
X137030258Y-113463827D01*
X137030260Y-113463833D01*
X137098443Y-113628441D01*
X137188464Y-113763169D01*
X137197429Y-113776585D01*
X137323415Y-113902571D01*
X137471559Y-114001557D01*
X137636167Y-114069740D01*
X137810915Y-114104500D01*
X137810917Y-114104500D01*
X137989083Y-114104500D01*
X137989085Y-114104500D01*
X138163833Y-114069740D01*
X138271845Y-114025000D01*
X146554912Y-114025000D01*
X146564799Y-114100104D01*
X146622737Y-114239979D01*
X146714905Y-114360094D01*
X146835020Y-114452262D01*
X146974895Y-114510200D01*
X147087312Y-114525000D01*
X147250000Y-114525000D01*
X147550000Y-114525000D01*
X147712688Y-114525000D01*
X147825104Y-114510200D01*
X147964979Y-114452262D01*
X148085094Y-114360094D01*
X148177262Y-114239979D01*
X148235200Y-114100104D01*
X148245088Y-114025000D01*
X147550000Y-114025000D01*
X147550000Y-114525000D01*
X147250000Y-114525000D01*
X147250000Y-114025000D01*
X146554912Y-114025000D01*
X138271845Y-114025000D01*
X138328441Y-114001557D01*
X138476585Y-113902571D01*
X138602571Y-113776585D01*
X138701557Y-113628441D01*
X138769740Y-113463833D01*
X138804500Y-113289085D01*
X138804500Y-113110915D01*
X138769740Y-112936167D01*
X138701557Y-112771559D01*
X138602571Y-112623415D01*
X138476585Y-112497429D01*
X138461930Y-112487637D01*
X138328441Y-112398443D01*
X138163833Y-112330260D01*
X138163827Y-112330258D01*
X138046806Y-112306981D01*
X137989085Y-112295500D01*
X137810915Y-112295500D01*
X137761375Y-112305354D01*
X137636172Y-112330258D01*
X137636166Y-112330260D01*
X137471558Y-112398443D01*
X137323415Y-112497428D01*
X137323414Y-112497430D01*
X137197430Y-112623414D01*
X137197428Y-112623415D01*
X137098443Y-112771558D01*
X137030260Y-112936166D01*
X137030258Y-112936172D01*
X137004711Y-113064610D01*
X136995500Y-113110915D01*
X134199185Y-113110915D01*
X134199184Y-113107291D01*
X134199083Y-112398443D01*
X134198732Y-109931180D01*
X136995500Y-109931180D01*
X136995500Y-111468820D01*
X137004233Y-111512722D01*
X137037496Y-111562504D01*
X137087278Y-111595767D01*
X137131180Y-111604500D01*
X137131181Y-111604500D01*
X138668819Y-111604500D01*
X138668820Y-111604500D01*
X138712722Y-111595767D01*
X138762504Y-111562504D01*
X138795767Y-111512722D01*
X138804500Y-111468820D01*
X138804500Y-111024500D01*
X138826174Y-110972174D01*
X138878500Y-110950500D01*
X149024552Y-110950500D01*
X149076878Y-110972174D01*
X149098552Y-111024500D01*
X149088638Y-111061500D01*
X149033610Y-111156809D01*
X149033606Y-111156818D01*
X148999500Y-111284105D01*
X148999500Y-111284108D01*
X148999500Y-111415892D01*
X149033219Y-111541737D01*
X149033145Y-111580316D01*
X149032390Y-111583087D01*
X149029500Y-111608010D01*
X149029500Y-111991990D01*
X149032389Y-112016902D01*
X149032390Y-112016907D01*
X149032391Y-112016909D01*
X149077392Y-112118828D01*
X149156172Y-112197608D01*
X149197898Y-112216031D01*
X149200782Y-112217305D01*
X149239895Y-112258268D01*
X149238587Y-112314890D01*
X149200782Y-112352695D01*
X149156171Y-112372392D01*
X149077392Y-112451171D01*
X149032391Y-112553090D01*
X149031809Y-112558105D01*
X149029526Y-112577790D01*
X149029500Y-112578012D01*
X149029500Y-112724949D01*
X149007826Y-112777275D01*
X148955500Y-112798949D01*
X148903174Y-112777275D01*
X148137536Y-112011637D01*
X148137532Y-112011634D01*
X148045466Y-111973500D01*
X144525827Y-111973500D01*
X144426172Y-111973500D01*
X144334105Y-112011634D01*
X144334101Y-112011637D01*
X143617746Y-112727991D01*
X143565420Y-112749665D01*
X143562885Y-112749500D01*
X143559309Y-112749500D01*
X143440691Y-112749500D01*
X143440689Y-112749500D01*
X143326117Y-112780199D01*
X143326112Y-112780201D01*
X143223390Y-112839508D01*
X143139508Y-112923390D01*
X143080201Y-113026112D01*
X143080199Y-113026117D01*
X143049500Y-113140688D01*
X143049500Y-113259311D01*
X143080199Y-113373882D01*
X143080201Y-113373887D01*
X143139508Y-113476609D01*
X143139509Y-113476610D01*
X143139511Y-113476613D01*
X143223387Y-113560489D01*
X143223389Y-113560490D01*
X143223390Y-113560491D01*
X143304959Y-113607585D01*
X143326114Y-113619799D01*
X143326115Y-113619799D01*
X143326117Y-113619800D01*
X143383402Y-113635149D01*
X143440688Y-113650499D01*
X143440689Y-113650500D01*
X143440691Y-113650500D01*
X143559311Y-113650500D01*
X143559311Y-113650499D01*
X143673886Y-113619799D01*
X143776613Y-113560489D01*
X143860489Y-113476613D01*
X143919799Y-113373886D01*
X143950499Y-113259311D01*
X143950500Y-113259311D01*
X143950500Y-113135840D01*
X143953230Y-113135840D01*
X143965595Y-113089569D01*
X143971999Y-113082260D01*
X144558087Y-112496174D01*
X144610413Y-112474500D01*
X146829876Y-112474500D01*
X146882202Y-112496174D01*
X146903876Y-112548500D01*
X146902455Y-112562930D01*
X146899500Y-112577789D01*
X146899500Y-112577793D01*
X146899500Y-113221583D01*
X146877826Y-113273909D01*
X146853820Y-113289949D01*
X146835022Y-113297735D01*
X146714905Y-113389905D01*
X146622737Y-113510020D01*
X146564799Y-113649895D01*
X146554912Y-113725000D01*
X148245087Y-113725000D01*
X148235200Y-113649895D01*
X148177262Y-113510020D01*
X148085094Y-113389905D01*
X147964977Y-113297735D01*
X147946180Y-113289949D01*
X147906132Y-113249900D01*
X147900500Y-113221583D01*
X147900500Y-112918150D01*
X147900499Y-112918136D01*
X147900499Y-112661774D01*
X147922173Y-112609448D01*
X147974499Y-112587774D01*
X148026825Y-112609448D01*
X149559274Y-114141897D01*
X149629741Y-114212364D01*
X149721810Y-114250500D01*
X160782981Y-114250500D01*
X160835307Y-114272174D01*
X160836980Y-114274082D01*
X160839510Y-114276612D01*
X160839511Y-114276613D01*
X160923387Y-114360489D01*
X161026114Y-114419799D01*
X161026115Y-114419799D01*
X161026117Y-114419800D01*
X161083402Y-114435149D01*
X161140688Y-114450499D01*
X161140689Y-114450500D01*
X161140691Y-114450500D01*
X161259311Y-114450500D01*
X161259311Y-114450499D01*
X161373886Y-114419799D01*
X161439501Y-114381915D01*
X161495652Y-114374523D01*
X161540586Y-114409001D01*
X161550500Y-114446002D01*
X161550500Y-116254587D01*
X161528826Y-116306913D01*
X156776826Y-121058913D01*
X156724500Y-121080587D01*
X156672174Y-121058913D01*
X156650500Y-121006587D01*
X156650500Y-119734412D01*
X156672173Y-119682087D01*
X156982253Y-119372006D01*
X157034578Y-119350333D01*
X157037111Y-119350500D01*
X157040691Y-119350500D01*
X157159311Y-119350500D01*
X157159311Y-119350499D01*
X157273886Y-119319799D01*
X157376613Y-119260489D01*
X157460489Y-119176613D01*
X157519799Y-119073886D01*
X157550499Y-118959311D01*
X157550500Y-118959311D01*
X157550500Y-118840689D01*
X157550499Y-118840688D01*
X157546593Y-118826112D01*
X157532506Y-118773536D01*
X157519800Y-118726117D01*
X157519798Y-118726112D01*
X157460491Y-118623390D01*
X157460490Y-118623389D01*
X157460489Y-118623387D01*
X157376613Y-118539511D01*
X157376610Y-118539509D01*
X157376609Y-118539508D01*
X157273887Y-118480201D01*
X157273882Y-118480199D01*
X157159311Y-118449500D01*
X157159309Y-118449500D01*
X157045977Y-118449500D01*
X156993651Y-118427826D01*
X156971977Y-118375500D01*
X156974499Y-118356347D01*
X156995682Y-118277289D01*
X157000499Y-118259311D01*
X157000500Y-118259311D01*
X157000500Y-118140689D01*
X157000499Y-118140688D01*
X157000098Y-118139193D01*
X156969799Y-118026114D01*
X156966153Y-118019799D01*
X156910491Y-117923390D01*
X156910490Y-117923389D01*
X156910489Y-117923387D01*
X156826613Y-117839511D01*
X156826610Y-117839509D01*
X156826609Y-117839508D01*
X156723887Y-117780201D01*
X156723882Y-117780199D01*
X156609311Y-117749500D01*
X156609309Y-117749500D01*
X156490691Y-117749500D01*
X156490689Y-117749500D01*
X156376117Y-117780199D01*
X156376112Y-117780201D01*
X156273390Y-117839508D01*
X156186081Y-117926817D01*
X156184157Y-117924893D01*
X156142651Y-117948866D01*
X156132981Y-117949500D01*
X154374500Y-117949500D01*
X154322174Y-117927826D01*
X154300500Y-117875500D01*
X154300500Y-117842161D01*
X154300499Y-117842160D01*
X154299788Y-117839508D01*
X154269799Y-117727586D01*
X154266674Y-117722173D01*
X154210491Y-117624862D01*
X154210490Y-117624861D01*
X154210489Y-117624859D01*
X154126613Y-117540983D01*
X154126610Y-117540981D01*
X154126609Y-117540980D01*
X154023887Y-117481673D01*
X154023882Y-117481671D01*
X153909311Y-117450972D01*
X153909309Y-117450972D01*
X153790691Y-117450972D01*
X153790689Y-117450972D01*
X153676117Y-117481671D01*
X153676112Y-117481673D01*
X153573390Y-117540980D01*
X153489508Y-117624862D01*
X153430201Y-117727584D01*
X153430199Y-117727589D01*
X153410890Y-117799652D01*
X153376412Y-117844585D01*
X153320259Y-117851977D01*
X153287086Y-117832825D01*
X153172008Y-117717747D01*
X153150334Y-117665421D01*
X153150500Y-117662888D01*
X153150500Y-117540689D01*
X153150499Y-117540688D01*
X153119800Y-117426117D01*
X153119797Y-117426110D01*
X153105300Y-117401001D01*
X153097906Y-117344848D01*
X153132384Y-117299915D01*
X153169385Y-117290000D01*
X153249126Y-117290000D01*
X153285127Y-117287166D01*
X153439193Y-117242405D01*
X153577289Y-117160735D01*
X153690735Y-117047289D01*
X153772405Y-116909193D01*
X153812845Y-116770000D01*
X152187155Y-116770000D01*
X152227594Y-116909193D01*
X152309264Y-117047289D01*
X152410111Y-117148136D01*
X152431785Y-117200462D01*
X152410111Y-117252786D01*
X152372898Y-117290000D01*
X152339508Y-117323390D01*
X152280201Y-117426112D01*
X152280199Y-117426117D01*
X152249500Y-117540688D01*
X152249500Y-117659311D01*
X152280199Y-117773882D01*
X152280201Y-117773887D01*
X152339508Y-117876609D01*
X152339509Y-117876610D01*
X152339511Y-117876613D01*
X152423387Y-117960489D01*
X152423389Y-117960490D01*
X152423390Y-117960491D01*
X152526112Y-118019798D01*
X152526114Y-118019799D01*
X152526115Y-118019799D01*
X152526117Y-118019800D01*
X152549693Y-118026117D01*
X152640688Y-118050499D01*
X152640689Y-118050500D01*
X152764160Y-118050500D01*
X152764160Y-118053217D01*
X152810470Y-118065626D01*
X152817747Y-118072008D01*
X155264706Y-120518967D01*
X155286380Y-120571293D01*
X155286380Y-124586709D01*
X155324514Y-124678774D01*
X155324516Y-124678777D01*
X155727826Y-125082086D01*
X155749500Y-125134412D01*
X155749500Y-127465586D01*
X155727826Y-127517912D01*
X155510368Y-127735370D01*
X155458042Y-127757044D01*
X155405716Y-127735370D01*
X155384042Y-127683044D01*
X155385465Y-127668604D01*
X155386380Y-127664005D01*
X155386380Y-126916009D01*
X155386381Y-126916000D01*
X155386381Y-126807734D01*
X155353260Y-126727775D01*
X155348244Y-126715665D01*
X155348244Y-126715664D01*
X155277777Y-126645197D01*
X155277775Y-126645196D01*
X155054285Y-126421706D01*
X155032611Y-126369380D01*
X155054285Y-126317054D01*
X155106611Y-126295380D01*
X155151774Y-126295380D01*
X155151774Y-126295379D01*
X155279066Y-126261272D01*
X155393194Y-126195380D01*
X155486380Y-126102194D01*
X155552272Y-125988066D01*
X155586379Y-125860774D01*
X155586380Y-125860774D01*
X155586380Y-125728986D01*
X155586379Y-125728985D01*
X155582765Y-125715499D01*
X155552272Y-125601694D01*
X155486380Y-125487566D01*
X155393194Y-125394380D01*
X155344719Y-125366393D01*
X155279070Y-125328490D01*
X155279061Y-125328486D01*
X155151774Y-125294380D01*
X155151772Y-125294380D01*
X155041003Y-125294380D01*
X154988677Y-125272706D01*
X153087317Y-123371346D01*
X153065643Y-123319020D01*
X153067187Y-123307462D01*
X153066967Y-123307437D01*
X153067607Y-123301911D01*
X153067609Y-123301909D01*
X153070500Y-123276991D01*
X153070499Y-122893010D01*
X153067609Y-122868091D01*
X153022608Y-122766172D01*
X152943828Y-122687392D01*
X152943827Y-122687391D01*
X152899216Y-122667693D01*
X152860104Y-122626730D01*
X152861413Y-122570108D01*
X152899216Y-122532305D01*
X152943828Y-122512608D01*
X153022608Y-122433828D01*
X153067609Y-122331909D01*
X153070500Y-122306991D01*
X153070499Y-121923010D01*
X153068930Y-121909480D01*
X153067610Y-121898097D01*
X153067609Y-121898095D01*
X153067609Y-121898091D01*
X153022608Y-121796172D01*
X152943828Y-121717392D01*
X152943825Y-121717389D01*
X152938172Y-121713517D01*
X152939177Y-121712049D01*
X152905495Y-121676769D01*
X152900500Y-121650042D01*
X152900500Y-121250436D01*
X152900499Y-121250435D01*
X152880022Y-121174014D01*
X152880020Y-121174009D01*
X152862982Y-121144499D01*
X152840460Y-121105489D01*
X152784511Y-121049540D01*
X152509654Y-120774683D01*
X152487980Y-120722357D01*
X152490502Y-120703203D01*
X152491495Y-120699500D01*
X152500500Y-120665892D01*
X152500500Y-120534108D01*
X152500500Y-120534106D01*
X152500499Y-120534105D01*
X152484476Y-120474307D01*
X152466392Y-120406814D01*
X152400500Y-120292686D01*
X152307314Y-120199500D01*
X152270092Y-120178010D01*
X152193190Y-120133610D01*
X152193181Y-120133606D01*
X152065894Y-120099500D01*
X152065892Y-120099500D01*
X151934108Y-120099500D01*
X151879445Y-120114146D01*
X151831550Y-120126979D01*
X151812399Y-120129500D01*
X151732377Y-120129500D01*
X151708504Y-120132269D01*
X151610858Y-120175384D01*
X151535385Y-120250857D01*
X151515902Y-120294982D01*
X151492270Y-120348502D01*
X151490454Y-120364159D01*
X151489500Y-120372380D01*
X151489500Y-120827622D01*
X151492269Y-120851495D01*
X151492269Y-120851497D01*
X151492270Y-120851498D01*
X151535384Y-120949141D01*
X151610859Y-121024616D01*
X151708502Y-121067730D01*
X151732377Y-121070500D01*
X151812403Y-121070499D01*
X151827651Y-121072087D01*
X151829609Y-121072499D01*
X151934108Y-121100500D01*
X151962584Y-121100500D01*
X151970125Y-121102088D01*
X151987617Y-121114061D01*
X152007203Y-121122174D01*
X152277826Y-121392797D01*
X152299500Y-121445123D01*
X152299500Y-121650042D01*
X152277826Y-121702368D01*
X152261739Y-121713388D01*
X152261828Y-121713517D01*
X152256174Y-121717389D01*
X152177392Y-121796171D01*
X152132391Y-121898090D01*
X152129500Y-121923012D01*
X152129500Y-122306990D01*
X152132389Y-122331902D01*
X152132390Y-122331907D01*
X152132391Y-122331909D01*
X152177392Y-122433828D01*
X152256172Y-122512608D01*
X152285110Y-122525385D01*
X152300782Y-122532305D01*
X152319253Y-122551650D01*
X152338587Y-122570111D01*
X152338629Y-122571942D01*
X152339895Y-122573268D01*
X152339277Y-122600011D01*
X152339894Y-122626733D01*
X152338629Y-122628057D01*
X152338587Y-122629890D01*
X152300781Y-122667695D01*
X152257825Y-122686661D01*
X152201203Y-122687968D01*
X152175610Y-122671292D01*
X152116682Y-122612364D01*
X152116675Y-122612358D01*
X150701143Y-121196825D01*
X150679469Y-121144499D01*
X150701143Y-121092173D01*
X150753466Y-121070499D01*
X151067622Y-121070499D01*
X151091498Y-121067730D01*
X151189141Y-121024616D01*
X151264616Y-120949141D01*
X151307730Y-120851498D01*
X151310500Y-120827623D01*
X151310499Y-120372378D01*
X151307730Y-120348502D01*
X151264616Y-120250859D01*
X151189141Y-120175384D01*
X151091498Y-120132270D01*
X151067623Y-120129500D01*
X151067619Y-120129500D01*
X150804413Y-120129500D01*
X150752087Y-120107826D01*
X150645490Y-120001229D01*
X150531897Y-119887636D01*
X150510004Y-119878567D01*
X150474238Y-119847200D01*
X150460492Y-119823391D01*
X150460490Y-119823389D01*
X150460489Y-119823387D01*
X150376613Y-119739511D01*
X150376610Y-119739509D01*
X150376609Y-119739508D01*
X150273887Y-119680201D01*
X150273882Y-119680199D01*
X150159311Y-119649500D01*
X150159309Y-119649500D01*
X150040691Y-119649500D01*
X150040689Y-119649500D01*
X149926117Y-119680199D01*
X149926112Y-119680201D01*
X149860500Y-119718083D01*
X149804347Y-119725475D01*
X149759414Y-119690997D01*
X149749500Y-119653997D01*
X149749500Y-118573454D01*
X149771174Y-118521128D01*
X149823500Y-118499454D01*
X149877817Y-118499454D01*
X149877817Y-118499453D01*
X149992392Y-118468753D01*
X150095119Y-118409443D01*
X150178995Y-118325567D01*
X150238305Y-118222840D01*
X150269005Y-118108265D01*
X150269006Y-118108265D01*
X150269006Y-117989643D01*
X150269005Y-117989642D01*
X150238306Y-117875071D01*
X150238304Y-117875066D01*
X150178997Y-117772344D01*
X150178996Y-117772343D01*
X150178995Y-117772341D01*
X150095119Y-117688465D01*
X150095116Y-117688463D01*
X150095115Y-117688462D01*
X149992393Y-117629155D01*
X149992388Y-117629153D01*
X149877817Y-117598454D01*
X149877815Y-117598454D01*
X149759197Y-117598454D01*
X149759195Y-117598454D01*
X149644623Y-117629153D01*
X149644618Y-117629155D01*
X149541896Y-117688462D01*
X149458014Y-117772344D01*
X149398707Y-117875066D01*
X149398705Y-117875071D01*
X149368006Y-117989642D01*
X149368006Y-118113113D01*
X149365289Y-118113113D01*
X149352880Y-118159423D01*
X149346498Y-118166699D01*
X149286639Y-118226558D01*
X149286634Y-118226565D01*
X149248500Y-118318630D01*
X149248500Y-120398772D01*
X149286634Y-120490837D01*
X149286637Y-120490841D01*
X149818970Y-121023174D01*
X149840644Y-121075500D01*
X149818970Y-121127826D01*
X149766644Y-121149500D01*
X148568480Y-121149500D01*
X148474696Y-121164353D01*
X148419202Y-121192629D01*
X148362739Y-121197072D01*
X148333281Y-121179020D01*
X147973174Y-120818913D01*
X147951500Y-120766587D01*
X147951500Y-120109505D01*
X147951501Y-120109496D01*
X147951501Y-120001229D01*
X147924534Y-119936126D01*
X147913365Y-119909163D01*
X147913364Y-119909161D01*
X147913364Y-119909160D01*
X147842897Y-119838693D01*
X147842896Y-119838692D01*
X147838682Y-119834478D01*
X147838675Y-119834472D01*
X147490840Y-119486636D01*
X147490837Y-119486634D01*
X147398771Y-119448500D01*
X146060845Y-119448500D01*
X146060837Y-119448499D01*
X146052225Y-119448499D01*
X145952570Y-119448499D01*
X145939289Y-119454000D01*
X145935626Y-119455517D01*
X145888160Y-119458627D01*
X145859309Y-119450897D01*
X145740691Y-119450897D01*
X145740689Y-119450897D01*
X145626117Y-119481596D01*
X145626112Y-119481598D01*
X145523390Y-119540905D01*
X145439508Y-119624787D01*
X145380201Y-119727509D01*
X145380199Y-119727514D01*
X145349500Y-119842085D01*
X145349500Y-119960708D01*
X145380199Y-120075279D01*
X145380201Y-120075284D01*
X145439508Y-120178006D01*
X145439509Y-120178007D01*
X145439511Y-120178010D01*
X145523387Y-120261886D01*
X145523389Y-120261887D01*
X145523390Y-120261888D01*
X145587869Y-120299115D01*
X145626114Y-120321196D01*
X145626115Y-120321196D01*
X145626117Y-120321197D01*
X145683402Y-120336546D01*
X145740688Y-120351896D01*
X145740689Y-120351897D01*
X145740691Y-120351897D01*
X145859311Y-120351897D01*
X145859311Y-120351896D01*
X145973886Y-120321196D01*
X146076613Y-120261886D01*
X146160489Y-120178010D01*
X146219799Y-120075283D01*
X146231997Y-120029760D01*
X146238807Y-120004347D01*
X146273285Y-119959414D01*
X146310285Y-119949500D01*
X146653997Y-119949500D01*
X146706323Y-119971174D01*
X146727997Y-120023500D01*
X146718083Y-120060500D01*
X146680201Y-120126112D01*
X146680199Y-120126117D01*
X146649500Y-120240688D01*
X146649500Y-120364159D01*
X146649144Y-120364159D01*
X146649666Y-120365419D01*
X146640544Y-120387440D01*
X146634374Y-120410469D01*
X146627992Y-120417746D01*
X146558103Y-120487636D01*
X146487634Y-120558105D01*
X146449500Y-120650170D01*
X146449500Y-122433611D01*
X146427826Y-122485937D01*
X146405392Y-122501304D01*
X146379794Y-122512608D01*
X146350857Y-122525385D01*
X146275385Y-122600857D01*
X146234121Y-122694311D01*
X146232270Y-122698502D01*
X146231022Y-122709263D01*
X146229500Y-122722380D01*
X146229500Y-123077622D01*
X146232269Y-123101495D01*
X146232269Y-123101497D01*
X146232270Y-123101498D01*
X146275384Y-123199141D01*
X146350859Y-123274616D01*
X146448502Y-123317730D01*
X146472377Y-123320500D01*
X146927622Y-123320499D01*
X146951498Y-123317730D01*
X147049141Y-123274616D01*
X147124616Y-123199141D01*
X147167730Y-123101498D01*
X147170500Y-123077623D01*
X147170499Y-122722378D01*
X147167730Y-122698502D01*
X147124616Y-122600859D01*
X147049141Y-122525384D01*
X146994608Y-122501305D01*
X146955497Y-122460342D01*
X146950500Y-122433611D01*
X146950500Y-121570846D01*
X146972174Y-121518520D01*
X147024500Y-121496846D01*
X147061500Y-121506760D01*
X147126112Y-121544064D01*
X147126114Y-121544065D01*
X147126115Y-121544065D01*
X147126117Y-121544066D01*
X147183402Y-121559415D01*
X147240688Y-121574765D01*
X147240689Y-121574766D01*
X147240691Y-121574766D01*
X147359311Y-121574766D01*
X147359311Y-121574765D01*
X147473886Y-121544065D01*
X147576613Y-121484755D01*
X147660489Y-121400879D01*
X147680397Y-121366396D01*
X147725329Y-121331918D01*
X147781481Y-121339309D01*
X147796809Y-121351070D01*
X148177826Y-121732086D01*
X148199500Y-121784412D01*
X148199500Y-122381519D01*
X148214353Y-122475304D01*
X148214354Y-122475306D01*
X148262659Y-122570108D01*
X148271950Y-122588342D01*
X148361658Y-122678050D01*
X148474696Y-122735646D01*
X148568481Y-122750500D01*
X149831518Y-122750499D01*
X149831519Y-122750499D01*
X149925304Y-122735646D01*
X149925306Y-122735645D01*
X149930269Y-122733116D01*
X150038342Y-122678050D01*
X150128050Y-122588342D01*
X150185646Y-122475304D01*
X150200500Y-122381519D01*
X150200499Y-121583353D01*
X150222173Y-121531028D01*
X150274499Y-121509354D01*
X150326823Y-121531027D01*
X150960413Y-122164616D01*
X151706826Y-122911029D01*
X151728500Y-122963355D01*
X151728500Y-123750510D01*
X151766634Y-123842575D01*
X151766636Y-123842578D01*
X153325355Y-125401297D01*
X154863706Y-126939647D01*
X154885380Y-126991973D01*
X154885380Y-127069627D01*
X154863706Y-127121953D01*
X154811380Y-127143627D01*
X154759055Y-127121953D01*
X154676613Y-127039511D01*
X154676610Y-127039509D01*
X154676609Y-127039508D01*
X154573887Y-126980201D01*
X154573882Y-126980199D01*
X154459311Y-126949500D01*
X154459309Y-126949500D01*
X154340691Y-126949500D01*
X154340689Y-126949500D01*
X154226117Y-126980199D01*
X154226112Y-126980201D01*
X154123390Y-127039508D01*
X154036081Y-127126817D01*
X154034157Y-127124893D01*
X153992651Y-127148866D01*
X153982981Y-127149500D01*
X152676389Y-127149500D01*
X152624063Y-127127826D01*
X152608694Y-127105391D01*
X152584616Y-127050859D01*
X152509141Y-126975384D01*
X152411498Y-126932270D01*
X152387623Y-126929500D01*
X152387619Y-126929500D01*
X152032377Y-126929500D01*
X152008504Y-126932269D01*
X151910858Y-126975384D01*
X151835385Y-127050857D01*
X151792270Y-127148501D01*
X151789500Y-127172380D01*
X151789500Y-127627622D01*
X151792269Y-127651495D01*
X151792269Y-127651497D01*
X151792270Y-127651498D01*
X151835384Y-127749141D01*
X151910859Y-127824616D01*
X152008502Y-127867730D01*
X152032377Y-127870500D01*
X152387622Y-127870499D01*
X152411498Y-127867730D01*
X152509141Y-127824616D01*
X152584616Y-127749141D01*
X152608694Y-127694608D01*
X152649658Y-127655497D01*
X152676389Y-127650500D01*
X153982981Y-127650500D01*
X154035307Y-127672174D01*
X154036980Y-127674082D01*
X154039510Y-127676612D01*
X154039511Y-127676613D01*
X154123387Y-127760489D01*
X154226114Y-127819799D01*
X154226115Y-127819799D01*
X154226117Y-127819800D01*
X154244087Y-127824615D01*
X154340688Y-127850499D01*
X154340689Y-127850500D01*
X154366643Y-127850500D01*
X154418969Y-127872174D01*
X154440643Y-127924500D01*
X154418969Y-127976826D01*
X153057103Y-129338693D01*
X152986634Y-129409162D01*
X152948500Y-129501227D01*
X152948500Y-130098772D01*
X152986634Y-130190837D01*
X152986636Y-130190840D01*
X153334472Y-130538675D01*
X153334475Y-130538679D01*
X153338692Y-130542896D01*
X153338693Y-130542897D01*
X153409160Y-130613364D01*
X153436126Y-130624534D01*
X153501229Y-130651501D01*
X153501230Y-130651501D01*
X153609497Y-130651501D01*
X153609505Y-130651500D01*
X155638827Y-130651500D01*
X155638828Y-130651500D01*
X155730897Y-130613364D01*
X156069174Y-130275087D01*
X156121500Y-130253413D01*
X156173826Y-130275087D01*
X156195500Y-130327413D01*
X156195500Y-131768820D01*
X156204233Y-131812722D01*
X156237496Y-131862504D01*
X156287278Y-131895767D01*
X156331180Y-131904500D01*
X156331181Y-131904500D01*
X157868819Y-131904500D01*
X157868820Y-131904500D01*
X157912722Y-131895767D01*
X157962504Y-131862504D01*
X157995767Y-131812722D01*
X158004500Y-131768820D01*
X158004500Y-130269500D01*
X158026174Y-130217174D01*
X158078500Y-130195500D01*
X158410587Y-130195500D01*
X158462913Y-130217174D01*
X158769002Y-130523263D01*
X158790676Y-130575589D01*
X158785043Y-130603907D01*
X158730261Y-130736162D01*
X158730258Y-130736172D01*
X158695500Y-130910916D01*
X158695500Y-131089083D01*
X158730258Y-131263827D01*
X158730260Y-131263833D01*
X158798443Y-131428441D01*
X158897429Y-131576585D01*
X159023415Y-131702571D01*
X159171559Y-131801557D01*
X159336167Y-131869740D01*
X159510915Y-131904500D01*
X159510917Y-131904500D01*
X159689083Y-131904500D01*
X159689085Y-131904500D01*
X159863833Y-131869740D01*
X160028441Y-131801557D01*
X160176585Y-131702571D01*
X160302571Y-131576585D01*
X160401557Y-131428441D01*
X160469740Y-131263833D01*
X160504500Y-131089085D01*
X160504500Y-130910916D01*
X161195500Y-130910916D01*
X161195500Y-131089083D01*
X161230258Y-131263827D01*
X161230260Y-131263833D01*
X161298443Y-131428441D01*
X161397429Y-131576585D01*
X161523415Y-131702571D01*
X161671559Y-131801557D01*
X161836167Y-131869740D01*
X162010915Y-131904500D01*
X162010917Y-131904500D01*
X162189083Y-131904500D01*
X162189085Y-131904500D01*
X162363833Y-131869740D01*
X162528441Y-131801557D01*
X162676585Y-131702571D01*
X162802571Y-131576585D01*
X162901557Y-131428441D01*
X162969740Y-131263833D01*
X163004500Y-131089085D01*
X163004500Y-130910916D01*
X163695500Y-130910916D01*
X163695500Y-131089083D01*
X163730258Y-131263827D01*
X163730260Y-131263833D01*
X163798443Y-131428441D01*
X163897429Y-131576585D01*
X164023415Y-131702571D01*
X164171559Y-131801557D01*
X164336167Y-131869740D01*
X164510915Y-131904500D01*
X164510917Y-131904500D01*
X164689083Y-131904500D01*
X164689085Y-131904500D01*
X164863833Y-131869740D01*
X165028441Y-131801557D01*
X165176585Y-131702571D01*
X165302571Y-131576585D01*
X165401557Y-131428441D01*
X165469740Y-131263833D01*
X165504500Y-131089085D01*
X165504500Y-130910915D01*
X165469740Y-130736167D01*
X165401557Y-130571559D01*
X165302571Y-130423415D01*
X165176585Y-130297429D01*
X165028441Y-130198443D01*
X164863833Y-130130260D01*
X164863827Y-130130258D01*
X164746806Y-130106981D01*
X164689085Y-130095500D01*
X164510915Y-130095500D01*
X164461375Y-130105354D01*
X164336172Y-130130258D01*
X164336166Y-130130260D01*
X164171558Y-130198443D01*
X164023415Y-130297428D01*
X164023414Y-130297430D01*
X163897430Y-130423414D01*
X163897428Y-130423415D01*
X163798443Y-130571558D01*
X163730260Y-130736166D01*
X163730258Y-130736172D01*
X163695500Y-130910916D01*
X163004500Y-130910916D01*
X163004500Y-130910915D01*
X162969740Y-130736167D01*
X162901557Y-130571559D01*
X162802571Y-130423415D01*
X162676585Y-130297429D01*
X162528441Y-130198443D01*
X162363833Y-130130260D01*
X162363827Y-130130258D01*
X162246806Y-130106981D01*
X162189085Y-130095500D01*
X162010915Y-130095500D01*
X161961375Y-130105354D01*
X161836172Y-130130258D01*
X161836166Y-130130260D01*
X161671558Y-130198443D01*
X161523415Y-130297428D01*
X161523414Y-130297430D01*
X161397430Y-130423414D01*
X161397428Y-130423415D01*
X161298443Y-130571558D01*
X161230260Y-130736166D01*
X161230258Y-130736172D01*
X161195500Y-130910916D01*
X160504500Y-130910916D01*
X160504500Y-130910915D01*
X160469740Y-130736167D01*
X160401557Y-130571559D01*
X160302571Y-130423415D01*
X160176585Y-130297429D01*
X160028441Y-130198443D01*
X159863833Y-130130260D01*
X159863827Y-130130258D01*
X159746806Y-130106981D01*
X159689085Y-130095500D01*
X159510915Y-130095500D01*
X159461375Y-130105354D01*
X159336172Y-130130258D01*
X159336162Y-130130261D01*
X159203907Y-130185043D01*
X159147270Y-130185043D01*
X159123263Y-130169002D01*
X158686898Y-129732637D01*
X158686894Y-129732634D01*
X158594828Y-129694500D01*
X156094827Y-129694500D01*
X155995172Y-129694500D01*
X155903105Y-129732634D01*
X155506913Y-130128826D01*
X155454587Y-130150500D01*
X154246003Y-130150500D01*
X154193677Y-130128826D01*
X154172003Y-130076500D01*
X154181917Y-130039500D01*
X154219798Y-129973887D01*
X154219799Y-129973886D01*
X154250499Y-129859311D01*
X154250500Y-129859311D01*
X154250500Y-129735840D01*
X154253230Y-129735840D01*
X154265595Y-129689569D01*
X154272000Y-129682259D01*
X156131488Y-127822770D01*
X156131491Y-127822769D01*
X156141896Y-127812364D01*
X156141897Y-127812364D01*
X156212364Y-127741897D01*
X156250500Y-127649828D01*
X156250500Y-125058448D01*
X156250501Y-125058439D01*
X156250501Y-124950173D01*
X156217380Y-124870214D01*
X156212364Y-124858104D01*
X156212364Y-124858103D01*
X156141897Y-124787636D01*
X156141895Y-124787635D01*
X155809054Y-124454793D01*
X155787380Y-124402467D01*
X155787380Y-123559577D01*
X155809054Y-123507251D01*
X155861380Y-123485577D01*
X155899050Y-123495882D01*
X155960808Y-123532406D01*
X156114874Y-123577166D01*
X156114871Y-123577166D01*
X156150000Y-123579930D01*
X156150000Y-123579929D01*
X156650000Y-123579929D01*
X156685126Y-123577166D01*
X156839193Y-123532405D01*
X156977289Y-123450735D01*
X157090735Y-123337289D01*
X157172405Y-123199193D01*
X157212845Y-123060000D01*
X156650000Y-123060000D01*
X156650000Y-123579929D01*
X156150000Y-123579929D01*
X156150000Y-122884000D01*
X156171674Y-122831674D01*
X156224000Y-122810000D01*
X156400000Y-122810000D01*
X156400000Y-122634000D01*
X156421674Y-122581674D01*
X156474000Y-122560000D01*
X157212845Y-122560000D01*
X157212845Y-122559999D01*
X157172405Y-122420806D01*
X157090735Y-122282710D01*
X156977289Y-122169264D01*
X156884750Y-122114536D01*
X156850744Y-122069244D01*
X156854724Y-122020951D01*
X156867730Y-121991498D01*
X156870500Y-121967623D01*
X156870499Y-121704411D01*
X156892172Y-121652087D01*
X159744235Y-118800024D01*
X159796559Y-118778352D01*
X159848885Y-118800026D01*
X159870559Y-118852352D01*
X159868038Y-118871504D01*
X159849500Y-118940691D01*
X159849500Y-119064159D01*
X159846783Y-119064159D01*
X159834374Y-119110469D01*
X159827992Y-119117746D01*
X159707103Y-119238636D01*
X159636634Y-119309105D01*
X159598500Y-119401170D01*
X159598500Y-128498829D01*
X159636634Y-128590894D01*
X159636636Y-128590897D01*
X160527992Y-129482252D01*
X160549666Y-129534578D01*
X160549500Y-129537114D01*
X160549500Y-129659311D01*
X160580199Y-129773882D01*
X160580201Y-129773887D01*
X160639508Y-129876609D01*
X160639509Y-129876610D01*
X160639511Y-129876613D01*
X160723387Y-129960489D01*
X160723389Y-129960490D01*
X160723390Y-129960491D01*
X160826112Y-130019798D01*
X160826114Y-130019799D01*
X160826115Y-130019799D01*
X160826117Y-130019800D01*
X160883402Y-130035149D01*
X160940688Y-130050499D01*
X160940689Y-130050500D01*
X160940691Y-130050500D01*
X161059311Y-130050500D01*
X161059311Y-130050499D01*
X161173886Y-130019799D01*
X161276613Y-129960489D01*
X161360489Y-129876613D01*
X161419799Y-129773886D01*
X161450499Y-129659311D01*
X161450500Y-129659311D01*
X161450500Y-129540689D01*
X161450499Y-129540688D01*
X161449541Y-129537114D01*
X161419799Y-129426114D01*
X161380071Y-129357304D01*
X161360491Y-129323390D01*
X161360490Y-129323389D01*
X161360489Y-129323387D01*
X161276613Y-129239511D01*
X161276610Y-129239509D01*
X161276609Y-129239508D01*
X161173887Y-129180201D01*
X161173882Y-129180199D01*
X161059311Y-129149500D01*
X161059309Y-129149500D01*
X160940691Y-129149500D01*
X160935841Y-129149500D01*
X160935841Y-129146787D01*
X160889517Y-129134364D01*
X160882252Y-129127992D01*
X160121174Y-128366913D01*
X160099500Y-128314587D01*
X160099500Y-126934105D01*
X161299500Y-126934105D01*
X161299500Y-127065894D01*
X161333606Y-127193181D01*
X161333607Y-127193184D01*
X161333608Y-127193186D01*
X161399500Y-127307314D01*
X161492686Y-127400500D01*
X161606814Y-127466392D01*
X161734105Y-127500499D01*
X161734106Y-127500500D01*
X161734108Y-127500500D01*
X161865894Y-127500500D01*
X161865894Y-127500499D01*
X161993186Y-127466392D01*
X162107314Y-127400500D01*
X162200500Y-127307314D01*
X162266392Y-127193186D01*
X162300499Y-127065894D01*
X162300500Y-127065894D01*
X162300500Y-126955122D01*
X162322174Y-126902796D01*
X163324997Y-125899973D01*
X164355460Y-124869511D01*
X164384057Y-124819979D01*
X164395021Y-124800989D01*
X164415499Y-124724564D01*
X164415500Y-124724564D01*
X164415500Y-121171588D01*
X164437174Y-121119262D01*
X164464263Y-121092173D01*
X164512608Y-121043828D01*
X164532305Y-120999216D01*
X164573268Y-120960104D01*
X164629890Y-120961412D01*
X164667694Y-120999216D01*
X164687392Y-121043828D01*
X164766172Y-121122608D01*
X164868091Y-121167609D01*
X164893009Y-121170500D01*
X165276990Y-121170499D01*
X165301902Y-121167610D01*
X165301902Y-121167609D01*
X165301909Y-121167609D01*
X165403828Y-121122608D01*
X165482608Y-121043828D01*
X165527609Y-120941909D01*
X165530500Y-120916991D01*
X165530499Y-120710121D01*
X165552172Y-120657797D01*
X166632960Y-119577011D01*
X167735674Y-118474295D01*
X167788000Y-118452622D01*
X167840326Y-118474296D01*
X167862000Y-118526622D01*
X167862000Y-118652603D01*
X167894404Y-118773535D01*
X167942731Y-118857240D01*
X167957005Y-118881964D01*
X168045536Y-118970495D01*
X168153964Y-119033095D01*
X168153963Y-119033095D01*
X168223786Y-119051804D01*
X168274896Y-119065499D01*
X168274897Y-119065500D01*
X168274899Y-119065500D01*
X168400103Y-119065500D01*
X168400103Y-119065499D01*
X168521036Y-119033095D01*
X168629464Y-118970495D01*
X168717995Y-118881964D01*
X168780595Y-118773536D01*
X168812999Y-118652603D01*
X168813000Y-118652603D01*
X168813000Y-118527397D01*
X168812999Y-118527396D01*
X168811319Y-118521128D01*
X168780595Y-118406464D01*
X168717995Y-118298036D01*
X168629464Y-118209505D01*
X168629463Y-118209504D01*
X168542718Y-118159423D01*
X168521036Y-118146905D01*
X168521035Y-118146904D01*
X168521036Y-118146904D01*
X168400103Y-118114500D01*
X168400101Y-118114500D01*
X168274899Y-118114500D01*
X168274122Y-118114500D01*
X168221796Y-118092826D01*
X168200122Y-118040500D01*
X168221796Y-117988174D01*
X168334904Y-117875066D01*
X168488255Y-117721714D01*
X168532058Y-117700533D01*
X168532351Y-117700499D01*
X168532364Y-117700499D01*
X168557491Y-117697585D01*
X168660265Y-117652206D01*
X168739706Y-117572765D01*
X168744805Y-117561215D01*
X168785768Y-117522103D01*
X168842390Y-117523411D01*
X168880194Y-117561215D01*
X168885294Y-117572765D01*
X168964735Y-117652206D01*
X169067509Y-117697585D01*
X169092635Y-117700500D01*
X169482364Y-117700499D01*
X169507491Y-117697585D01*
X169610265Y-117652206D01*
X169689706Y-117572765D01*
X169735085Y-117469991D01*
X169738000Y-117444865D01*
X169737999Y-116330136D01*
X169735085Y-116305009D01*
X169689706Y-116202235D01*
X169610265Y-116122794D01*
X169507491Y-116077415D01*
X169502400Y-116075167D01*
X169502722Y-116074435D01*
X169475288Y-116058526D01*
X169475285Y-116058525D01*
X169425182Y-116008422D01*
X169425175Y-116008416D01*
X169266259Y-115849500D01*
X169104396Y-115687636D01*
X169104394Y-115687635D01*
X169022659Y-115653779D01*
X168982611Y-115613730D01*
X168982611Y-115557093D01*
X168989043Y-115544914D01*
X169045220Y-115459001D01*
X169067336Y-115443902D01*
X169088751Y-115427824D01*
X169091375Y-115427492D01*
X169091997Y-115427068D01*
X169093095Y-115427275D01*
X169107147Y-115425499D01*
X169482364Y-115425499D01*
X169507491Y-115422585D01*
X169610265Y-115377206D01*
X169689706Y-115297765D01*
X169735085Y-115194991D01*
X169738000Y-115169865D01*
X169737999Y-114055136D01*
X169735085Y-114030009D01*
X169689706Y-113927235D01*
X169610265Y-113847794D01*
X169507491Y-113802415D01*
X169502400Y-113800167D01*
X169502722Y-113799436D01*
X169475285Y-113783525D01*
X168862402Y-113170642D01*
X168862401Y-113170641D01*
X168855079Y-113167608D01*
X168791822Y-113141406D01*
X168751774Y-113101357D01*
X168751774Y-113044720D01*
X168756047Y-113036053D01*
X168780595Y-112993536D01*
X168812999Y-112872603D01*
X168813000Y-112872603D01*
X168813000Y-112747397D01*
X168812999Y-112747396D01*
X168807799Y-112727991D01*
X168780595Y-112626464D01*
X168717995Y-112518036D01*
X168629464Y-112429505D01*
X168629463Y-112429504D01*
X168521034Y-112366904D01*
X168521036Y-112366904D01*
X168400103Y-112334500D01*
X168400101Y-112334500D01*
X168274899Y-112334500D01*
X168274897Y-112334500D01*
X168153964Y-112366904D01*
X168045536Y-112429504D01*
X167957004Y-112518036D01*
X167894404Y-112626464D01*
X167862000Y-112747396D01*
X167862000Y-112791169D01*
X167840326Y-112843495D01*
X167788000Y-112865169D01*
X167759682Y-112859536D01*
X167711328Y-112839508D01*
X167611672Y-112839508D01*
X167598733Y-112844867D01*
X167570416Y-112850500D01*
X167185469Y-112850500D01*
X167133143Y-112828826D01*
X167049564Y-112745247D01*
X166956378Y-112652060D01*
X166940337Y-112628052D01*
X166939679Y-112626464D01*
X166919520Y-112577793D01*
X166911365Y-112558105D01*
X166911363Y-112558102D01*
X166840898Y-112487637D01*
X166840894Y-112487634D01*
X166748828Y-112449500D01*
X164409643Y-112449500D01*
X164357317Y-112427826D01*
X164338165Y-112394653D01*
X164319800Y-112326117D01*
X164319798Y-112326112D01*
X164260491Y-112223390D01*
X164260490Y-112223389D01*
X164260489Y-112223387D01*
X164176613Y-112139511D01*
X164176610Y-112139509D01*
X164176609Y-112139508D01*
X164073887Y-112080201D01*
X164073882Y-112080199D01*
X163959311Y-112049500D01*
X163959309Y-112049500D01*
X163840691Y-112049500D01*
X163840689Y-112049500D01*
X163726117Y-112080199D01*
X163726112Y-112080201D01*
X163623390Y-112139508D01*
X163539508Y-112223390D01*
X163480201Y-112326112D01*
X163480199Y-112326117D01*
X163449500Y-112440688D01*
X163449500Y-112559311D01*
X163480199Y-112673882D01*
X163480201Y-112673887D01*
X163539508Y-112776609D01*
X163539509Y-112776610D01*
X163539511Y-112776613D01*
X163623387Y-112860489D01*
X163623389Y-112860490D01*
X163623390Y-112860491D01*
X163723258Y-112918150D01*
X163726114Y-112919799D01*
X163726115Y-112919799D01*
X163726117Y-112919800D01*
X163762229Y-112929476D01*
X163840688Y-112950499D01*
X163840689Y-112950500D01*
X163840691Y-112950500D01*
X163959309Y-112950500D01*
X163990217Y-112942217D01*
X164014718Y-112939890D01*
X164026643Y-112940754D01*
X164050173Y-112950501D01*
X164149828Y-112950501D01*
X164149830Y-112950500D01*
X165470668Y-112950500D01*
X165522994Y-112972174D01*
X165544668Y-113024500D01*
X165522994Y-113076826D01*
X165508337Y-113088195D01*
X165472710Y-113109264D01*
X165359264Y-113222710D01*
X165304537Y-113315249D01*
X165259245Y-113349255D01*
X165210952Y-113345275D01*
X165181500Y-113332270D01*
X165173539Y-113331346D01*
X165157623Y-113329500D01*
X165157619Y-113329500D01*
X164802377Y-113329500D01*
X164778504Y-113332269D01*
X164680858Y-113375384D01*
X164605385Y-113450857D01*
X164579262Y-113510020D01*
X164562270Y-113548502D01*
X164559529Y-113572132D01*
X164559500Y-113572380D01*
X164559500Y-114027622D01*
X164562269Y-114051495D01*
X164562269Y-114051497D01*
X164562270Y-114051498D01*
X164605384Y-114149141D01*
X164680859Y-114224616D01*
X164778502Y-114267730D01*
X164791286Y-114269213D01*
X164840765Y-114296770D01*
X164846845Y-114305719D01*
X164876230Y-114356615D01*
X164876231Y-114356616D01*
X164876233Y-114356619D01*
X164960109Y-114440495D01*
X164960111Y-114440496D01*
X164960112Y-114440497D01*
X165062834Y-114499804D01*
X165062836Y-114499805D01*
X165078040Y-114503879D01*
X165122974Y-114538355D01*
X165130368Y-114594507D01*
X165111217Y-114627681D01*
X165101773Y-114637124D01*
X165042466Y-114739847D01*
X165042465Y-114739851D01*
X165023154Y-114811917D01*
X164988675Y-114856849D01*
X164932522Y-114864241D01*
X164899350Y-114845089D01*
X164172008Y-114117747D01*
X164150334Y-114065421D01*
X164150500Y-114062888D01*
X164150500Y-113940689D01*
X164150499Y-113940688D01*
X164119800Y-113826117D01*
X164119798Y-113826112D01*
X164060491Y-113723390D01*
X164060490Y-113723389D01*
X164060489Y-113723387D01*
X163976613Y-113639511D01*
X163976610Y-113639509D01*
X163976609Y-113639508D01*
X163873887Y-113580201D01*
X163873882Y-113580199D01*
X163759311Y-113549500D01*
X163759309Y-113549500D01*
X163640691Y-113549500D01*
X163640689Y-113549500D01*
X163526117Y-113580199D01*
X163526112Y-113580201D01*
X163423390Y-113639508D01*
X163339508Y-113723390D01*
X163280201Y-113826112D01*
X163280199Y-113826117D01*
X163249500Y-113940688D01*
X163249500Y-114059311D01*
X163280199Y-114173882D01*
X163280201Y-114173887D01*
X163339508Y-114276609D01*
X163339509Y-114276610D01*
X163339511Y-114276613D01*
X163423387Y-114360489D01*
X163526114Y-114419799D01*
X163526115Y-114419799D01*
X163526117Y-114419800D01*
X163583402Y-114435149D01*
X163640688Y-114450499D01*
X163640689Y-114450500D01*
X163764160Y-114450500D01*
X163764160Y-114453217D01*
X163810470Y-114465626D01*
X163817747Y-114472008D01*
X164571856Y-115226117D01*
X165068914Y-115723174D01*
X165090588Y-115775500D01*
X165068914Y-115827826D01*
X165016588Y-115849500D01*
X164940689Y-115849500D01*
X164826117Y-115880199D01*
X164826112Y-115880201D01*
X164723390Y-115939508D01*
X164639508Y-116023390D01*
X164580201Y-116126112D01*
X164580199Y-116126117D01*
X164549500Y-116240688D01*
X164549500Y-116359311D01*
X164580199Y-116473882D01*
X164580201Y-116473887D01*
X164639508Y-116576609D01*
X164639509Y-116576610D01*
X164639511Y-116576613D01*
X164723387Y-116660489D01*
X164826114Y-116719799D01*
X164924980Y-116746290D01*
X164969912Y-116780768D01*
X164977305Y-116836920D01*
X164949500Y-116940691D01*
X164949500Y-117059311D01*
X164970142Y-117136347D01*
X164962750Y-117192500D01*
X164917817Y-117226978D01*
X164898665Y-117229500D01*
X164802377Y-117229500D01*
X164778504Y-117232269D01*
X164680858Y-117275384D01*
X164605385Y-117350857D01*
X164563876Y-117444865D01*
X164562270Y-117448502D01*
X164559778Y-117469986D01*
X164559500Y-117472380D01*
X164559500Y-117927622D01*
X164562269Y-117951495D01*
X164562269Y-117951497D01*
X164562270Y-117951498D01*
X164605384Y-118049141D01*
X164680859Y-118124616D01*
X164778502Y-118167730D01*
X164802377Y-118170500D01*
X165157622Y-118170499D01*
X165181498Y-118167730D01*
X165210951Y-118154724D01*
X165267571Y-118153415D01*
X165304536Y-118184750D01*
X165359264Y-118277289D01*
X165472710Y-118390735D01*
X165610806Y-118472405D01*
X165749999Y-118512845D01*
X165750000Y-118512845D01*
X166250000Y-118512845D01*
X166389193Y-118472405D01*
X166527289Y-118390735D01*
X166640735Y-118277289D01*
X166722405Y-118139193D01*
X166767166Y-117985126D01*
X166769931Y-117950000D01*
X166250000Y-117950000D01*
X166250000Y-118512845D01*
X165750000Y-118512845D01*
X165750000Y-117450000D01*
X166250000Y-117450000D01*
X166769930Y-117450000D01*
X166767166Y-117414873D01*
X166722405Y-117260806D01*
X166640735Y-117122710D01*
X166527289Y-117009264D01*
X166389194Y-116927594D01*
X166250000Y-116887154D01*
X166250000Y-117450000D01*
X165750000Y-117450000D01*
X165750000Y-117314609D01*
X165759914Y-117277609D01*
X165809052Y-117192500D01*
X165819799Y-117173886D01*
X165850499Y-117059311D01*
X165850500Y-117059311D01*
X165850500Y-116940689D01*
X165850499Y-116940688D01*
X165846990Y-116927594D01*
X165819799Y-116826114D01*
X165817374Y-116821913D01*
X165760491Y-116723390D01*
X165760490Y-116723389D01*
X165760489Y-116723387D01*
X165713926Y-116676824D01*
X165692253Y-116624500D01*
X165713927Y-116572174D01*
X165766253Y-116550500D01*
X166665587Y-116550500D01*
X166717913Y-116572174D01*
X166915326Y-116769587D01*
X166937000Y-116821913D01*
X166937000Y-117444863D01*
X166939914Y-117469986D01*
X166939915Y-117469992D01*
X166971261Y-117540983D01*
X166985294Y-117572765D01*
X167064735Y-117652206D01*
X167167509Y-117697585D01*
X167192635Y-117700500D01*
X167480876Y-117700499D01*
X167533202Y-117722173D01*
X167554876Y-117774499D01*
X167533202Y-117826825D01*
X166207989Y-119152040D01*
X166182203Y-119177826D01*
X166129877Y-119199500D01*
X166037966Y-119199500D01*
X165985640Y-119177826D01*
X165907314Y-119099500D01*
X165793190Y-119033610D01*
X165793181Y-119033606D01*
X165665894Y-118999500D01*
X165665892Y-118999500D01*
X165534108Y-118999500D01*
X165534106Y-118999500D01*
X165406818Y-119033606D01*
X165406809Y-119033610D01*
X165292685Y-119099500D01*
X165199500Y-119192685D01*
X165133610Y-119306809D01*
X165133606Y-119306818D01*
X165099500Y-119434105D01*
X165099500Y-119565894D01*
X165133606Y-119693181D01*
X165133610Y-119693190D01*
X165153427Y-119727514D01*
X165199500Y-119807314D01*
X165292686Y-119900500D01*
X165314941Y-119913349D01*
X165349419Y-119958280D01*
X165342028Y-120014433D01*
X165330267Y-120029760D01*
X165152201Y-120207826D01*
X165099875Y-120229500D01*
X164893009Y-120229500D01*
X164868097Y-120232389D01*
X164868091Y-120232391D01*
X164766171Y-120277392D01*
X164687391Y-120356172D01*
X164667693Y-120400783D01*
X164626730Y-120439895D01*
X164570108Y-120438586D01*
X164532304Y-120400781D01*
X164512608Y-120356172D01*
X164433828Y-120277392D01*
X164331909Y-120232391D01*
X164331910Y-120232391D01*
X164326925Y-120231812D01*
X164306991Y-120229500D01*
X164306987Y-120229500D01*
X163923009Y-120229500D01*
X163898097Y-120232389D01*
X163898091Y-120232391D01*
X163796171Y-120277392D01*
X163717392Y-120356171D01*
X163672391Y-120458090D01*
X163669500Y-120483012D01*
X163669500Y-120916990D01*
X163672389Y-120941902D01*
X163672390Y-120941907D01*
X163672391Y-120941909D01*
X163708908Y-121024614D01*
X163717392Y-121043828D01*
X163792826Y-121119262D01*
X163814500Y-121171588D01*
X163814500Y-124529876D01*
X163792826Y-124582202D01*
X161897202Y-126477826D01*
X161844876Y-126499500D01*
X161734106Y-126499500D01*
X161606818Y-126533606D01*
X161606809Y-126533610D01*
X161492685Y-126599500D01*
X161399500Y-126692685D01*
X161333610Y-126806809D01*
X161333606Y-126806818D01*
X161299500Y-126934105D01*
X160099500Y-126934105D01*
X160099500Y-126707820D01*
X160121174Y-126655494D01*
X160173500Y-126633820D01*
X160183163Y-126634454D01*
X160187308Y-126635000D01*
X160350000Y-126635000D01*
X160650000Y-126635000D01*
X160812688Y-126635000D01*
X160925104Y-126620200D01*
X161064979Y-126562262D01*
X161185094Y-126470094D01*
X161277262Y-126349979D01*
X161335200Y-126210104D01*
X161345088Y-126135000D01*
X160650000Y-126135000D01*
X160650000Y-126635000D01*
X160350000Y-126635000D01*
X160350000Y-126135000D01*
X160173500Y-126135000D01*
X160121174Y-126113326D01*
X160099500Y-126061000D01*
X160099500Y-125909000D01*
X160121174Y-125856674D01*
X160173500Y-125835000D01*
X161345087Y-125835000D01*
X161335200Y-125759895D01*
X161277262Y-125620020D01*
X161200167Y-125519549D01*
X161185508Y-125464842D01*
X161213826Y-125415792D01*
X161248042Y-125401297D01*
X161253428Y-125400500D01*
X161279562Y-125400500D01*
X161311799Y-125391861D01*
X161316000Y-125391240D01*
X161322876Y-125392965D01*
X161345986Y-125392965D01*
X161361722Y-125397181D01*
X161374105Y-125400499D01*
X161374106Y-125400500D01*
X161374108Y-125400500D01*
X161505894Y-125400500D01*
X161505894Y-125400499D01*
X161633186Y-125366392D01*
X161747314Y-125300500D01*
X161840500Y-125207314D01*
X161906392Y-125093186D01*
X161940499Y-124965894D01*
X161940500Y-124965894D01*
X161940500Y-124834106D01*
X161940499Y-124834105D01*
X161911147Y-124724562D01*
X161906392Y-124706814D01*
X161840500Y-124592686D01*
X161747314Y-124499500D01*
X161726452Y-124487455D01*
X161633190Y-124433610D01*
X161633181Y-124433606D01*
X161505894Y-124399500D01*
X161505892Y-124399500D01*
X161374108Y-124399500D01*
X161374106Y-124399500D01*
X161246818Y-124433606D01*
X161246809Y-124433610D01*
X161132685Y-124499500D01*
X161060291Y-124571895D01*
X161007965Y-124593569D01*
X160955639Y-124571895D01*
X160946436Y-124560681D01*
X160937577Y-124547423D01*
X160937576Y-124547422D01*
X160862985Y-124497582D01*
X160810041Y-124487052D01*
X160797211Y-124484500D01*
X160797210Y-124484500D01*
X160202787Y-124484500D01*
X160187933Y-124487455D01*
X160132385Y-124476403D01*
X160100921Y-124429309D01*
X160099500Y-124414876D01*
X160099500Y-119585412D01*
X160121174Y-119533087D01*
X160182252Y-119472008D01*
X160234577Y-119450333D01*
X160237110Y-119450500D01*
X160240691Y-119450500D01*
X160359311Y-119450500D01*
X160359311Y-119450499D01*
X160473886Y-119419799D01*
X160576613Y-119360489D01*
X160660489Y-119276613D01*
X160719799Y-119173886D01*
X160750499Y-119059311D01*
X160750500Y-119059311D01*
X160750500Y-118940689D01*
X160750499Y-118940688D01*
X160719800Y-118826117D01*
X160719798Y-118826112D01*
X160660491Y-118723390D01*
X160660490Y-118723389D01*
X160660489Y-118723387D01*
X160576613Y-118639511D01*
X160576610Y-118639509D01*
X160576609Y-118639508D01*
X160473887Y-118580201D01*
X160473882Y-118580199D01*
X160359311Y-118549500D01*
X160359309Y-118549500D01*
X160240691Y-118549500D01*
X160171504Y-118568038D01*
X160115351Y-118560645D01*
X160080873Y-118515711D01*
X160088266Y-118459558D01*
X160100020Y-118444239D01*
X162013364Y-116530897D01*
X162051500Y-116438828D01*
X162051500Y-116339173D01*
X162051500Y-110401229D01*
X162013364Y-110309160D01*
X161942897Y-110238693D01*
X157638383Y-105934179D01*
X157616709Y-105881853D01*
X157638383Y-105829527D01*
X157690709Y-105807853D01*
X158040334Y-105807853D01*
X158092660Y-105829527D01*
X158094333Y-105831435D01*
X158096863Y-105833965D01*
X158096864Y-105833966D01*
X158180740Y-105917842D01*
X158283467Y-105977152D01*
X158283468Y-105977152D01*
X158283470Y-105977153D01*
X158340755Y-105992502D01*
X158398041Y-106007852D01*
X158398042Y-106007853D01*
X158398044Y-106007853D01*
X158516664Y-106007853D01*
X158516664Y-106007852D01*
X158631239Y-105977152D01*
X158733966Y-105917842D01*
X158817842Y-105833966D01*
X158877152Y-105731239D01*
X158907852Y-105616664D01*
X158907853Y-105616664D01*
X158907853Y-105498042D01*
X158907852Y-105498041D01*
X158877153Y-105383470D01*
X158877151Y-105383465D01*
X158817844Y-105280743D01*
X158817843Y-105280742D01*
X158817842Y-105280740D01*
X158733966Y-105196864D01*
X158733963Y-105196862D01*
X158733962Y-105196861D01*
X158631240Y-105137554D01*
X158631235Y-105137552D01*
X158516664Y-105106853D01*
X158516662Y-105106853D01*
X158398044Y-105106853D01*
X158398042Y-105106853D01*
X158283470Y-105137552D01*
X158283465Y-105137554D01*
X158180743Y-105196861D01*
X158093434Y-105284170D01*
X158091510Y-105282246D01*
X158050004Y-105306219D01*
X158040334Y-105306853D01*
X157691765Y-105306853D01*
X157639439Y-105285179D01*
X156972008Y-104617747D01*
X156950334Y-104565421D01*
X156950500Y-104562888D01*
X156950500Y-104440689D01*
X156950499Y-104440688D01*
X156919800Y-104326117D01*
X156919798Y-104326112D01*
X156860491Y-104223390D01*
X156860490Y-104223389D01*
X156860489Y-104223387D01*
X156776613Y-104139511D01*
X156776610Y-104139509D01*
X156776609Y-104139508D01*
X156673887Y-104080201D01*
X156673882Y-104080199D01*
X156559311Y-104049500D01*
X156559309Y-104049500D01*
X156440691Y-104049500D01*
X156440689Y-104049500D01*
X156326117Y-104080199D01*
X156326112Y-104080201D01*
X156260500Y-104118083D01*
X156204347Y-104125475D01*
X156159414Y-104090997D01*
X156149500Y-104053997D01*
X156149500Y-103724500D01*
X156171174Y-103672174D01*
X156223500Y-103650500D01*
X156259311Y-103650500D01*
X156259311Y-103650499D01*
X156373886Y-103619799D01*
X156476613Y-103560489D01*
X156560489Y-103476613D01*
X156619799Y-103373886D01*
X156650499Y-103259311D01*
X156650500Y-103259311D01*
X156650500Y-103140689D01*
X156650499Y-103140688D01*
X156639659Y-103100234D01*
X156619799Y-103026114D01*
X156560489Y-102923387D01*
X156476613Y-102839511D01*
X156476610Y-102839509D01*
X156476609Y-102839508D01*
X156373887Y-102780201D01*
X156373882Y-102780199D01*
X156259311Y-102749500D01*
X156259309Y-102749500D01*
X156140691Y-102749500D01*
X156140689Y-102749500D01*
X156026117Y-102780199D01*
X156026112Y-102780201D01*
X155923390Y-102839508D01*
X155839508Y-102923390D01*
X155780201Y-103026112D01*
X155780199Y-103026117D01*
X155749500Y-103140688D01*
X155749500Y-103264159D01*
X155746783Y-103264159D01*
X155734374Y-103310469D01*
X155727992Y-103317745D01*
X155686639Y-103359098D01*
X155686634Y-103359105D01*
X155648500Y-103451170D01*
X155648500Y-105510316D01*
X155626826Y-105562642D01*
X155574500Y-105584316D01*
X155522174Y-105562642D01*
X153236824Y-103277292D01*
X153215150Y-103224966D01*
X153215316Y-103222433D01*
X153215316Y-103100234D01*
X153215315Y-103100233D01*
X153184616Y-102985662D01*
X153184614Y-102985657D01*
X153125307Y-102882935D01*
X153125306Y-102882934D01*
X153125305Y-102882932D01*
X153041429Y-102799056D01*
X153041426Y-102799054D01*
X153041425Y-102799053D01*
X152938703Y-102739746D01*
X152938698Y-102739744D01*
X152824127Y-102709045D01*
X152824125Y-102709045D01*
X152705507Y-102709045D01*
X152705505Y-102709045D01*
X152590933Y-102739744D01*
X152590928Y-102739746D01*
X152488206Y-102799053D01*
X152404324Y-102882935D01*
X152345017Y-102985657D01*
X152345015Y-102985662D01*
X152314316Y-103100233D01*
X152314316Y-103218856D01*
X152345015Y-103333427D01*
X152345017Y-103333432D01*
X152404324Y-103436154D01*
X152404325Y-103436155D01*
X152404327Y-103436158D01*
X152488203Y-103520034D01*
X152488205Y-103520035D01*
X152488206Y-103520036D01*
X152590928Y-103579343D01*
X152590930Y-103579344D01*
X152590931Y-103579344D01*
X152590933Y-103579345D01*
X152648218Y-103594694D01*
X152705504Y-103610044D01*
X152705505Y-103610045D01*
X152828976Y-103610045D01*
X152828976Y-103612762D01*
X152875286Y-103625171D01*
X152882563Y-103631553D01*
X156074185Y-106823174D01*
X156095859Y-106875500D01*
X156074185Y-106927826D01*
X156021859Y-106949500D01*
X154307880Y-106949500D01*
X154255554Y-106927826D01*
X152465719Y-105137991D01*
X152444045Y-105085899D01*
X152444027Y-105080239D01*
X152444211Y-105079553D01*
X152444211Y-104960935D01*
X152443643Y-104958815D01*
X152443621Y-104951836D01*
X152452716Y-104929679D01*
X152458915Y-104906551D01*
X152463235Y-104904056D01*
X152465130Y-104899442D01*
X152487226Y-104890207D01*
X152507965Y-104878235D01*
X152517343Y-104877620D01*
X152517387Y-104877602D01*
X152517419Y-104877615D01*
X152517621Y-104877602D01*
X152589852Y-104877602D01*
X152589852Y-104877601D01*
X152704427Y-104846901D01*
X152807154Y-104787591D01*
X152891030Y-104703715D01*
X152950340Y-104600988D01*
X152981040Y-104486413D01*
X152981041Y-104486413D01*
X152981041Y-104367791D01*
X152981040Y-104367790D01*
X152969872Y-104326112D01*
X152950340Y-104253216D01*
X152921291Y-104202902D01*
X152891032Y-104150492D01*
X152891031Y-104150491D01*
X152891030Y-104150489D01*
X152807154Y-104066613D01*
X152807151Y-104066611D01*
X152807150Y-104066610D01*
X152704428Y-104007303D01*
X152704423Y-104007301D01*
X152589852Y-103976602D01*
X152589850Y-103976602D01*
X152471232Y-103976602D01*
X152471230Y-103976602D01*
X152356658Y-104007301D01*
X152356648Y-104007305D01*
X152345539Y-104013719D01*
X152289386Y-104021108D01*
X152256217Y-104001957D01*
X150489800Y-102235539D01*
X150468126Y-102183213D01*
X150478041Y-102146212D01*
X150519797Y-102073890D01*
X150519800Y-102073882D01*
X150543381Y-101985881D01*
X157060799Y-101985881D01*
X157060799Y-103514120D01*
X157069532Y-103558023D01*
X157099076Y-103602240D01*
X157102795Y-103607805D01*
X157152577Y-103641068D01*
X157196479Y-103649801D01*
X157196480Y-103649801D01*
X158724718Y-103649801D01*
X158724719Y-103649801D01*
X158768621Y-103641068D01*
X158818403Y-103607805D01*
X158851666Y-103558023D01*
X158860399Y-103514121D01*
X158860399Y-103164022D01*
X158882073Y-103111696D01*
X158934399Y-103090022D01*
X158986725Y-103111696D01*
X159877826Y-104002797D01*
X159899500Y-104055123D01*
X159899500Y-104165894D01*
X159933606Y-104293181D01*
X159933607Y-104293184D01*
X159933608Y-104293186D01*
X159999500Y-104407314D01*
X160092686Y-104500500D01*
X160206814Y-104566392D01*
X160334105Y-104600499D01*
X160334106Y-104600500D01*
X160334108Y-104600500D01*
X160465894Y-104600500D01*
X160465894Y-104600499D01*
X160593186Y-104566392D01*
X160707314Y-104500500D01*
X160800500Y-104407314D01*
X160866392Y-104293186D01*
X160900499Y-104165894D01*
X160900500Y-104165894D01*
X160900500Y-104034106D01*
X160900499Y-104034105D01*
X160866393Y-103906818D01*
X160866392Y-103906814D01*
X160800500Y-103792686D01*
X160707314Y-103699500D01*
X160621233Y-103649801D01*
X160593190Y-103633610D01*
X160593181Y-103633606D01*
X160465894Y-103599500D01*
X160465892Y-103599500D01*
X160355123Y-103599500D01*
X160302797Y-103577826D01*
X159386349Y-102661378D01*
X161560800Y-102661378D01*
X161560800Y-102838624D01*
X161569614Y-102882935D01*
X161595377Y-103012457D01*
X161595380Y-103012467D01*
X161663205Y-103176213D01*
X161761150Y-103322798D01*
X161761680Y-103323590D01*
X161887011Y-103448921D01*
X162034385Y-103547394D01*
X162034386Y-103547394D01*
X162034387Y-103547395D01*
X162185637Y-103610044D01*
X162198138Y-103615222D01*
X162371977Y-103649801D01*
X162371979Y-103649801D01*
X162549221Y-103649801D01*
X162549223Y-103649801D01*
X162723062Y-103615222D01*
X162886815Y-103547394D01*
X163034189Y-103448921D01*
X163159520Y-103323590D01*
X163257993Y-103176216D01*
X163325821Y-103012463D01*
X163360400Y-102838624D01*
X163360400Y-102661378D01*
X163325821Y-102487539D01*
X163301088Y-102427827D01*
X163257994Y-102323788D01*
X163256664Y-102321798D01*
X163159520Y-102176412D01*
X163034189Y-102051081D01*
X162989894Y-102021484D01*
X162886812Y-101952606D01*
X162723066Y-101884781D01*
X162723056Y-101884778D01*
X162593126Y-101858934D01*
X162549223Y-101850201D01*
X162371977Y-101850201D01*
X162328074Y-101858934D01*
X162198143Y-101884778D01*
X162198133Y-101884781D01*
X162034387Y-101952606D01*
X161887014Y-102051078D01*
X161761677Y-102176415D01*
X161663205Y-102323788D01*
X161595380Y-102487534D01*
X161595379Y-102487539D01*
X161560800Y-102661378D01*
X159386349Y-102661378D01*
X159234512Y-102509541D01*
X159196403Y-102487539D01*
X159165991Y-102469980D01*
X159165986Y-102469978D01*
X159089565Y-102449501D01*
X159089563Y-102449501D01*
X158934399Y-102449501D01*
X158882073Y-102427827D01*
X158860399Y-102375501D01*
X158860399Y-101985881D01*
X158851666Y-101941979D01*
X158818403Y-101892197D01*
X158768621Y-101858934D01*
X158724719Y-101850201D01*
X157196479Y-101850201D01*
X157174528Y-101854567D01*
X157152576Y-101858934D01*
X157102795Y-101892196D01*
X157102794Y-101892197D01*
X157069532Y-101941978D01*
X157060799Y-101985881D01*
X150543381Y-101985881D01*
X150549487Y-101963092D01*
X150550499Y-101959311D01*
X150550500Y-101959311D01*
X150550500Y-101840689D01*
X150550499Y-101840688D01*
X150519800Y-101726117D01*
X150519798Y-101726112D01*
X150460491Y-101623390D01*
X150460490Y-101623389D01*
X150460489Y-101623387D01*
X150376613Y-101539511D01*
X150376610Y-101539509D01*
X150376609Y-101539508D01*
X150273887Y-101480201D01*
X150273882Y-101480199D01*
X150159311Y-101449500D01*
X150159309Y-101449500D01*
X150040691Y-101449500D01*
X150040689Y-101449500D01*
X149926117Y-101480199D01*
X149926112Y-101480201D01*
X149823390Y-101539508D01*
X149739508Y-101623390D01*
X149680201Y-101726112D01*
X149680199Y-101726117D01*
X149649500Y-101840688D01*
X149649500Y-101959311D01*
X149680199Y-102073882D01*
X149680201Y-102073887D01*
X149739508Y-102176609D01*
X149739509Y-102176610D01*
X149739511Y-102176613D01*
X149823387Y-102260489D01*
X149823389Y-102260490D01*
X149823390Y-102260491D01*
X149841756Y-102271095D01*
X149873122Y-102306861D01*
X149887633Y-102341892D01*
X149887635Y-102341895D01*
X149887636Y-102341897D01*
X150994661Y-103448921D01*
X151989158Y-104443418D01*
X152010832Y-104495744D01*
X151989158Y-104548070D01*
X151939165Y-104568777D01*
X151939209Y-104569111D01*
X151937964Y-104569274D01*
X151936832Y-104569744D01*
X151934400Y-104569744D01*
X151819815Y-104600447D01*
X151819444Y-104600601D01*
X151819241Y-104600600D01*
X151815140Y-104601700D01*
X151814845Y-104600600D01*
X151762807Y-104600589D01*
X151738815Y-104584554D01*
X148789496Y-101635235D01*
X148789492Y-101635232D01*
X148697426Y-101597098D01*
X143834318Y-101597098D01*
X143781992Y-101575424D01*
X143780318Y-101573515D01*
X143746311Y-101539508D01*
X143693912Y-101487109D01*
X143693909Y-101487107D01*
X143693908Y-101487106D01*
X143591186Y-101427799D01*
X143591181Y-101427797D01*
X143476610Y-101397098D01*
X143476608Y-101397098D01*
X143357990Y-101397098D01*
X143357988Y-101397098D01*
X143243416Y-101427797D01*
X143243411Y-101427799D01*
X143140689Y-101487106D01*
X143056807Y-101570988D01*
X142997500Y-101673710D01*
X142997498Y-101673715D01*
X142966799Y-101788286D01*
X142966799Y-101906909D01*
X142997498Y-102021480D01*
X142997500Y-102021485D01*
X143056807Y-102124207D01*
X143056808Y-102124208D01*
X143056810Y-102124211D01*
X143140686Y-102208087D01*
X143140688Y-102208088D01*
X143140689Y-102208089D01*
X143243411Y-102267396D01*
X143243413Y-102267397D01*
X143243414Y-102267397D01*
X143243416Y-102267398D01*
X143300701Y-102282747D01*
X143357987Y-102298097D01*
X143357988Y-102298098D01*
X143357990Y-102298098D01*
X143476610Y-102298098D01*
X143476610Y-102298097D01*
X143591185Y-102267397D01*
X143693912Y-102208087D01*
X143777788Y-102124211D01*
X143777788Y-102124210D01*
X143781218Y-102120781D01*
X143783141Y-102122704D01*
X143824648Y-102098732D01*
X143834318Y-102098098D01*
X148513185Y-102098098D01*
X148565511Y-102119772D01*
X151535749Y-105090010D01*
X151554901Y-105123183D01*
X151573910Y-105194126D01*
X151573912Y-105194131D01*
X151633219Y-105296853D01*
X151633220Y-105296854D01*
X151633222Y-105296857D01*
X151717098Y-105380733D01*
X151717100Y-105380734D01*
X151717101Y-105380735D01*
X151819823Y-105440042D01*
X151819825Y-105440043D01*
X151819826Y-105440043D01*
X151819828Y-105440044D01*
X151873611Y-105454455D01*
X151934399Y-105470743D01*
X151934400Y-105470744D01*
X152057871Y-105470744D01*
X152057871Y-105473461D01*
X152104181Y-105485870D01*
X152111458Y-105492252D01*
X154031570Y-107412364D01*
X154123639Y-107450500D01*
X154223294Y-107450500D01*
X155982853Y-107450500D01*
X156035179Y-107472174D01*
X156056853Y-107524500D01*
X156056853Y-107566664D01*
X156087552Y-107681235D01*
X156087554Y-107681240D01*
X156146861Y-107783962D01*
X156146862Y-107783963D01*
X156146864Y-107783966D01*
X156230740Y-107867842D01*
X156333467Y-107927152D01*
X156333468Y-107927152D01*
X156333470Y-107927153D01*
X156390755Y-107942502D01*
X156448041Y-107957852D01*
X156448042Y-107957853D01*
X156448044Y-107957853D01*
X156566664Y-107957853D01*
X156566664Y-107957852D01*
X156681239Y-107927152D01*
X156783966Y-107867842D01*
X156867842Y-107783966D01*
X156927152Y-107681239D01*
X156957852Y-107566664D01*
X156957853Y-107566664D01*
X156957853Y-107448042D01*
X156957852Y-107448041D01*
X156948292Y-107412364D01*
X156927152Y-107333467D01*
X156867842Y-107230740D01*
X156813926Y-107176824D01*
X156792253Y-107124500D01*
X156813927Y-107072174D01*
X156866253Y-107050500D01*
X156882981Y-107050500D01*
X156935307Y-107072174D01*
X156936980Y-107074082D01*
X156939510Y-107076612D01*
X156939511Y-107076613D01*
X157023387Y-107160489D01*
X157126114Y-107219799D01*
X157126115Y-107219799D01*
X157126117Y-107219800D01*
X157166946Y-107230740D01*
X157240688Y-107250499D01*
X157240689Y-107250500D01*
X157240691Y-107250500D01*
X157359311Y-107250500D01*
X157359311Y-107250499D01*
X157473886Y-107219799D01*
X157576613Y-107160489D01*
X157660489Y-107076613D01*
X157719799Y-106973886D01*
X157739408Y-106900701D01*
X157773885Y-106855770D01*
X157830038Y-106848377D01*
X157863212Y-106867530D01*
X161528826Y-110533144D01*
X161550500Y-110585470D01*
X161550500Y-112877150D01*
X161528826Y-112929476D01*
X161476500Y-112951150D01*
X161424175Y-112929476D01*
X161345093Y-112850394D01*
X161345090Y-112850392D01*
X161345089Y-112850391D01*
X161242367Y-112791084D01*
X161242362Y-112791082D01*
X161127791Y-112760383D01*
X161127789Y-112760383D01*
X161009171Y-112760383D01*
X161004321Y-112760383D01*
X161004321Y-112757670D01*
X160957997Y-112745247D01*
X160950732Y-112738875D01*
X158699494Y-110487636D01*
X158699491Y-110487634D01*
X158607425Y-110449500D01*
X138878500Y-110449500D01*
X138826174Y-110427826D01*
X138804500Y-110375500D01*
X138804500Y-109931180D01*
X138803779Y-109927555D01*
X138795767Y-109887278D01*
X138762504Y-109837496D01*
X138712722Y-109804233D01*
X138668820Y-109795500D01*
X137131180Y-109795500D01*
X137109229Y-109799866D01*
X137087277Y-109804233D01*
X137037496Y-109837495D01*
X137037495Y-109837496D01*
X137004233Y-109887277D01*
X137004233Y-109887278D01*
X136995500Y-109931180D01*
X134198732Y-109931180D01*
X134197711Y-102756403D01*
X143999500Y-102756403D01*
X143999500Y-102888192D01*
X144033606Y-103015479D01*
X144033610Y-103015488D01*
X144082540Y-103100236D01*
X144099500Y-103129612D01*
X144192686Y-103222798D01*
X144306814Y-103288690D01*
X144434105Y-103322797D01*
X144434106Y-103322798D01*
X144434108Y-103322798D01*
X144565894Y-103322798D01*
X144565894Y-103322797D01*
X144693186Y-103288690D01*
X144807314Y-103222798D01*
X144820449Y-103209663D01*
X144872775Y-103187989D01*
X144925101Y-103209663D01*
X145258369Y-103542931D01*
X145280043Y-103595257D01*
X145277522Y-103614406D01*
X145271601Y-103636505D01*
X145271601Y-103768296D01*
X145305707Y-103895583D01*
X145305711Y-103895592D01*
X145367121Y-104001957D01*
X145371601Y-104009716D01*
X145464787Y-104102902D01*
X145578915Y-104168794D01*
X145706206Y-104202901D01*
X145706207Y-104202902D01*
X145706209Y-104202902D01*
X145837995Y-104202902D01*
X145837995Y-104202901D01*
X145965287Y-104168794D01*
X146079415Y-104102902D01*
X146172601Y-104009716D01*
X146238493Y-103895588D01*
X146272600Y-103768296D01*
X146272601Y-103768296D01*
X146272601Y-103636508D01*
X146272600Y-103636507D01*
X146272599Y-103636505D01*
X146238493Y-103509216D01*
X146172601Y-103395088D01*
X146079415Y-103301902D01*
X146056088Y-103288434D01*
X145965291Y-103236012D01*
X145965282Y-103236008D01*
X145837995Y-103201902D01*
X145837993Y-103201902D01*
X145706209Y-103201902D01*
X145706204Y-103201902D01*
X145684105Y-103207823D01*
X145627953Y-103200428D01*
X145612630Y-103188670D01*
X145033895Y-102609935D01*
X145033891Y-102609932D01*
X144953831Y-102576771D01*
X144918063Y-102545403D01*
X144900503Y-102514989D01*
X144900503Y-102514988D01*
X144900501Y-102514986D01*
X144900500Y-102514984D01*
X144807314Y-102421798D01*
X144693190Y-102355908D01*
X144693181Y-102355904D01*
X144565894Y-102321798D01*
X144565892Y-102321798D01*
X144434108Y-102321798D01*
X144434106Y-102321798D01*
X144306818Y-102355904D01*
X144306809Y-102355908D01*
X144192685Y-102421798D01*
X144099500Y-102514983D01*
X144033610Y-102629107D01*
X144033606Y-102629116D01*
X143999500Y-102756403D01*
X134197711Y-102756403D01*
X134196878Y-96901582D01*
X135549500Y-96901582D01*
X135549500Y-97098417D01*
X135580290Y-97292823D01*
X135580293Y-97292836D01*
X135641113Y-97480019D01*
X135730475Y-97655404D01*
X135803130Y-97755405D01*
X135846172Y-97814646D01*
X135985354Y-97953828D01*
X136144595Y-98069524D01*
X136319975Y-98158884D01*
X136319977Y-98158884D01*
X136319980Y-98158886D01*
X136507163Y-98219706D01*
X136507169Y-98219707D01*
X136507174Y-98219709D01*
X136636780Y-98240236D01*
X136701582Y-98250500D01*
X136701583Y-98250500D01*
X136898418Y-98250500D01*
X136947019Y-98242802D01*
X137092826Y-98219709D01*
X137092833Y-98219706D01*
X137092836Y-98219706D01*
X137280019Y-98158886D01*
X137280019Y-98158885D01*
X137280025Y-98158884D01*
X137455405Y-98069524D01*
X137614646Y-97953828D01*
X137753828Y-97814646D01*
X137869524Y-97655405D01*
X137958884Y-97480025D01*
X138019709Y-97292826D01*
X138050500Y-97098417D01*
X138050500Y-96901583D01*
X138019709Y-96707174D01*
X138019707Y-96707169D01*
X138019706Y-96707163D01*
X137958886Y-96519980D01*
X137958884Y-96519977D01*
X137958884Y-96519975D01*
X137869524Y-96344595D01*
X137753828Y-96185354D01*
X137729852Y-96161378D01*
X157060799Y-96161378D01*
X157060799Y-96338621D01*
X157095376Y-96512456D01*
X157095379Y-96512466D01*
X157163204Y-96676212D01*
X157250710Y-96807174D01*
X157261679Y-96823589D01*
X157387010Y-96948920D01*
X157534384Y-97047393D01*
X157698137Y-97115221D01*
X157871976Y-97149800D01*
X157871978Y-97149800D01*
X158049220Y-97149800D01*
X158049222Y-97149800D01*
X158223061Y-97115221D01*
X158386814Y-97047393D01*
X158534188Y-96948920D01*
X158659519Y-96823589D01*
X158757992Y-96676215D01*
X158825820Y-96512462D01*
X158860399Y-96338623D01*
X158860399Y-96161378D01*
X161560800Y-96161378D01*
X161560800Y-96338621D01*
X161595377Y-96512456D01*
X161595380Y-96512466D01*
X161663205Y-96676212D01*
X161750711Y-96807174D01*
X161761680Y-96823589D01*
X161887011Y-96948920D01*
X162034385Y-97047393D01*
X162198138Y-97115221D01*
X162371977Y-97149800D01*
X162371979Y-97149800D01*
X162549221Y-97149800D01*
X162549223Y-97149800D01*
X162723062Y-97115221D01*
X162886815Y-97047393D01*
X162955375Y-97001582D01*
X170449500Y-97001582D01*
X170449500Y-97198417D01*
X170480290Y-97392823D01*
X170480293Y-97392836D01*
X170541113Y-97580019D01*
X170630475Y-97755404D01*
X170673513Y-97814641D01*
X170746172Y-97914646D01*
X170885354Y-98053828D01*
X170885357Y-98053830D01*
X170885358Y-98053831D01*
X171029950Y-98158884D01*
X171044595Y-98169524D01*
X171219975Y-98258884D01*
X171219977Y-98258884D01*
X171219980Y-98258886D01*
X171407163Y-98319706D01*
X171407169Y-98319707D01*
X171407174Y-98319709D01*
X171536780Y-98340236D01*
X171601582Y-98350500D01*
X171601583Y-98350500D01*
X171798418Y-98350500D01*
X171847019Y-98342802D01*
X171992826Y-98319709D01*
X171992833Y-98319706D01*
X171992836Y-98319706D01*
X172180019Y-98258886D01*
X172180019Y-98258885D01*
X172180025Y-98258884D01*
X172355405Y-98169524D01*
X172514646Y-98053828D01*
X172653828Y-97914646D01*
X172769524Y-97755405D01*
X172858884Y-97580025D01*
X172919709Y-97392826D01*
X172950500Y-97198417D01*
X172950500Y-97001583D01*
X172919709Y-96807174D01*
X172919707Y-96807169D01*
X172919706Y-96807163D01*
X172858886Y-96619980D01*
X172858884Y-96619977D01*
X172858884Y-96619975D01*
X172769524Y-96444595D01*
X172653828Y-96285354D01*
X172514646Y-96146172D01*
X172514638Y-96146166D01*
X172355404Y-96030475D01*
X172180019Y-95941113D01*
X171992836Y-95880293D01*
X171992823Y-95880290D01*
X171798418Y-95849500D01*
X171798417Y-95849500D01*
X171601583Y-95849500D01*
X171601582Y-95849500D01*
X171407176Y-95880290D01*
X171407163Y-95880293D01*
X171219980Y-95941113D01*
X171044595Y-96030475D01*
X170885362Y-96146166D01*
X170885354Y-96146172D01*
X170885349Y-96146177D01*
X170746168Y-96285358D01*
X170630475Y-96444595D01*
X170541113Y-96619980D01*
X170480293Y-96807163D01*
X170480290Y-96807176D01*
X170449500Y-97001582D01*
X162955375Y-97001582D01*
X163034189Y-96948920D01*
X163159520Y-96823589D01*
X163257993Y-96676215D01*
X163325821Y-96512462D01*
X163360400Y-96338623D01*
X163360400Y-96161377D01*
X163325821Y-95987538D01*
X163306591Y-95941113D01*
X163257994Y-95823787D01*
X163197636Y-95733456D01*
X163159520Y-95676411D01*
X163034189Y-95551080D01*
X162986561Y-95519256D01*
X162886812Y-95452605D01*
X162723066Y-95384780D01*
X162723056Y-95384777D01*
X162606643Y-95361621D01*
X162549223Y-95350200D01*
X162371977Y-95350200D01*
X162322695Y-95360002D01*
X162198143Y-95384777D01*
X162198133Y-95384780D01*
X162034387Y-95452605D01*
X161887014Y-95551077D01*
X161761677Y-95676414D01*
X161663205Y-95823787D01*
X161595380Y-95987533D01*
X161595377Y-95987543D01*
X161567854Y-96125912D01*
X161563824Y-96146177D01*
X161560800Y-96161378D01*
X158860399Y-96161378D01*
X158860399Y-96161377D01*
X158825820Y-95987538D01*
X158806590Y-95941113D01*
X158757993Y-95823787D01*
X158697635Y-95733456D01*
X158659519Y-95676411D01*
X158534188Y-95551080D01*
X158486560Y-95519256D01*
X158386811Y-95452605D01*
X158223065Y-95384780D01*
X158223055Y-95384777D01*
X158106642Y-95361621D01*
X158049222Y-95350200D01*
X157871976Y-95350200D01*
X157822694Y-95360002D01*
X157698142Y-95384777D01*
X157698132Y-95384780D01*
X157534386Y-95452605D01*
X157387013Y-95551077D01*
X157261676Y-95676414D01*
X157163204Y-95823787D01*
X157095379Y-95987533D01*
X157095376Y-95987543D01*
X157067853Y-96125912D01*
X157063823Y-96146177D01*
X157060799Y-96161378D01*
X137729852Y-96161378D01*
X137614646Y-96046172D01*
X137614643Y-96046169D01*
X137614641Y-96046168D01*
X137455404Y-95930475D01*
X137280019Y-95841113D01*
X137092836Y-95780293D01*
X137092823Y-95780290D01*
X136898418Y-95749500D01*
X136898417Y-95749500D01*
X136701583Y-95749500D01*
X136701582Y-95749500D01*
X136507176Y-95780290D01*
X136507163Y-95780293D01*
X136319980Y-95841113D01*
X136144595Y-95930475D01*
X135985358Y-96046168D01*
X135846168Y-96185358D01*
X135730475Y-96344595D01*
X135641113Y-96519980D01*
X135580293Y-96707163D01*
X135580290Y-96707176D01*
X135549500Y-96901582D01*
X134196878Y-96901582D01*
X134196777Y-96194162D01*
X134196936Y-96189321D01*
X134197196Y-96185354D01*
X134211857Y-95961726D01*
X134213117Y-95952151D01*
X134257152Y-95730785D01*
X134259656Y-95721441D01*
X134317488Y-95551077D01*
X134332205Y-95507724D01*
X134335909Y-95498784D01*
X134435733Y-95296364D01*
X134440554Y-95288013D01*
X134565959Y-95100333D01*
X134571833Y-95092678D01*
X134720653Y-94922983D01*
X134727488Y-94916148D01*
X134897184Y-94767329D01*
X134904839Y-94761455D01*
X135092516Y-94636052D01*
X135100868Y-94631230D01*
X135303302Y-94531401D01*
X135312228Y-94527703D01*
X135525953Y-94455152D01*
X135535292Y-94452650D01*
X135756654Y-94408616D01*
X135766221Y-94407356D01*
X135994020Y-94392424D01*
X135998837Y-94392267D01*
X172435714Y-94403770D01*
G37*
%TD.AperFunction*%
%TD*%
M02*
