%TF.GenerationSoftware,KiCad,Pcbnew,9.0.1*%
%TF.CreationDate,2025-04-28T02:05:13+08:00*%
%TF.ProjectId,Flight_Control,466c6967-6874-45f4-936f-6e74726f6c2e,rev?*%
%TF.SameCoordinates,Original*%
%TF.FileFunction,Copper,L2,Inr*%
%TF.FilePolarity,Positive*%
%FSLAX46Y46*%
G04 Gerber Fmt 4.6, Leading zero omitted, Abs format (unit mm)*
G04 Created by KiCad (PCBNEW 9.0.1) date 2025-04-28 02:05:13*
%MOMM*%
%LPD*%
G01*
G04 APERTURE LIST*
%TA.AperFunction,ComponentPad*%
%ADD10C,1.320800*%
%TD*%
%TA.AperFunction,ComponentPad*%
%ADD11R,1.498600X1.498600*%
%TD*%
%TA.AperFunction,ComponentPad*%
%ADD12C,1.498600*%
%TD*%
%TA.AperFunction,ComponentPad*%
%ADD13R,1.508000X1.508000*%
%TD*%
%TA.AperFunction,ComponentPad*%
%ADD14C,1.508000*%
%TD*%
%TA.AperFunction,ViaPad*%
%ADD15C,0.800000*%
%TD*%
%TA.AperFunction,ViaPad*%
%ADD16C,0.600000*%
%TD*%
%TA.AperFunction,ViaPad*%
%ADD17C,0.700000*%
%TD*%
G04 APERTURE END LIST*
D10*
%TO.N,GND*%
%TO.C,J3*%
X147600001Y-128100000D03*
%TO.N,+7.4V*%
X145600000Y-128100000D03*
%TD*%
D11*
%TO.N,+3.3V MCU*%
%TO.C,SW1*%
X157960599Y-102750001D03*
D12*
%TO.N,unconnected-(SW1-Pad2)*%
X157960599Y-96250000D03*
%TO.N,BOOT*%
X162460600Y-102750001D03*
%TO.N,Net-(C23-Pad1)*%
X162460600Y-96250000D03*
%TD*%
D13*
%TO.N,TX_Rad*%
%TO.C,J1*%
X137900000Y-110700000D03*
D14*
%TO.N,RX_Rad*%
X137900000Y-113200000D03*
%TO.N,+5V*%
X137900000Y-115700000D03*
%TO.N,GND*%
X137900000Y-118200000D03*
%TD*%
D13*
%TO.N,M1*%
%TO.C,J4*%
X157100000Y-131000000D03*
D14*
%TO.N,M2*%
X159600000Y-131000000D03*
%TO.N,M3*%
X162100000Y-131000000D03*
%TO.N,M4*%
X164600000Y-131000000D03*
%TD*%
D15*
%TO.N,+7.4V*%
X141979999Y-121100001D03*
D16*
%TO.N,GND*%
X152309785Y-116304309D03*
X171400000Y-121300000D03*
X172300000Y-121300000D03*
X172300000Y-120400000D03*
X171400000Y-120400000D03*
X167400000Y-121300000D03*
X168400000Y-121300000D03*
X168300000Y-120300000D03*
X167300000Y-120300000D03*
X171400000Y-111100000D03*
X172400000Y-111100000D03*
X172400000Y-110000000D03*
X171300000Y-110000000D03*
X168300000Y-111000000D03*
X167300000Y-111000000D03*
X168300000Y-109900000D03*
X167300000Y-109900000D03*
X153000000Y-131000000D03*
X151000000Y-129000000D03*
X151000000Y-131000000D03*
X156000000Y-100000000D03*
X156000000Y-98000000D03*
X156000000Y-96000000D03*
X154000000Y-98000000D03*
X154000000Y-96000000D03*
X152000000Y-96000000D03*
X152000000Y-98000000D03*
X150000000Y-98000000D03*
X150000000Y-96000000D03*
X148000000Y-96000000D03*
X148000000Y-98000000D03*
X146000000Y-98000000D03*
X146000000Y-96000000D03*
X144000000Y-96000000D03*
X144000000Y-98000000D03*
X142000000Y-98000000D03*
X142000000Y-96000000D03*
X140000000Y-96000000D03*
X140000000Y-98000000D03*
X136000000Y-100000000D03*
X138000000Y-100000000D03*
X140000000Y-100000000D03*
X140000000Y-102000000D03*
X138000000Y-102000000D03*
X136000000Y-102000000D03*
X136000000Y-104000000D03*
X138000000Y-104000000D03*
X140000000Y-104000000D03*
X140000000Y-106000000D03*
X140000000Y-108000000D03*
X138000000Y-108000000D03*
X138000000Y-106000000D03*
X136000000Y-106000000D03*
X136000000Y-108000000D03*
X138000000Y-121000000D03*
X136000000Y-121000000D03*
X136000000Y-123000000D03*
X138000000Y-123000000D03*
X138000000Y-125000000D03*
X136000000Y-125000000D03*
X136000000Y-127000000D03*
X138000000Y-127000000D03*
X138000000Y-129000000D03*
X136000000Y-129000000D03*
X168000000Y-97000000D03*
X168000000Y-99000000D03*
X166000000Y-99000000D03*
X164000000Y-99000000D03*
X164000000Y-101000000D03*
X166000000Y-101000000D03*
X168000000Y-101000000D03*
X170000000Y-101000000D03*
X172000000Y-101000000D03*
X172000000Y-103000000D03*
X170000000Y-103000000D03*
X168000000Y-103000000D03*
X166000000Y-103000000D03*
X164000000Y-103000000D03*
X164000000Y-105000000D03*
X166000000Y-105000000D03*
X168000000Y-105000000D03*
X170000000Y-105000000D03*
X172000000Y-105000000D03*
X172000000Y-107000000D03*
X170000000Y-107000000D03*
X168000000Y-107000000D03*
X166000000Y-107000000D03*
X164000000Y-107000000D03*
X164000000Y-109000000D03*
X166000000Y-109000000D03*
X168000000Y-109000000D03*
X172000000Y-109000000D03*
X170000000Y-109000000D03*
X170000000Y-111000000D03*
X170000000Y-113000000D03*
X172000000Y-113000000D03*
X172000000Y-117000000D03*
X172000000Y-115000000D03*
X170000000Y-119000000D03*
X172000000Y-119000000D03*
X166000000Y-121000000D03*
X166000000Y-123000000D03*
X168000000Y-123000000D03*
X170000000Y-123000000D03*
X172000000Y-123000000D03*
X172000000Y-125000000D03*
X170000000Y-125000000D03*
X168000000Y-125000000D03*
X166000000Y-125000000D03*
X166000000Y-127000000D03*
X168000000Y-127000000D03*
X170000000Y-127000000D03*
X172000000Y-127000000D03*
X172000000Y-129000000D03*
X170000000Y-129000000D03*
X168000000Y-129000000D03*
X168000000Y-131000000D03*
X168000000Y-133000000D03*
X153000000Y-133000000D03*
X151000000Y-133000000D03*
X142000000Y-133000000D03*
X140000000Y-133000000D03*
X157700000Y-126000000D03*
X166115762Y-118750000D03*
%TO.N,D-*%
X165000000Y-116300000D03*
%TO.N,GND*%
X150625735Y-104674265D03*
X157100000Y-125300000D03*
X157700000Y-125300000D03*
X158300000Y-125275000D03*
D17*
%TO.N,+3.3V MCU*%
X161440000Y-124900000D03*
D16*
%TO.N,GND*%
X161380000Y-125900000D03*
X159249000Y-122900000D03*
%TO.N,M2*%
X149818506Y-118048954D03*
%TO.N,M3*%
X153850000Y-117901472D03*
X156550000Y-118200000D03*
X160300000Y-119000000D03*
X161000000Y-129600000D03*
%TO.N,INTB*%
X157100000Y-118900000D03*
%TO.N,M1*%
X152700000Y-117600000D03*
X153800000Y-129800000D03*
%TO.N,+3.3V MCU A*%
X152701000Y-113400000D03*
%TO.N,GND*%
X168337502Y-114350000D03*
D17*
%TO.N,+3.3V P*%
X147400000Y-112990000D03*
%TO.N,+5V MCU*%
X155085880Y-125794880D03*
D16*
%TO.N,Net-(D1-K)*%
X147300000Y-121124266D03*
X145800000Y-119901397D03*
%TO.N,Net-(U5-PWRGD)*%
X147100000Y-120300000D03*
X150100000Y-120100000D03*
%TO.N,Net-(R5-Pad2)*%
X147700000Y-124200000D03*
%TO.N,Net-(U5-EN)*%
X142300000Y-122000000D03*
%TO.N,GND*%
X147100000Y-103000000D03*
X153100001Y-102212600D03*
%TO.N,INTB*%
X156200000Y-103200000D03*
%TO.N,CSB*%
X156500000Y-104500000D03*
X158457353Y-105557353D03*
%TO.N,SCK*%
X152764816Y-103159545D03*
X157300000Y-106800000D03*
%TO.N,SDO*%
X156507353Y-107507353D03*
X151993711Y-105020244D03*
X143417299Y-101847598D03*
%TO.N,SDI*%
X152530541Y-104427102D03*
X150100000Y-101900000D03*
D17*
%TO.N,+3.3V P*%
X145772101Y-103702402D03*
X144500000Y-102822298D03*
D16*
%TO.N,GND*%
X144940000Y-105400000D03*
X142805309Y-110100000D03*
X146690000Y-107910000D03*
X145700000Y-113200000D03*
X144900000Y-113200000D03*
X141200000Y-129285000D03*
D17*
%TO.N,+3.3V MCU*%
X149500000Y-111350000D03*
X155373468Y-106873468D03*
X155373468Y-106873468D03*
X160400000Y-104100000D03*
D16*
%TO.N,INT_IMU*%
X152300000Y-115400000D03*
D17*
%TO.N,+3.3V P*%
X145400000Y-109820000D03*
D16*
%TO.N,TX_Rad*%
X161068480Y-113210883D03*
%TO.N,RX_Rad*%
X161200000Y-114000000D03*
X143500000Y-113200000D03*
D17*
%TO.N,+5V*%
X142700000Y-115700000D03*
X146900000Y-115000000D03*
D16*
%TO.N,ADC_BAT*%
X154400000Y-127400000D03*
D17*
%TO.N,+3.3V MCU*%
X159642908Y-124376678D03*
%TO.N,+5V MCU*%
X161800000Y-127000000D03*
%TO.N,+3.3V MCU*%
X155160000Y-124300000D03*
X153950051Y-121535213D03*
D15*
%TO.N,+7.4V*%
X144800000Y-128700000D03*
X141200000Y-128300000D03*
D17*
%TO.N,+3.3V P*%
X146000000Y-106500000D03*
X151717940Y-102702875D03*
X150900000Y-102800000D03*
X152200000Y-100900000D03*
D16*
%TO.N,D+*%
X165462265Y-114913735D03*
D17*
%TO.N,V_USB*%
X165600000Y-119500000D03*
D16*
%TO.N,USB_DM*%
X163700000Y-114000000D03*
%TO.N,USB_DP*%
X163900000Y-112500000D03*
%TO.N,Net-(J2-CC2)*%
X165236722Y-114080006D03*
%TO.N,Net-(J2-CC1)*%
X165400000Y-117000000D03*
%TD*%
%TA.AperFunction,Conductor*%
%TO.N,GND*%
G36*
X172440664Y-94403772D02*
G01*
X172440738Y-94403792D01*
X172504226Y-94403792D01*
X172509042Y-94403950D01*
X172736669Y-94418874D01*
X172746258Y-94420136D01*
X172967615Y-94464170D01*
X172976954Y-94466672D01*
X173140423Y-94522164D01*
X173190671Y-94539222D01*
X173199614Y-94542927D01*
X173251780Y-94568653D01*
X173402021Y-94642745D01*
X173410401Y-94647584D01*
X173598047Y-94772968D01*
X173605726Y-94778860D01*
X173775404Y-94927666D01*
X173782248Y-94934511D01*
X173931052Y-95104191D01*
X173936945Y-95111870D01*
X174062326Y-95299518D01*
X174067166Y-95307901D01*
X174166984Y-95510313D01*
X174170688Y-95519256D01*
X174243231Y-95732962D01*
X174245736Y-95742311D01*
X174289764Y-95963654D01*
X174291028Y-95973251D01*
X174305947Y-96200864D01*
X174306105Y-96205717D01*
X174299511Y-132929486D01*
X174299510Y-132934066D01*
X174299500Y-132934108D01*
X174299500Y-132997558D01*
X174299500Y-132997570D01*
X174299342Y-133002410D01*
X174284421Y-133230046D01*
X174283157Y-133239642D01*
X174239130Y-133460984D01*
X174236625Y-133470335D01*
X174164079Y-133684047D01*
X174160375Y-133692989D01*
X174060558Y-133895400D01*
X174055718Y-133903783D01*
X173930331Y-134091436D01*
X173924438Y-134099115D01*
X173775637Y-134268792D01*
X173768792Y-134275637D01*
X173599115Y-134424438D01*
X173591436Y-134430331D01*
X173403783Y-134555718D01*
X173395400Y-134560558D01*
X173192989Y-134660375D01*
X173184047Y-134664079D01*
X172970335Y-134736625D01*
X172960984Y-134739130D01*
X172739642Y-134783157D01*
X172730046Y-134784421D01*
X172502396Y-134799342D01*
X172497568Y-134799500D01*
X172434108Y-134799500D01*
X172434069Y-134799509D01*
X172429581Y-134799510D01*
X172429581Y-134799511D01*
X136003946Y-134806136D01*
X135999094Y-134805978D01*
X135771462Y-134791061D01*
X135761865Y-134789797D01*
X135540518Y-134745770D01*
X135531168Y-134743265D01*
X135317456Y-134670722D01*
X135308513Y-134667018D01*
X135106096Y-134567199D01*
X135097714Y-134562359D01*
X134910060Y-134436976D01*
X134902380Y-134431084D01*
X134901521Y-134430331D01*
X134732695Y-134282277D01*
X134725851Y-134275432D01*
X134577040Y-134105751D01*
X134571153Y-134098080D01*
X134445758Y-133910420D01*
X134440920Y-133902039D01*
X134341100Y-133699630D01*
X134337395Y-133690687D01*
X134264845Y-133476971D01*
X134262340Y-133467622D01*
X134232915Y-133319706D01*
X134218305Y-133246262D01*
X134217043Y-133236670D01*
X134212641Y-133169524D01*
X134202173Y-133009859D01*
X134202015Y-133005088D01*
X134202015Y-132940738D01*
X134202006Y-132940705D01*
X134201872Y-132001582D01*
X135449500Y-132001582D01*
X135449500Y-132198417D01*
X135480290Y-132392823D01*
X135480293Y-132392836D01*
X135541113Y-132580019D01*
X135541115Y-132580024D01*
X135541116Y-132580025D01*
X135630476Y-132755405D01*
X135746172Y-132914646D01*
X135885354Y-133053828D01*
X136044595Y-133169524D01*
X136219975Y-133258884D01*
X136219977Y-133258884D01*
X136219980Y-133258886D01*
X136407163Y-133319706D01*
X136407169Y-133319707D01*
X136407174Y-133319709D01*
X136536780Y-133340236D01*
X136601582Y-133350500D01*
X136601583Y-133350500D01*
X136798418Y-133350500D01*
X136847019Y-133342802D01*
X136992826Y-133319709D01*
X136992833Y-133319706D01*
X136992836Y-133319706D01*
X137180019Y-133258886D01*
X137180019Y-133258885D01*
X137180025Y-133258884D01*
X137355405Y-133169524D01*
X137514646Y-133053828D01*
X137653828Y-132914646D01*
X137769524Y-132755405D01*
X137858884Y-132580025D01*
X137919709Y-132392826D01*
X137950500Y-132198417D01*
X137950500Y-132001583D01*
X137950500Y-132001582D01*
X170449500Y-132001582D01*
X170449500Y-132198417D01*
X170480290Y-132392823D01*
X170480293Y-132392836D01*
X170541113Y-132580019D01*
X170541115Y-132580024D01*
X170541116Y-132580025D01*
X170630476Y-132755405D01*
X170746172Y-132914646D01*
X170885354Y-133053828D01*
X171044595Y-133169524D01*
X171219975Y-133258884D01*
X171219977Y-133258884D01*
X171219980Y-133258886D01*
X171407163Y-133319706D01*
X171407169Y-133319707D01*
X171407174Y-133319709D01*
X171536780Y-133340236D01*
X171601582Y-133350500D01*
X171601583Y-133350500D01*
X171798418Y-133350500D01*
X171847019Y-133342802D01*
X171992826Y-133319709D01*
X171992833Y-133319706D01*
X171992836Y-133319706D01*
X172180019Y-133258886D01*
X172180019Y-133258885D01*
X172180025Y-133258884D01*
X172355405Y-133169524D01*
X172514646Y-133053828D01*
X172653828Y-132914646D01*
X172769524Y-132755405D01*
X172858884Y-132580025D01*
X172919709Y-132392826D01*
X172950500Y-132198417D01*
X172950500Y-132001583D01*
X172919709Y-131807174D01*
X172919707Y-131807169D01*
X172919706Y-131807163D01*
X172858886Y-131619980D01*
X172858884Y-131619977D01*
X172858884Y-131619975D01*
X172769524Y-131444595D01*
X172653828Y-131285354D01*
X172514646Y-131146172D01*
X172514643Y-131146169D01*
X172514641Y-131146168D01*
X172355404Y-131030475D01*
X172180019Y-130941113D01*
X171992836Y-130880293D01*
X171992823Y-130880290D01*
X171798418Y-130849500D01*
X171798417Y-130849500D01*
X171601583Y-130849500D01*
X171601582Y-130849500D01*
X171407176Y-130880290D01*
X171407163Y-130880293D01*
X171219980Y-130941113D01*
X171044595Y-131030475D01*
X170885358Y-131146168D01*
X170746168Y-131285358D01*
X170630475Y-131444595D01*
X170541113Y-131619980D01*
X170480293Y-131807163D01*
X170480290Y-131807176D01*
X170449500Y-132001582D01*
X137950500Y-132001582D01*
X137919709Y-131807174D01*
X137919707Y-131807169D01*
X137919706Y-131807163D01*
X137858886Y-131619980D01*
X137858884Y-131619977D01*
X137858884Y-131619975D01*
X137769524Y-131444595D01*
X137653828Y-131285354D01*
X137514646Y-131146172D01*
X137514643Y-131146169D01*
X137514641Y-131146168D01*
X137355404Y-131030475D01*
X137180019Y-130941113D01*
X136992836Y-130880293D01*
X136992823Y-130880290D01*
X136798418Y-130849500D01*
X136798417Y-130849500D01*
X136601583Y-130849500D01*
X136601582Y-130849500D01*
X136407176Y-130880290D01*
X136407163Y-130880293D01*
X136219980Y-130941113D01*
X136044595Y-131030475D01*
X135885358Y-131146168D01*
X135746168Y-131285358D01*
X135630475Y-131444595D01*
X135541113Y-131619980D01*
X135480293Y-131807163D01*
X135480290Y-131807176D01*
X135449500Y-132001582D01*
X134201872Y-132001582D01*
X134201845Y-131812722D01*
X134201551Y-129740688D01*
X153349500Y-129740688D01*
X153349500Y-129859311D01*
X153380199Y-129973882D01*
X153380201Y-129973887D01*
X153439508Y-130076609D01*
X153439509Y-130076610D01*
X153439511Y-130076613D01*
X153523387Y-130160489D01*
X153523389Y-130160490D01*
X153523390Y-130160491D01*
X153626112Y-130219798D01*
X153626114Y-130219799D01*
X153626115Y-130219799D01*
X153626117Y-130219800D01*
X153668588Y-130231180D01*
X153740688Y-130250499D01*
X153740689Y-130250500D01*
X153740691Y-130250500D01*
X153859311Y-130250500D01*
X153859311Y-130250499D01*
X153931411Y-130231180D01*
X156195500Y-130231180D01*
X156195500Y-131768820D01*
X156204233Y-131812722D01*
X156237496Y-131862504D01*
X156287278Y-131895767D01*
X156331180Y-131904500D01*
X156331181Y-131904500D01*
X157868819Y-131904500D01*
X157868820Y-131904500D01*
X157912722Y-131895767D01*
X157962504Y-131862504D01*
X157995767Y-131812722D01*
X158004500Y-131768820D01*
X158004500Y-130910916D01*
X158695500Y-130910916D01*
X158695500Y-131089083D01*
X158730258Y-131263827D01*
X158730260Y-131263833D01*
X158798443Y-131428441D01*
X158897429Y-131576585D01*
X159023415Y-131702571D01*
X159171559Y-131801557D01*
X159336167Y-131869740D01*
X159510915Y-131904500D01*
X159510917Y-131904500D01*
X159689083Y-131904500D01*
X159689085Y-131904500D01*
X159863833Y-131869740D01*
X160028441Y-131801557D01*
X160176585Y-131702571D01*
X160302571Y-131576585D01*
X160401557Y-131428441D01*
X160469740Y-131263833D01*
X160504500Y-131089085D01*
X160504500Y-130910916D01*
X161195500Y-130910916D01*
X161195500Y-131089083D01*
X161230258Y-131263827D01*
X161230260Y-131263833D01*
X161298443Y-131428441D01*
X161397429Y-131576585D01*
X161523415Y-131702571D01*
X161671559Y-131801557D01*
X161836167Y-131869740D01*
X162010915Y-131904500D01*
X162010917Y-131904500D01*
X162189083Y-131904500D01*
X162189085Y-131904500D01*
X162363833Y-131869740D01*
X162528441Y-131801557D01*
X162676585Y-131702571D01*
X162802571Y-131576585D01*
X162901557Y-131428441D01*
X162969740Y-131263833D01*
X163004500Y-131089085D01*
X163004500Y-130910916D01*
X163695500Y-130910916D01*
X163695500Y-131089083D01*
X163730258Y-131263827D01*
X163730260Y-131263833D01*
X163798443Y-131428441D01*
X163897429Y-131576585D01*
X164023415Y-131702571D01*
X164171559Y-131801557D01*
X164336167Y-131869740D01*
X164510915Y-131904500D01*
X164510917Y-131904500D01*
X164689083Y-131904500D01*
X164689085Y-131904500D01*
X164863833Y-131869740D01*
X165028441Y-131801557D01*
X165176585Y-131702571D01*
X165302571Y-131576585D01*
X165401557Y-131428441D01*
X165469740Y-131263833D01*
X165504500Y-131089085D01*
X165504500Y-130910915D01*
X165469740Y-130736167D01*
X165401557Y-130571559D01*
X165302571Y-130423415D01*
X165176585Y-130297429D01*
X165106350Y-130250500D01*
X165028441Y-130198443D01*
X164863833Y-130130260D01*
X164863827Y-130130258D01*
X164732988Y-130104233D01*
X164689085Y-130095500D01*
X164510915Y-130095500D01*
X164467012Y-130104233D01*
X164336172Y-130130258D01*
X164336166Y-130130260D01*
X164171558Y-130198443D01*
X164023415Y-130297428D01*
X164023414Y-130297430D01*
X163897430Y-130423414D01*
X163897428Y-130423415D01*
X163798443Y-130571558D01*
X163730260Y-130736166D01*
X163730258Y-130736172D01*
X163695500Y-130910916D01*
X163004500Y-130910916D01*
X163004500Y-130910915D01*
X162969740Y-130736167D01*
X162901557Y-130571559D01*
X162802571Y-130423415D01*
X162676585Y-130297429D01*
X162606350Y-130250500D01*
X162528441Y-130198443D01*
X162363833Y-130130260D01*
X162363827Y-130130258D01*
X162232988Y-130104233D01*
X162189085Y-130095500D01*
X162010915Y-130095500D01*
X161967012Y-130104233D01*
X161836172Y-130130258D01*
X161836166Y-130130260D01*
X161671558Y-130198443D01*
X161523415Y-130297428D01*
X161523414Y-130297430D01*
X161397430Y-130423414D01*
X161397428Y-130423415D01*
X161298443Y-130571558D01*
X161230260Y-130736166D01*
X161230258Y-130736172D01*
X161195500Y-130910916D01*
X160504500Y-130910916D01*
X160504500Y-130910915D01*
X160469740Y-130736167D01*
X160401557Y-130571559D01*
X160302571Y-130423415D01*
X160176585Y-130297429D01*
X160106350Y-130250500D01*
X160028441Y-130198443D01*
X159863833Y-130130260D01*
X159863827Y-130130258D01*
X159732988Y-130104233D01*
X159689085Y-130095500D01*
X159510915Y-130095500D01*
X159467012Y-130104233D01*
X159336172Y-130130258D01*
X159336166Y-130130260D01*
X159171558Y-130198443D01*
X159023415Y-130297428D01*
X159023414Y-130297430D01*
X158897430Y-130423414D01*
X158897428Y-130423415D01*
X158798443Y-130571558D01*
X158730260Y-130736166D01*
X158730258Y-130736172D01*
X158695500Y-130910916D01*
X158004500Y-130910916D01*
X158004500Y-130231180D01*
X157995767Y-130187278D01*
X157962504Y-130137496D01*
X157951674Y-130130260D01*
X157912722Y-130104233D01*
X157868820Y-130095500D01*
X156331180Y-130095500D01*
X156309229Y-130099866D01*
X156287277Y-130104233D01*
X156237496Y-130137495D01*
X156237495Y-130137496D01*
X156204233Y-130187277D01*
X156204233Y-130187278D01*
X156195500Y-130231180D01*
X153931411Y-130231180D01*
X153973886Y-130219799D01*
X154076613Y-130160489D01*
X154160489Y-130076613D01*
X154219799Y-129973886D01*
X154250499Y-129859311D01*
X154250500Y-129859311D01*
X154250500Y-129740689D01*
X154250499Y-129740688D01*
X154219800Y-129626117D01*
X154219798Y-129626112D01*
X154189042Y-129572841D01*
X154170478Y-129540688D01*
X160549500Y-129540688D01*
X160549500Y-129659311D01*
X160580199Y-129773882D01*
X160580201Y-129773887D01*
X160639508Y-129876609D01*
X160639509Y-129876610D01*
X160639511Y-129876613D01*
X160723387Y-129960489D01*
X160723389Y-129960490D01*
X160723390Y-129960491D01*
X160826112Y-130019798D01*
X160826114Y-130019799D01*
X160826115Y-130019799D01*
X160826117Y-130019800D01*
X160883402Y-130035149D01*
X160940688Y-130050499D01*
X160940689Y-130050500D01*
X160940691Y-130050500D01*
X161059311Y-130050500D01*
X161059311Y-130050499D01*
X161173886Y-130019799D01*
X161276613Y-129960489D01*
X161360489Y-129876613D01*
X161419799Y-129773886D01*
X161450499Y-129659311D01*
X161450500Y-129659311D01*
X161450500Y-129540689D01*
X161450499Y-129540688D01*
X161419800Y-129426117D01*
X161419798Y-129426112D01*
X161360491Y-129323390D01*
X161360490Y-129323389D01*
X161360489Y-129323387D01*
X161276613Y-129239511D01*
X161276610Y-129239509D01*
X161276609Y-129239508D01*
X161173887Y-129180201D01*
X161173882Y-129180199D01*
X161059311Y-129149500D01*
X161059309Y-129149500D01*
X160940691Y-129149500D01*
X160940689Y-129149500D01*
X160826117Y-129180199D01*
X160826112Y-129180201D01*
X160723390Y-129239508D01*
X160639508Y-129323390D01*
X160580201Y-129426112D01*
X160580199Y-129426117D01*
X160549500Y-129540688D01*
X154170478Y-129540688D01*
X154160491Y-129523390D01*
X154160490Y-129523389D01*
X154160489Y-129523387D01*
X154076613Y-129439511D01*
X154076610Y-129439509D01*
X154076609Y-129439508D01*
X153973887Y-129380201D01*
X153973882Y-129380199D01*
X153859311Y-129349500D01*
X153859309Y-129349500D01*
X153740691Y-129349500D01*
X153740689Y-129349500D01*
X153626117Y-129380199D01*
X153626112Y-129380201D01*
X153523390Y-129439508D01*
X153439508Y-129523390D01*
X153380201Y-129626112D01*
X153380199Y-129626117D01*
X153349500Y-129740688D01*
X134201551Y-129740688D01*
X134201550Y-129735852D01*
X134201336Y-128227522D01*
X140649500Y-128227522D01*
X140649500Y-128372477D01*
X140687014Y-128512481D01*
X140687016Y-128512486D01*
X140729271Y-128585673D01*
X140759491Y-128638015D01*
X140861985Y-128740509D01*
X140987515Y-128812984D01*
X140987516Y-128812984D01*
X140987518Y-128812985D01*
X141057520Y-128831742D01*
X141127522Y-128850499D01*
X141127523Y-128850500D01*
X141127525Y-128850500D01*
X141272477Y-128850500D01*
X141272477Y-128850499D01*
X141412485Y-128812984D01*
X141538015Y-128740509D01*
X141640509Y-128638015D01*
X141646567Y-128627522D01*
X144249500Y-128627522D01*
X144249500Y-128772477D01*
X144287014Y-128912481D01*
X144287016Y-128912486D01*
X144345816Y-129014329D01*
X144359491Y-129038015D01*
X144461985Y-129140509D01*
X144587515Y-129212984D01*
X144587516Y-129212984D01*
X144587518Y-129212985D01*
X144657520Y-129231742D01*
X144727522Y-129250499D01*
X144727523Y-129250500D01*
X144727525Y-129250500D01*
X144872477Y-129250500D01*
X144872477Y-129250499D01*
X145012485Y-129212984D01*
X145138015Y-129140509D01*
X145240509Y-129038015D01*
X145308631Y-128920024D01*
X145353562Y-128885548D01*
X145387148Y-128884448D01*
X145520133Y-128910900D01*
X145520135Y-128910900D01*
X145679866Y-128910900D01*
X145679867Y-128910900D01*
X145836531Y-128879738D01*
X145984105Y-128818611D01*
X146116919Y-128729867D01*
X146229867Y-128616919D01*
X146318611Y-128484105D01*
X146346128Y-128417673D01*
X146386176Y-128377624D01*
X146442813Y-128377624D01*
X146482862Y-128417672D01*
X146484873Y-128423124D01*
X146524613Y-128545433D01*
X146607536Y-128708178D01*
X146620468Y-128725978D01*
X147193601Y-128152845D01*
X147193601Y-128153504D01*
X147221296Y-128256865D01*
X147274800Y-128349536D01*
X147350465Y-128425201D01*
X147443136Y-128478705D01*
X147546497Y-128506400D01*
X147547154Y-128506400D01*
X146974021Y-129079532D01*
X146991816Y-129092461D01*
X146991822Y-129092464D01*
X147154560Y-129175384D01*
X147154565Y-129175386D01*
X147328262Y-129231824D01*
X147328275Y-129231827D01*
X147508675Y-129260400D01*
X147691327Y-129260400D01*
X147871726Y-129231827D01*
X147871739Y-129231824D01*
X148045436Y-129175386D01*
X148045441Y-129175384D01*
X148208173Y-129092468D01*
X148208182Y-129092462D01*
X148225979Y-129079531D01*
X147652848Y-128506400D01*
X147653505Y-128506400D01*
X147756866Y-128478705D01*
X147849537Y-128425201D01*
X147925202Y-128349536D01*
X147978706Y-128256865D01*
X148006401Y-128153504D01*
X148006401Y-128152847D01*
X148579532Y-128725978D01*
X148592463Y-128708181D01*
X148592469Y-128708172D01*
X148675385Y-128545440D01*
X148675387Y-128545435D01*
X148731825Y-128371738D01*
X148731828Y-128371725D01*
X148760401Y-128191325D01*
X148760401Y-128008674D01*
X148731828Y-127828274D01*
X148731825Y-127828261D01*
X148675387Y-127654564D01*
X148675385Y-127654559D01*
X148592465Y-127491821D01*
X148592462Y-127491815D01*
X148579533Y-127474020D01*
X148006401Y-128047152D01*
X148006401Y-128046496D01*
X147978706Y-127943135D01*
X147925202Y-127850464D01*
X147849537Y-127774799D01*
X147756866Y-127721295D01*
X147653505Y-127693600D01*
X147652846Y-127693600D01*
X148005759Y-127340688D01*
X153949500Y-127340688D01*
X153949500Y-127459311D01*
X153980199Y-127573882D01*
X153980201Y-127573887D01*
X154039508Y-127676609D01*
X154039509Y-127676610D01*
X154039511Y-127676613D01*
X154123387Y-127760489D01*
X154123389Y-127760490D01*
X154123390Y-127760491D01*
X154170349Y-127787603D01*
X154226114Y-127819799D01*
X154226115Y-127819799D01*
X154226117Y-127819800D01*
X154257694Y-127828261D01*
X154340688Y-127850499D01*
X154340689Y-127850500D01*
X154340691Y-127850500D01*
X154459311Y-127850500D01*
X154459311Y-127850499D01*
X154573886Y-127819799D01*
X154676613Y-127760489D01*
X154760489Y-127676613D01*
X154819799Y-127573886D01*
X154850499Y-127459311D01*
X154850500Y-127459311D01*
X154850500Y-127340689D01*
X154850499Y-127340688D01*
X154819800Y-127226117D01*
X154819798Y-127226112D01*
X154760491Y-127123390D01*
X154760490Y-127123389D01*
X154760489Y-127123387D01*
X154676613Y-127039511D01*
X154676610Y-127039509D01*
X154676609Y-127039508D01*
X154596650Y-126993344D01*
X154573886Y-126980201D01*
X154573883Y-126980200D01*
X154573882Y-126980199D01*
X154459311Y-126949500D01*
X154459309Y-126949500D01*
X154340691Y-126949500D01*
X154340689Y-126949500D01*
X154226117Y-126980199D01*
X154226112Y-126980201D01*
X154123390Y-127039508D01*
X154039508Y-127123390D01*
X153980201Y-127226112D01*
X153980199Y-127226117D01*
X153949500Y-127340688D01*
X148005759Y-127340688D01*
X148062932Y-127283515D01*
X148225979Y-127120467D01*
X148225980Y-127120467D01*
X148208179Y-127107535D01*
X148045434Y-127024612D01*
X147871739Y-126968175D01*
X147871726Y-126968172D01*
X147691327Y-126939600D01*
X147508675Y-126939600D01*
X147328275Y-126968172D01*
X147328262Y-126968175D01*
X147154565Y-127024613D01*
X147154559Y-127024615D01*
X146991825Y-127107533D01*
X146974021Y-127120467D01*
X147547154Y-127693600D01*
X147546497Y-127693600D01*
X147443136Y-127721295D01*
X147350465Y-127774799D01*
X147274800Y-127850464D01*
X147221296Y-127943135D01*
X147193601Y-128046496D01*
X147193601Y-128047153D01*
X146620468Y-127474020D01*
X146607534Y-127491824D01*
X146524616Y-127654558D01*
X146524614Y-127654564D01*
X146484873Y-127776875D01*
X146448090Y-127819943D01*
X146391628Y-127824386D01*
X146348560Y-127787603D01*
X146346128Y-127782327D01*
X146318611Y-127715895D01*
X146229869Y-127583084D01*
X146229867Y-127583081D01*
X146116919Y-127470133D01*
X146111320Y-127466392D01*
X145984102Y-127381387D01*
X145836535Y-127320263D01*
X145836524Y-127320260D01*
X145718501Y-127296784D01*
X145679867Y-127289100D01*
X145520133Y-127289100D01*
X145489141Y-127295264D01*
X145363475Y-127320260D01*
X145363464Y-127320263D01*
X145215897Y-127381387D01*
X145083084Y-127470130D01*
X144970130Y-127583084D01*
X144881387Y-127715897D01*
X144820263Y-127863464D01*
X144820260Y-127863475D01*
X144789100Y-128020133D01*
X144789100Y-128076497D01*
X144767426Y-128128823D01*
X144731723Y-128146429D01*
X144732210Y-128148244D01*
X144587518Y-128187014D01*
X144587513Y-128187016D01*
X144461984Y-128259491D01*
X144359491Y-128361984D01*
X144287016Y-128487513D01*
X144287014Y-128487518D01*
X144249500Y-128627522D01*
X141646567Y-128627522D01*
X141712984Y-128512485D01*
X141750499Y-128372477D01*
X141750500Y-128372477D01*
X141750500Y-128227523D01*
X141750499Y-128227522D01*
X141739645Y-128187016D01*
X141729593Y-128149500D01*
X141712985Y-128087518D01*
X141712983Y-128087513D01*
X141640508Y-127961984D01*
X141538015Y-127859491D01*
X141412486Y-127787016D01*
X141412481Y-127787014D01*
X141272477Y-127749500D01*
X141272475Y-127749500D01*
X141127525Y-127749500D01*
X141127523Y-127749500D01*
X140987518Y-127787014D01*
X140987513Y-127787016D01*
X140861984Y-127859491D01*
X140759491Y-127961984D01*
X140687016Y-128087513D01*
X140687014Y-128087518D01*
X140649500Y-128227522D01*
X134201336Y-128227522D01*
X134201335Y-128222686D01*
X134201182Y-127148681D01*
X134201151Y-126934105D01*
X161299500Y-126934105D01*
X161299500Y-127065894D01*
X161333606Y-127193181D01*
X161333607Y-127193184D01*
X161333608Y-127193186D01*
X161399500Y-127307314D01*
X161492686Y-127400500D01*
X161606814Y-127466392D01*
X161734105Y-127500499D01*
X161734106Y-127500500D01*
X161734108Y-127500500D01*
X161865894Y-127500500D01*
X161865894Y-127500499D01*
X161993186Y-127466392D01*
X162107314Y-127400500D01*
X162200500Y-127307314D01*
X162266392Y-127193186D01*
X162300499Y-127065894D01*
X162300500Y-127065894D01*
X162300500Y-126934106D01*
X162300499Y-126934105D01*
X162266393Y-126806818D01*
X162266392Y-126806814D01*
X162200500Y-126692686D01*
X162107314Y-126599500D01*
X161993190Y-126533610D01*
X161993181Y-126533606D01*
X161865894Y-126499500D01*
X161865892Y-126499500D01*
X161734108Y-126499500D01*
X161734106Y-126499500D01*
X161606818Y-126533606D01*
X161606809Y-126533610D01*
X161492685Y-126599500D01*
X161399500Y-126692685D01*
X161333610Y-126806809D01*
X161333606Y-126806818D01*
X161299500Y-126934105D01*
X134201151Y-126934105D01*
X134201017Y-125988061D01*
X134200980Y-125728985D01*
X154585380Y-125728985D01*
X154585380Y-125860774D01*
X154619486Y-125988061D01*
X154619487Y-125988064D01*
X154619488Y-125988066D01*
X154685380Y-126102194D01*
X154778566Y-126195380D01*
X154892694Y-126261272D01*
X155019985Y-126295379D01*
X155019986Y-126295380D01*
X155019988Y-126295380D01*
X155151774Y-126295380D01*
X155151774Y-126295379D01*
X155279066Y-126261272D01*
X155393194Y-126195380D01*
X155486380Y-126102194D01*
X155552272Y-125988066D01*
X155586379Y-125860774D01*
X155586380Y-125860774D01*
X155586380Y-125728986D01*
X155586379Y-125728985D01*
X155552273Y-125601698D01*
X155552272Y-125601694D01*
X155486380Y-125487566D01*
X155393194Y-125394380D01*
X155344719Y-125366393D01*
X155279070Y-125328490D01*
X155279061Y-125328486D01*
X155151774Y-125294380D01*
X155151772Y-125294380D01*
X155019988Y-125294380D01*
X155019986Y-125294380D01*
X154892698Y-125328486D01*
X154892689Y-125328490D01*
X154778565Y-125394380D01*
X154685380Y-125487565D01*
X154619490Y-125601689D01*
X154619486Y-125601698D01*
X154585380Y-125728985D01*
X134200980Y-125728985D01*
X134200754Y-124140688D01*
X147249500Y-124140688D01*
X147249500Y-124259311D01*
X147280199Y-124373882D01*
X147280201Y-124373887D01*
X147339508Y-124476609D01*
X147339509Y-124476610D01*
X147339511Y-124476613D01*
X147423387Y-124560489D01*
X147423389Y-124560490D01*
X147423390Y-124560491D01*
X147526112Y-124619798D01*
X147526114Y-124619799D01*
X147526115Y-124619799D01*
X147526117Y-124619800D01*
X147583402Y-124635149D01*
X147640688Y-124650499D01*
X147640689Y-124650500D01*
X147640691Y-124650500D01*
X147759311Y-124650500D01*
X147759311Y-124650499D01*
X147873886Y-124619799D01*
X147976613Y-124560489D01*
X148060489Y-124476613D01*
X148119799Y-124373886D01*
X148150499Y-124259311D01*
X148150500Y-124259311D01*
X148150500Y-124234105D01*
X154659500Y-124234105D01*
X154659500Y-124365894D01*
X154693606Y-124493181D01*
X154693610Y-124493190D01*
X154732467Y-124560491D01*
X154759500Y-124607314D01*
X154852686Y-124700500D01*
X154966814Y-124766392D01*
X155094105Y-124800499D01*
X155094106Y-124800500D01*
X155094108Y-124800500D01*
X155225894Y-124800500D01*
X155225894Y-124800499D01*
X155353186Y-124766392D01*
X155467314Y-124700500D01*
X155560500Y-124607314D01*
X155626392Y-124493186D01*
X155660499Y-124365894D01*
X155660500Y-124365894D01*
X155660500Y-124310783D01*
X159142408Y-124310783D01*
X159142408Y-124442572D01*
X159176514Y-124569859D01*
X159176518Y-124569868D01*
X159223071Y-124650499D01*
X159242408Y-124683992D01*
X159335594Y-124777178D01*
X159449722Y-124843070D01*
X159577013Y-124877177D01*
X159577014Y-124877178D01*
X159577016Y-124877178D01*
X159708802Y-124877178D01*
X159708802Y-124877177D01*
X159836094Y-124843070D01*
X159851622Y-124834105D01*
X160939500Y-124834105D01*
X160939500Y-124965894D01*
X160973606Y-125093181D01*
X160973607Y-125093184D01*
X160973608Y-125093186D01*
X161039500Y-125207314D01*
X161132686Y-125300500D01*
X161246814Y-125366392D01*
X161374105Y-125400499D01*
X161374106Y-125400500D01*
X161374108Y-125400500D01*
X161505894Y-125400500D01*
X161505894Y-125400499D01*
X161633186Y-125366392D01*
X161747314Y-125300500D01*
X161840500Y-125207314D01*
X161906392Y-125093186D01*
X161940499Y-124965894D01*
X161940500Y-124965894D01*
X161940500Y-124834106D01*
X161940499Y-124834105D01*
X161931494Y-124800499D01*
X161906392Y-124706814D01*
X161840500Y-124592686D01*
X161747314Y-124499500D01*
X161707666Y-124476609D01*
X161633190Y-124433610D01*
X161633181Y-124433606D01*
X161505894Y-124399500D01*
X161505892Y-124399500D01*
X161374108Y-124399500D01*
X161374106Y-124399500D01*
X161246818Y-124433606D01*
X161246809Y-124433610D01*
X161132685Y-124499500D01*
X161039500Y-124592685D01*
X160973610Y-124706809D01*
X160973606Y-124706818D01*
X160939500Y-124834105D01*
X159851622Y-124834105D01*
X159950222Y-124777178D01*
X160043408Y-124683992D01*
X160109300Y-124569864D01*
X160143407Y-124442572D01*
X160143408Y-124442572D01*
X160143408Y-124310784D01*
X160143407Y-124310783D01*
X160122861Y-124234105D01*
X160109300Y-124183492D01*
X160043408Y-124069364D01*
X159950222Y-123976178D01*
X159858786Y-123923387D01*
X159836098Y-123910288D01*
X159836089Y-123910284D01*
X159708802Y-123876178D01*
X159708800Y-123876178D01*
X159577016Y-123876178D01*
X159577014Y-123876178D01*
X159449726Y-123910284D01*
X159449717Y-123910288D01*
X159335593Y-123976178D01*
X159242408Y-124069363D01*
X159176518Y-124183487D01*
X159176514Y-124183496D01*
X159142408Y-124310783D01*
X155660500Y-124310783D01*
X155660500Y-124234106D01*
X155660499Y-124234105D01*
X155646937Y-124183492D01*
X155626392Y-124106814D01*
X155560500Y-123992686D01*
X155467314Y-123899500D01*
X155426919Y-123876178D01*
X155353190Y-123833610D01*
X155353181Y-123833606D01*
X155225894Y-123799500D01*
X155225892Y-123799500D01*
X155094108Y-123799500D01*
X155094106Y-123799500D01*
X154966818Y-123833606D01*
X154966809Y-123833610D01*
X154852685Y-123899500D01*
X154759500Y-123992685D01*
X154693610Y-124106809D01*
X154693606Y-124106818D01*
X154659500Y-124234105D01*
X148150500Y-124234105D01*
X148150500Y-124140689D01*
X148150499Y-124140688D01*
X148119800Y-124026117D01*
X148119798Y-124026112D01*
X148060491Y-123923390D01*
X148060490Y-123923389D01*
X148060489Y-123923387D01*
X147976613Y-123839511D01*
X147976610Y-123839509D01*
X147976609Y-123839508D01*
X147873887Y-123780201D01*
X147873882Y-123780199D01*
X147759311Y-123749500D01*
X147759309Y-123749500D01*
X147640691Y-123749500D01*
X147640689Y-123749500D01*
X147526117Y-123780199D01*
X147526112Y-123780201D01*
X147423390Y-123839508D01*
X147339508Y-123923390D01*
X147280201Y-124026112D01*
X147280199Y-124026117D01*
X147249500Y-124140688D01*
X134200754Y-124140688D01*
X134200311Y-121027523D01*
X141429499Y-121027523D01*
X141429499Y-121172478D01*
X141467013Y-121312482D01*
X141467015Y-121312487D01*
X141518049Y-121400879D01*
X141539490Y-121438016D01*
X141641984Y-121540510D01*
X141767514Y-121612985D01*
X141878516Y-121642728D01*
X141923448Y-121677206D01*
X141930841Y-121733359D01*
X141923448Y-121751205D01*
X141880203Y-121826108D01*
X141880199Y-121826117D01*
X141849500Y-121940688D01*
X141849500Y-122059311D01*
X141880199Y-122173882D01*
X141880201Y-122173887D01*
X141939508Y-122276609D01*
X141939509Y-122276610D01*
X141939511Y-122276613D01*
X142023387Y-122360489D01*
X142126114Y-122419799D01*
X142126115Y-122419799D01*
X142126117Y-122419800D01*
X142183402Y-122435149D01*
X142240688Y-122450499D01*
X142240689Y-122450500D01*
X142240691Y-122450500D01*
X142359311Y-122450500D01*
X142359311Y-122450499D01*
X142473886Y-122419799D01*
X142576613Y-122360489D01*
X142660489Y-122276613D01*
X142719799Y-122173886D01*
X142750499Y-122059311D01*
X142750500Y-122059311D01*
X142750500Y-121940689D01*
X142750499Y-121940688D01*
X142719800Y-121826117D01*
X142719798Y-121826112D01*
X142660491Y-121723390D01*
X142660490Y-121723389D01*
X142660489Y-121723387D01*
X142576613Y-121639511D01*
X142576610Y-121639509D01*
X142576609Y-121639508D01*
X142473887Y-121580201D01*
X142473882Y-121580199D01*
X142443454Y-121572046D01*
X142398521Y-121537567D01*
X142391129Y-121481415D01*
X142410281Y-121448242D01*
X142420508Y-121438016D01*
X142492983Y-121312486D01*
X142530498Y-121172478D01*
X142530499Y-121172478D01*
X142530499Y-121027524D01*
X142530498Y-121027523D01*
X142492984Y-120887519D01*
X142492982Y-120887514D01*
X142420507Y-120761985D01*
X142318014Y-120659492D01*
X142192485Y-120587017D01*
X142192480Y-120587015D01*
X142052476Y-120549501D01*
X142052474Y-120549501D01*
X141907524Y-120549501D01*
X141907522Y-120549501D01*
X141767517Y-120587015D01*
X141767512Y-120587017D01*
X141641983Y-120659492D01*
X141539490Y-120761985D01*
X141467015Y-120887514D01*
X141467013Y-120887519D01*
X141429499Y-121027523D01*
X134200311Y-121027523D01*
X134200142Y-119842085D01*
X145349500Y-119842085D01*
X145349500Y-119960708D01*
X145380199Y-120075279D01*
X145380201Y-120075284D01*
X145439508Y-120178006D01*
X145439509Y-120178007D01*
X145439511Y-120178010D01*
X145523387Y-120261886D01*
X145626114Y-120321196D01*
X145626115Y-120321196D01*
X145626117Y-120321197D01*
X145683402Y-120336546D01*
X145740688Y-120351896D01*
X145740689Y-120351897D01*
X145740691Y-120351897D01*
X145859311Y-120351897D01*
X145859311Y-120351896D01*
X145973886Y-120321196D01*
X146076613Y-120261886D01*
X146097811Y-120240688D01*
X146649500Y-120240688D01*
X146649500Y-120359311D01*
X146680199Y-120473882D01*
X146680201Y-120473887D01*
X146739508Y-120576609D01*
X146739509Y-120576610D01*
X146739511Y-120576613D01*
X146823387Y-120660489D01*
X146823389Y-120660490D01*
X146823390Y-120660491D01*
X146930314Y-120722224D01*
X146929142Y-120724253D01*
X146963725Y-120758842D01*
X146963721Y-120815480D01*
X146947684Y-120839480D01*
X146939508Y-120847655D01*
X146880201Y-120950378D01*
X146880199Y-120950383D01*
X146849500Y-121064954D01*
X146849500Y-121183577D01*
X146880199Y-121298148D01*
X146880201Y-121298153D01*
X146939508Y-121400875D01*
X146939509Y-121400876D01*
X146939511Y-121400879D01*
X147023387Y-121484755D01*
X147023389Y-121484756D01*
X147023390Y-121484757D01*
X147126112Y-121544064D01*
X147126114Y-121544065D01*
X147126115Y-121544065D01*
X147126117Y-121544066D01*
X147183402Y-121559415D01*
X147240688Y-121574765D01*
X147240689Y-121574766D01*
X147240691Y-121574766D01*
X147359311Y-121574766D01*
X147359311Y-121574765D01*
X147473886Y-121544065D01*
X147576613Y-121484755D01*
X147592050Y-121469318D01*
X153449551Y-121469318D01*
X153449551Y-121601107D01*
X153483657Y-121728394D01*
X153483661Y-121728403D01*
X153496826Y-121751205D01*
X153549551Y-121842527D01*
X153642737Y-121935713D01*
X153756865Y-122001605D01*
X153884156Y-122035712D01*
X153884157Y-122035713D01*
X153884159Y-122035713D01*
X154015945Y-122035713D01*
X154015945Y-122035712D01*
X154143237Y-122001605D01*
X154257365Y-121935713D01*
X154350551Y-121842527D01*
X154416443Y-121728399D01*
X154450550Y-121601107D01*
X154450551Y-121601107D01*
X154450551Y-121469319D01*
X154450550Y-121469318D01*
X154442162Y-121438015D01*
X154416443Y-121342027D01*
X154350551Y-121227899D01*
X154257365Y-121134713D01*
X154143241Y-121068823D01*
X154143232Y-121068819D01*
X154015945Y-121034713D01*
X154015943Y-121034713D01*
X153884159Y-121034713D01*
X153884157Y-121034713D01*
X153756869Y-121068819D01*
X153756860Y-121068823D01*
X153642736Y-121134713D01*
X153549551Y-121227898D01*
X153483661Y-121342022D01*
X153483657Y-121342031D01*
X153449551Y-121469318D01*
X147592050Y-121469318D01*
X147660489Y-121400879D01*
X147719799Y-121298152D01*
X147750499Y-121183577D01*
X147750500Y-121183577D01*
X147750500Y-121064955D01*
X147750499Y-121064954D01*
X147740469Y-121027523D01*
X147719799Y-120950380D01*
X147660489Y-120847653D01*
X147576613Y-120763777D01*
X147576610Y-120763775D01*
X147576609Y-120763774D01*
X147469686Y-120702042D01*
X147470855Y-120700016D01*
X147436267Y-120665406D01*
X147436285Y-120608769D01*
X147452314Y-120584787D01*
X147460489Y-120576613D01*
X147519799Y-120473886D01*
X147550499Y-120359311D01*
X147550500Y-120359311D01*
X147550500Y-120240689D01*
X147550499Y-120240688D01*
X147519800Y-120126117D01*
X147519798Y-120126112D01*
X147489042Y-120072841D01*
X147470478Y-120040688D01*
X149649500Y-120040688D01*
X149649500Y-120159311D01*
X149680199Y-120273882D01*
X149680201Y-120273887D01*
X149739508Y-120376609D01*
X149739509Y-120376610D01*
X149739511Y-120376613D01*
X149823387Y-120460489D01*
X149823389Y-120460490D01*
X149823390Y-120460491D01*
X149926112Y-120519798D01*
X149926114Y-120519799D01*
X149926115Y-120519799D01*
X149926117Y-120519800D01*
X149983402Y-120535149D01*
X150040688Y-120550499D01*
X150040689Y-120550500D01*
X150040691Y-120550500D01*
X150159311Y-120550500D01*
X150159311Y-120550499D01*
X150273886Y-120519799D01*
X150376613Y-120460489D01*
X150460489Y-120376613D01*
X150519799Y-120273886D01*
X150550499Y-120159311D01*
X150550500Y-120159311D01*
X150550500Y-120040689D01*
X150550499Y-120040688D01*
X150539730Y-120000499D01*
X150530591Y-119966389D01*
X150519800Y-119926117D01*
X150519798Y-119926112D01*
X150460491Y-119823390D01*
X150460490Y-119823389D01*
X150460489Y-119823387D01*
X150376613Y-119739511D01*
X150376610Y-119739509D01*
X150376609Y-119739508D01*
X150273887Y-119680201D01*
X150273882Y-119680199D01*
X150159311Y-119649500D01*
X150159309Y-119649500D01*
X150040691Y-119649500D01*
X150040689Y-119649500D01*
X149926117Y-119680199D01*
X149926112Y-119680201D01*
X149823390Y-119739508D01*
X149739508Y-119823390D01*
X149680201Y-119926112D01*
X149680199Y-119926117D01*
X149649500Y-120040688D01*
X147470478Y-120040688D01*
X147460491Y-120023390D01*
X147460490Y-120023389D01*
X147460489Y-120023387D01*
X147376613Y-119939511D01*
X147376610Y-119939509D01*
X147376609Y-119939508D01*
X147273887Y-119880201D01*
X147273882Y-119880199D01*
X147159311Y-119849500D01*
X147159309Y-119849500D01*
X147040691Y-119849500D01*
X147040689Y-119849500D01*
X146926117Y-119880199D01*
X146926112Y-119880201D01*
X146823390Y-119939508D01*
X146739508Y-120023390D01*
X146680201Y-120126112D01*
X146680199Y-120126117D01*
X146649500Y-120240688D01*
X146097811Y-120240688D01*
X146160489Y-120178010D01*
X146219799Y-120075283D01*
X146250499Y-119960708D01*
X146250500Y-119960708D01*
X146250500Y-119842086D01*
X146250499Y-119842085D01*
X146219800Y-119727514D01*
X146219798Y-119727509D01*
X146160491Y-119624787D01*
X146160490Y-119624786D01*
X146160489Y-119624784D01*
X146076613Y-119540908D01*
X146076610Y-119540906D01*
X146076609Y-119540905D01*
X145973887Y-119481598D01*
X145973882Y-119481596D01*
X145859311Y-119450897D01*
X145859309Y-119450897D01*
X145740691Y-119450897D01*
X145740689Y-119450897D01*
X145626117Y-119481596D01*
X145626112Y-119481598D01*
X145523390Y-119540905D01*
X145439508Y-119624787D01*
X145380201Y-119727509D01*
X145380199Y-119727514D01*
X145349500Y-119842085D01*
X134200142Y-119842085D01*
X134199895Y-118101307D01*
X136646000Y-118101307D01*
X136646000Y-118298692D01*
X136676876Y-118493643D01*
X136676879Y-118493656D01*
X136737869Y-118681363D01*
X136737869Y-118681364D01*
X136827484Y-118857240D01*
X136827484Y-118857241D01*
X136853456Y-118892988D01*
X137417037Y-118329407D01*
X137434075Y-118392993D01*
X137499901Y-118507007D01*
X137592993Y-118600099D01*
X137707007Y-118665925D01*
X137770590Y-118682962D01*
X137207010Y-119246542D01*
X137242762Y-119272517D01*
X137418635Y-119362130D01*
X137606343Y-119423120D01*
X137606356Y-119423123D01*
X137801307Y-119454000D01*
X137998693Y-119454000D01*
X138193643Y-119423123D01*
X138193656Y-119423120D01*
X138381363Y-119362130D01*
X138381364Y-119362130D01*
X138557242Y-119272515D01*
X138592988Y-119246542D01*
X138592989Y-119246542D01*
X138029409Y-118682962D01*
X138092993Y-118665925D01*
X138207007Y-118600099D01*
X138300099Y-118507007D01*
X138365925Y-118392993D01*
X138382962Y-118329409D01*
X138946542Y-118892989D01*
X138946542Y-118892988D01*
X138972515Y-118857242D01*
X139062130Y-118681364D01*
X139062130Y-118681363D01*
X139123120Y-118493656D01*
X139123123Y-118493643D01*
X139154000Y-118298692D01*
X139154000Y-118101307D01*
X139137380Y-117996371D01*
X139136314Y-117989642D01*
X149368006Y-117989642D01*
X149368006Y-118108265D01*
X149398705Y-118222836D01*
X149398707Y-118222841D01*
X149458014Y-118325563D01*
X149458015Y-118325564D01*
X149458017Y-118325567D01*
X149541893Y-118409443D01*
X149644620Y-118468753D01*
X149644621Y-118468753D01*
X149644623Y-118468754D01*
X149687337Y-118480199D01*
X149759194Y-118499453D01*
X149759195Y-118499454D01*
X149759197Y-118499454D01*
X149877817Y-118499454D01*
X149877817Y-118499453D01*
X149992392Y-118468753D01*
X150095119Y-118409443D01*
X150178995Y-118325567D01*
X150238305Y-118222840D01*
X150269005Y-118108265D01*
X150269006Y-118108265D01*
X150269006Y-117989643D01*
X150269005Y-117989642D01*
X150238306Y-117875071D01*
X150238304Y-117875066D01*
X150178997Y-117772344D01*
X150178996Y-117772343D01*
X150178995Y-117772341D01*
X150095119Y-117688465D01*
X150095116Y-117688463D01*
X150095115Y-117688462D01*
X149992393Y-117629155D01*
X149992388Y-117629153D01*
X149910909Y-117607320D01*
X149910903Y-117607320D01*
X149877815Y-117598454D01*
X149759197Y-117598454D01*
X149759195Y-117598454D01*
X149644623Y-117629153D01*
X149644618Y-117629155D01*
X149541896Y-117688462D01*
X149458014Y-117772344D01*
X149398707Y-117875066D01*
X149398705Y-117875071D01*
X149368006Y-117989642D01*
X139136314Y-117989642D01*
X139123123Y-117906356D01*
X139123120Y-117906343D01*
X139062130Y-117718636D01*
X139062130Y-117718635D01*
X138972517Y-117542762D01*
X138971010Y-117540688D01*
X152249500Y-117540688D01*
X152249500Y-117659311D01*
X152280199Y-117773882D01*
X152280201Y-117773887D01*
X152339508Y-117876609D01*
X152339509Y-117876610D01*
X152339511Y-117876613D01*
X152423387Y-117960489D01*
X152423389Y-117960490D01*
X152423390Y-117960491D01*
X152526112Y-118019798D01*
X152526114Y-118019799D01*
X152526115Y-118019799D01*
X152526117Y-118019800D01*
X152549693Y-118026117D01*
X152640688Y-118050499D01*
X152640689Y-118050500D01*
X152640691Y-118050500D01*
X152759311Y-118050500D01*
X152759311Y-118050499D01*
X152873886Y-118019799D01*
X152976613Y-117960489D01*
X153060489Y-117876613D01*
X153080381Y-117842160D01*
X153399500Y-117842160D01*
X153399500Y-117960783D01*
X153430199Y-118075354D01*
X153430201Y-118075359D01*
X153489508Y-118178081D01*
X153489509Y-118178082D01*
X153489511Y-118178085D01*
X153573387Y-118261961D01*
X153676114Y-118321271D01*
X153676115Y-118321271D01*
X153676117Y-118321272D01*
X153733402Y-118336621D01*
X153790688Y-118351971D01*
X153790689Y-118351972D01*
X153790691Y-118351972D01*
X153909311Y-118351972D01*
X153909311Y-118351971D01*
X154023886Y-118321271D01*
X154126613Y-118261961D01*
X154210489Y-118178085D01*
X154232080Y-118140688D01*
X156099500Y-118140688D01*
X156099500Y-118259311D01*
X156130199Y-118373882D01*
X156130201Y-118373887D01*
X156189508Y-118476609D01*
X156189509Y-118476610D01*
X156189511Y-118476613D01*
X156273387Y-118560489D01*
X156273389Y-118560490D01*
X156273390Y-118560491D01*
X156330653Y-118593552D01*
X156376114Y-118619799D01*
X156376115Y-118619799D01*
X156376117Y-118619800D01*
X156433402Y-118635149D01*
X156490688Y-118650499D01*
X156490689Y-118650500D01*
X156604023Y-118650500D01*
X156656349Y-118672174D01*
X156678023Y-118724500D01*
X156675501Y-118743653D01*
X156649500Y-118840688D01*
X156649500Y-118959311D01*
X156680199Y-119073882D01*
X156680201Y-119073887D01*
X156739508Y-119176609D01*
X156739509Y-119176610D01*
X156739511Y-119176613D01*
X156823387Y-119260489D01*
X156823389Y-119260490D01*
X156823390Y-119260491D01*
X156903630Y-119306818D01*
X156926114Y-119319799D01*
X156926115Y-119319799D01*
X156926117Y-119319800D01*
X156983402Y-119335149D01*
X157040688Y-119350499D01*
X157040689Y-119350500D01*
X157040691Y-119350500D01*
X157159311Y-119350500D01*
X157159311Y-119350499D01*
X157273886Y-119319799D01*
X157376613Y-119260489D01*
X157460489Y-119176613D01*
X157519799Y-119073886D01*
X157550499Y-118959311D01*
X157550500Y-118959311D01*
X157550500Y-118940688D01*
X159849500Y-118940688D01*
X159849500Y-119059311D01*
X159880199Y-119173882D01*
X159880201Y-119173887D01*
X159939508Y-119276609D01*
X159939509Y-119276610D01*
X159939511Y-119276613D01*
X160023387Y-119360489D01*
X160126114Y-119419799D01*
X160126115Y-119419799D01*
X160126117Y-119419800D01*
X160138519Y-119423123D01*
X160240688Y-119450499D01*
X160240689Y-119450500D01*
X160240691Y-119450500D01*
X160359311Y-119450500D01*
X160359311Y-119450499D01*
X160420495Y-119434105D01*
X165099500Y-119434105D01*
X165099500Y-119565894D01*
X165133606Y-119693181D01*
X165133610Y-119693190D01*
X165153427Y-119727514D01*
X165199500Y-119807314D01*
X165292686Y-119900500D01*
X165406814Y-119966392D01*
X165534105Y-120000499D01*
X165534106Y-120000500D01*
X165534108Y-120000500D01*
X165665894Y-120000500D01*
X165665894Y-120000499D01*
X165793186Y-119966392D01*
X165907314Y-119900500D01*
X166000500Y-119807314D01*
X166066392Y-119693186D01*
X166100499Y-119565894D01*
X166100500Y-119565894D01*
X166100500Y-119434106D01*
X166100499Y-119434105D01*
X166097556Y-119423123D01*
X166066392Y-119306814D01*
X166000500Y-119192686D01*
X165907314Y-119099500D01*
X165862951Y-119073887D01*
X165793190Y-119033610D01*
X165793181Y-119033606D01*
X165665894Y-118999500D01*
X165665892Y-118999500D01*
X165534108Y-118999500D01*
X165534106Y-118999500D01*
X165406818Y-119033606D01*
X165406809Y-119033610D01*
X165292685Y-119099500D01*
X165199500Y-119192685D01*
X165133610Y-119306809D01*
X165133606Y-119306818D01*
X165099500Y-119434105D01*
X160420495Y-119434105D01*
X160473886Y-119419799D01*
X160511280Y-119398209D01*
X160568503Y-119365172D01*
X160568504Y-119365171D01*
X160576608Y-119360492D01*
X160576608Y-119360491D01*
X160576613Y-119360489D01*
X160660489Y-119276613D01*
X160719799Y-119173886D01*
X160750499Y-119059311D01*
X160750500Y-119059311D01*
X160750500Y-118940689D01*
X160750499Y-118940688D01*
X160719800Y-118826117D01*
X160719798Y-118826112D01*
X160660491Y-118723390D01*
X160660490Y-118723389D01*
X160660489Y-118723387D01*
X160576613Y-118639511D01*
X160576610Y-118639509D01*
X160576609Y-118639508D01*
X160485030Y-118586635D01*
X160473887Y-118580201D01*
X160473882Y-118580199D01*
X160359311Y-118549500D01*
X160359309Y-118549500D01*
X160240691Y-118549500D01*
X160240689Y-118549500D01*
X160126117Y-118580199D01*
X160126112Y-118580201D01*
X160023390Y-118639508D01*
X159939508Y-118723390D01*
X159880201Y-118826112D01*
X159880199Y-118826117D01*
X159849500Y-118940688D01*
X157550500Y-118940688D01*
X157550500Y-118840689D01*
X157550499Y-118840688D01*
X157546593Y-118826112D01*
X157532506Y-118773536D01*
X157519800Y-118726117D01*
X157519798Y-118726112D01*
X157460491Y-118623390D01*
X157460490Y-118623389D01*
X157460489Y-118623387D01*
X157376613Y-118539511D01*
X157376610Y-118539509D01*
X157376609Y-118539508D01*
X157355631Y-118527396D01*
X167862000Y-118527396D01*
X167862000Y-118652603D01*
X167894404Y-118773535D01*
X167942731Y-118857240D01*
X167957005Y-118881964D01*
X168045536Y-118970495D01*
X168153964Y-119033095D01*
X168153963Y-119033095D01*
X168223786Y-119051804D01*
X168274896Y-119065499D01*
X168274897Y-119065500D01*
X168274899Y-119065500D01*
X168400103Y-119065500D01*
X168400103Y-119065499D01*
X168521036Y-119033095D01*
X168629464Y-118970495D01*
X168717995Y-118881964D01*
X168780595Y-118773536D01*
X168812999Y-118652603D01*
X168813000Y-118652603D01*
X168813000Y-118527397D01*
X168812999Y-118527396D01*
X168800352Y-118480199D01*
X168780595Y-118406464D01*
X168717995Y-118298036D01*
X168629464Y-118209505D01*
X168629463Y-118209504D01*
X168521034Y-118146904D01*
X168521036Y-118146904D01*
X168400103Y-118114500D01*
X168400101Y-118114500D01*
X168274899Y-118114500D01*
X168274897Y-118114500D01*
X168153964Y-118146904D01*
X168045536Y-118209504D01*
X167957004Y-118298036D01*
X167894404Y-118406464D01*
X167862000Y-118527396D01*
X157355631Y-118527396D01*
X157273887Y-118480201D01*
X157273882Y-118480199D01*
X157159311Y-118449500D01*
X157159309Y-118449500D01*
X157045977Y-118449500D01*
X156993651Y-118427826D01*
X156971977Y-118375500D01*
X156974499Y-118356347D01*
X156990123Y-118298036D01*
X157000499Y-118259311D01*
X157000500Y-118259311D01*
X157000500Y-118140689D01*
X157000499Y-118140688D01*
X156969800Y-118026117D01*
X156969798Y-118026112D01*
X156910491Y-117923390D01*
X156910490Y-117923389D01*
X156910489Y-117923387D01*
X156826613Y-117839511D01*
X156826610Y-117839509D01*
X156826609Y-117839508D01*
X156723887Y-117780201D01*
X156723882Y-117780199D01*
X156609311Y-117749500D01*
X156609309Y-117749500D01*
X156490691Y-117749500D01*
X156490689Y-117749500D01*
X156376117Y-117780199D01*
X156376112Y-117780201D01*
X156273390Y-117839508D01*
X156189508Y-117923390D01*
X156130201Y-118026112D01*
X156130199Y-118026117D01*
X156099500Y-118140688D01*
X154232080Y-118140688D01*
X154269799Y-118075358D01*
X154300499Y-117960783D01*
X154300500Y-117960783D01*
X154300500Y-117842161D01*
X154300499Y-117842160D01*
X154299788Y-117839508D01*
X154269799Y-117727586D01*
X154230379Y-117659309D01*
X154210491Y-117624862D01*
X154210490Y-117624861D01*
X154210489Y-117624859D01*
X154126613Y-117540983D01*
X154126610Y-117540981D01*
X154126609Y-117540980D01*
X154023887Y-117481673D01*
X154023882Y-117481671D01*
X153909311Y-117450972D01*
X153909309Y-117450972D01*
X153790691Y-117450972D01*
X153790689Y-117450972D01*
X153676117Y-117481671D01*
X153676112Y-117481673D01*
X153573390Y-117540980D01*
X153489508Y-117624862D01*
X153430201Y-117727584D01*
X153430199Y-117727589D01*
X153399500Y-117842160D01*
X153080381Y-117842160D01*
X153119799Y-117773886D01*
X153150499Y-117659311D01*
X153150500Y-117659311D01*
X153150500Y-117540689D01*
X153150499Y-117540688D01*
X153119800Y-117426117D01*
X153119798Y-117426112D01*
X153060491Y-117323390D01*
X153060490Y-117323389D01*
X153060489Y-117323387D01*
X152976613Y-117239511D01*
X152976610Y-117239509D01*
X152976609Y-117239508D01*
X152873887Y-117180201D01*
X152873882Y-117180199D01*
X152759311Y-117149500D01*
X152759309Y-117149500D01*
X152640691Y-117149500D01*
X152640689Y-117149500D01*
X152526117Y-117180199D01*
X152526112Y-117180201D01*
X152423390Y-117239508D01*
X152339508Y-117323390D01*
X152280201Y-117426112D01*
X152280199Y-117426117D01*
X152249500Y-117540688D01*
X138971010Y-117540688D01*
X138946541Y-117507010D01*
X138382962Y-118070590D01*
X138365925Y-118007007D01*
X138300099Y-117892993D01*
X138207007Y-117799901D01*
X138092993Y-117734075D01*
X138029407Y-117717037D01*
X138592988Y-117153456D01*
X138557241Y-117127484D01*
X138381364Y-117037869D01*
X138193656Y-116976879D01*
X138193643Y-116976876D01*
X137998693Y-116946000D01*
X137801307Y-116946000D01*
X137606356Y-116976876D01*
X137606343Y-116976879D01*
X137418636Y-117037869D01*
X137418630Y-117037871D01*
X137242765Y-117127479D01*
X137207010Y-117153456D01*
X137207010Y-117153457D01*
X137770590Y-117717037D01*
X137707007Y-117734075D01*
X137592993Y-117799901D01*
X137499901Y-117892993D01*
X137434075Y-118007007D01*
X137417037Y-118070590D01*
X136853457Y-117507010D01*
X136853456Y-117507010D01*
X136827479Y-117542765D01*
X136737871Y-117718630D01*
X136737869Y-117718636D01*
X136676879Y-117906343D01*
X136676876Y-117906356D01*
X136646000Y-118101307D01*
X134199895Y-118101307D01*
X134199848Y-117772341D01*
X134199764Y-117181670D01*
X134199541Y-115610915D01*
X136995500Y-115610915D01*
X136995500Y-115789085D01*
X137001610Y-115819800D01*
X137030258Y-115963827D01*
X137030260Y-115963833D01*
X137098443Y-116128441D01*
X137173445Y-116240691D01*
X137197429Y-116276585D01*
X137323415Y-116402571D01*
X137471559Y-116501557D01*
X137636167Y-116569740D01*
X137810915Y-116604500D01*
X137810917Y-116604500D01*
X137989083Y-116604500D01*
X137989085Y-116604500D01*
X138163833Y-116569740D01*
X138328441Y-116501557D01*
X138476585Y-116402571D01*
X138602571Y-116276585D01*
X138626556Y-116240688D01*
X164549500Y-116240688D01*
X164549500Y-116359311D01*
X164580199Y-116473882D01*
X164580201Y-116473887D01*
X164639508Y-116576609D01*
X164639509Y-116576610D01*
X164639511Y-116576613D01*
X164723387Y-116660489D01*
X164826114Y-116719799D01*
X164924980Y-116746290D01*
X164969912Y-116780768D01*
X164977305Y-116836920D01*
X164949500Y-116940691D01*
X164949500Y-117059311D01*
X164980199Y-117173882D01*
X164980201Y-117173887D01*
X165039508Y-117276609D01*
X165039509Y-117276610D01*
X165039511Y-117276613D01*
X165123387Y-117360489D01*
X165226114Y-117419799D01*
X165226115Y-117419799D01*
X165226117Y-117419800D01*
X165249693Y-117426117D01*
X165340688Y-117450499D01*
X165340689Y-117450500D01*
X165340691Y-117450500D01*
X165459311Y-117450500D01*
X165459311Y-117450499D01*
X165573886Y-117419799D01*
X165676613Y-117360489D01*
X165760489Y-117276613D01*
X165819799Y-117173886D01*
X165850499Y-117059311D01*
X165850500Y-117059311D01*
X165850500Y-116940689D01*
X165850499Y-116940688D01*
X165819800Y-116826117D01*
X165819798Y-116826112D01*
X165760491Y-116723390D01*
X165760490Y-116723389D01*
X165760489Y-116723387D01*
X165676613Y-116639511D01*
X165676610Y-116639509D01*
X165676609Y-116639508D01*
X165573887Y-116580201D01*
X165573882Y-116580199D01*
X165475020Y-116553709D01*
X165430087Y-116519231D01*
X165422695Y-116463078D01*
X165450499Y-116359311D01*
X165450500Y-116359311D01*
X165450500Y-116240689D01*
X165450499Y-116240688D01*
X165439730Y-116200499D01*
X165419799Y-116126114D01*
X165360489Y-116023387D01*
X165276613Y-115939511D01*
X165276610Y-115939509D01*
X165276609Y-115939508D01*
X165173887Y-115880201D01*
X165173882Y-115880199D01*
X165059311Y-115849500D01*
X165059309Y-115849500D01*
X164940691Y-115849500D01*
X164940689Y-115849500D01*
X164826117Y-115880199D01*
X164826112Y-115880201D01*
X164723390Y-115939508D01*
X164639508Y-116023390D01*
X164580201Y-116126112D01*
X164580199Y-116126117D01*
X164549500Y-116240688D01*
X138626556Y-116240688D01*
X138701557Y-116128441D01*
X138769740Y-115963833D01*
X138804500Y-115789085D01*
X138804500Y-115634105D01*
X142199500Y-115634105D01*
X142199500Y-115765894D01*
X142233606Y-115893181D01*
X142233607Y-115893184D01*
X142233608Y-115893186D01*
X142299500Y-116007314D01*
X142392686Y-116100500D01*
X142506814Y-116166392D01*
X142634105Y-116200499D01*
X142634106Y-116200500D01*
X142634108Y-116200500D01*
X142765894Y-116200500D01*
X142765894Y-116200499D01*
X142893186Y-116166392D01*
X143007314Y-116100500D01*
X143100500Y-116007314D01*
X143166392Y-115893186D01*
X143200499Y-115765894D01*
X143200500Y-115765894D01*
X143200500Y-115634106D01*
X143200499Y-115634105D01*
X143194285Y-115610915D01*
X143166392Y-115506814D01*
X143100500Y-115392686D01*
X143007314Y-115299500D01*
X142958917Y-115271558D01*
X142893190Y-115233610D01*
X142893181Y-115233606D01*
X142765894Y-115199500D01*
X142765892Y-115199500D01*
X142634108Y-115199500D01*
X142634106Y-115199500D01*
X142506818Y-115233606D01*
X142506809Y-115233610D01*
X142392685Y-115299500D01*
X142299500Y-115392685D01*
X142233610Y-115506809D01*
X142233606Y-115506818D01*
X142199500Y-115634105D01*
X138804500Y-115634105D01*
X138804500Y-115610915D01*
X138769740Y-115436167D01*
X138701557Y-115271559D01*
X138602571Y-115123415D01*
X138476585Y-114997429D01*
X138476583Y-114997428D01*
X138476580Y-114997425D01*
X138466645Y-114990787D01*
X138466644Y-114990787D01*
X138404853Y-114949500D01*
X138381813Y-114934105D01*
X146399500Y-114934105D01*
X146399500Y-115065894D01*
X146433606Y-115193181D01*
X146433610Y-115193190D01*
X146494989Y-115299500D01*
X146499500Y-115307314D01*
X146592686Y-115400500D01*
X146706814Y-115466392D01*
X146834105Y-115500499D01*
X146834106Y-115500500D01*
X146834108Y-115500500D01*
X146965894Y-115500500D01*
X146965894Y-115500499D01*
X147093186Y-115466392D01*
X147207314Y-115400500D01*
X147267126Y-115340688D01*
X151849500Y-115340688D01*
X151849500Y-115459311D01*
X151880199Y-115573882D01*
X151880201Y-115573887D01*
X151939508Y-115676609D01*
X151939509Y-115676610D01*
X151939511Y-115676613D01*
X152023387Y-115760489D01*
X152023389Y-115760490D01*
X152023390Y-115760491D01*
X152072916Y-115789085D01*
X152126114Y-115819799D01*
X152126115Y-115819799D01*
X152126117Y-115819800D01*
X152183402Y-115835149D01*
X152240688Y-115850499D01*
X152240689Y-115850500D01*
X152240691Y-115850500D01*
X152359311Y-115850500D01*
X152359311Y-115850499D01*
X152473886Y-115819799D01*
X152576613Y-115760489D01*
X152660489Y-115676613D01*
X152719799Y-115573886D01*
X152750499Y-115459311D01*
X152750500Y-115459311D01*
X152750500Y-115340689D01*
X152750499Y-115340688D01*
X152748582Y-115333535D01*
X152721807Y-115233608D01*
X152719800Y-115226117D01*
X152719798Y-115226112D01*
X152660491Y-115123390D01*
X152660490Y-115123389D01*
X152660489Y-115123387D01*
X152576613Y-115039511D01*
X152576610Y-115039509D01*
X152576609Y-115039508D01*
X152473887Y-114980201D01*
X152473882Y-114980199D01*
X152359311Y-114949500D01*
X152359309Y-114949500D01*
X152240691Y-114949500D01*
X152240689Y-114949500D01*
X152126117Y-114980199D01*
X152126112Y-114980201D01*
X152023390Y-115039508D01*
X151939508Y-115123390D01*
X151880201Y-115226112D01*
X151880199Y-115226117D01*
X151849500Y-115340688D01*
X147267126Y-115340688D01*
X147300500Y-115307314D01*
X147303071Y-115302860D01*
X147305393Y-115298840D01*
X147347382Y-115226112D01*
X147366392Y-115193186D01*
X147400499Y-115065894D01*
X147400500Y-115065894D01*
X147400500Y-114934106D01*
X147400499Y-114934105D01*
X147366393Y-114806818D01*
X147366392Y-114806814D01*
X147300500Y-114692686D01*
X147207314Y-114599500D01*
X147127195Y-114553243D01*
X147093190Y-114533610D01*
X147093181Y-114533606D01*
X146965894Y-114499500D01*
X146965892Y-114499500D01*
X146834108Y-114499500D01*
X146834106Y-114499500D01*
X146706818Y-114533606D01*
X146706809Y-114533610D01*
X146592685Y-114599500D01*
X146499500Y-114692685D01*
X146433610Y-114806809D01*
X146433606Y-114806818D01*
X146399500Y-114934105D01*
X138381813Y-114934105D01*
X138328441Y-114898443D01*
X138163833Y-114830260D01*
X138163827Y-114830258D01*
X138045938Y-114806809D01*
X137989085Y-114795500D01*
X137810915Y-114795500D01*
X137761375Y-114805354D01*
X137636172Y-114830258D01*
X137636166Y-114830260D01*
X137471558Y-114898443D01*
X137323415Y-114997428D01*
X137323414Y-114997430D01*
X137197430Y-115123414D01*
X137197428Y-115123415D01*
X137098443Y-115271558D01*
X137030260Y-115436166D01*
X137030258Y-115436172D01*
X137017463Y-115500499D01*
X136995500Y-115610915D01*
X134199541Y-115610915D01*
X134199540Y-115607291D01*
X134199185Y-113110916D01*
X136995500Y-113110916D01*
X136995500Y-113289083D01*
X137030258Y-113463827D01*
X137030260Y-113463833D01*
X137098443Y-113628441D01*
X137159297Y-113719517D01*
X137197429Y-113776585D01*
X137323415Y-113902571D01*
X137471559Y-114001557D01*
X137636167Y-114069740D01*
X137810915Y-114104500D01*
X137810917Y-114104500D01*
X137989083Y-114104500D01*
X137989085Y-114104500D01*
X138163833Y-114069740D01*
X138328441Y-114001557D01*
X138476585Y-113902571D01*
X138602571Y-113776585D01*
X138701557Y-113628441D01*
X138769740Y-113463833D01*
X138804500Y-113289085D01*
X138804500Y-113140688D01*
X143049500Y-113140688D01*
X143049500Y-113259311D01*
X143080199Y-113373882D01*
X143080201Y-113373887D01*
X143139508Y-113476609D01*
X143139509Y-113476610D01*
X143139511Y-113476613D01*
X143223387Y-113560489D01*
X143223389Y-113560490D01*
X143223390Y-113560491D01*
X143285297Y-113596233D01*
X143326114Y-113619799D01*
X143326115Y-113619799D01*
X143326117Y-113619800D01*
X143383402Y-113635149D01*
X143440688Y-113650499D01*
X143440689Y-113650500D01*
X143440691Y-113650500D01*
X143559311Y-113650500D01*
X143559311Y-113650499D01*
X143673886Y-113619799D01*
X143776613Y-113560489D01*
X143860489Y-113476613D01*
X143919799Y-113373886D01*
X143950499Y-113259311D01*
X143950500Y-113259311D01*
X143950500Y-113140689D01*
X143950499Y-113140688D01*
X143919800Y-113026117D01*
X143919798Y-113026112D01*
X143879470Y-112956262D01*
X143879468Y-112956259D01*
X143860904Y-112924106D01*
X143860903Y-112924105D01*
X146899500Y-112924105D01*
X146899500Y-113055894D01*
X146933606Y-113183181D01*
X146933610Y-113183190D01*
X146958394Y-113226117D01*
X146999500Y-113297314D01*
X147092686Y-113390500D01*
X147206814Y-113456392D01*
X147334105Y-113490499D01*
X147334106Y-113490500D01*
X147334108Y-113490500D01*
X147465894Y-113490500D01*
X147465894Y-113490499D01*
X147593186Y-113456392D01*
X147707314Y-113390500D01*
X147757126Y-113340688D01*
X152250500Y-113340688D01*
X152250500Y-113459311D01*
X152281199Y-113573882D01*
X152281201Y-113573887D01*
X152340508Y-113676609D01*
X152340509Y-113676610D01*
X152340511Y-113676613D01*
X152424387Y-113760489D01*
X152424389Y-113760490D01*
X152424390Y-113760491D01*
X152498698Y-113803393D01*
X152527114Y-113819799D01*
X152527115Y-113819799D01*
X152527117Y-113819800D01*
X152550693Y-113826117D01*
X152641688Y-113850499D01*
X152641689Y-113850500D01*
X152641691Y-113850500D01*
X152760311Y-113850500D01*
X152760311Y-113850499D01*
X152874886Y-113819799D01*
X152977613Y-113760489D01*
X153061489Y-113676613D01*
X153120799Y-113573886D01*
X153151499Y-113459311D01*
X153151500Y-113459311D01*
X153151500Y-113340689D01*
X153151499Y-113340688D01*
X153120800Y-113226117D01*
X153120798Y-113226112D01*
X153096325Y-113183724D01*
X153077761Y-113151571D01*
X160617980Y-113151571D01*
X160617980Y-113270194D01*
X160648679Y-113384765D01*
X160648681Y-113384770D01*
X160707988Y-113487492D01*
X160707989Y-113487493D01*
X160707991Y-113487496D01*
X160791867Y-113571372D01*
X160791869Y-113571373D01*
X160791870Y-113571374D01*
X160834927Y-113596233D01*
X160869405Y-113641166D01*
X160862013Y-113697319D01*
X160850255Y-113712643D01*
X160839508Y-113723389D01*
X160780201Y-113826112D01*
X160780199Y-113826117D01*
X160749500Y-113940688D01*
X160749500Y-114059311D01*
X160780199Y-114173882D01*
X160780201Y-114173887D01*
X160839508Y-114276609D01*
X160839509Y-114276610D01*
X160839511Y-114276613D01*
X160923387Y-114360489D01*
X160923389Y-114360490D01*
X160923390Y-114360491D01*
X161026112Y-114419798D01*
X161026114Y-114419799D01*
X161026115Y-114419799D01*
X161026117Y-114419800D01*
X161083402Y-114435149D01*
X161140688Y-114450499D01*
X161140689Y-114450500D01*
X161140691Y-114450500D01*
X161259311Y-114450500D01*
X161259311Y-114450499D01*
X161373886Y-114419799D01*
X161476613Y-114360489D01*
X161560489Y-114276613D01*
X161619799Y-114173886D01*
X161650499Y-114059311D01*
X161650500Y-114059311D01*
X161650500Y-113940689D01*
X161650499Y-113940688D01*
X163249500Y-113940688D01*
X163249500Y-114059311D01*
X163280199Y-114173882D01*
X163280201Y-114173887D01*
X163339508Y-114276609D01*
X163339509Y-114276610D01*
X163339511Y-114276613D01*
X163423387Y-114360489D01*
X163423389Y-114360490D01*
X163423390Y-114360491D01*
X163526112Y-114419798D01*
X163526114Y-114419799D01*
X163526115Y-114419799D01*
X163526117Y-114419800D01*
X163583402Y-114435149D01*
X163640688Y-114450499D01*
X163640689Y-114450500D01*
X163640691Y-114450500D01*
X163759311Y-114450500D01*
X163759311Y-114450499D01*
X163873886Y-114419799D01*
X163976613Y-114360489D01*
X164060489Y-114276613D01*
X164119799Y-114173886D01*
X164150499Y-114059311D01*
X164150500Y-114059311D01*
X164150500Y-114020694D01*
X164786222Y-114020694D01*
X164786222Y-114139317D01*
X164816921Y-114253888D01*
X164816923Y-114253893D01*
X164876230Y-114356615D01*
X164876231Y-114356616D01*
X164876233Y-114356619D01*
X164960109Y-114440495D01*
X164960111Y-114440496D01*
X164960112Y-114440497D01*
X165062834Y-114499804D01*
X165062836Y-114499805D01*
X165078040Y-114503879D01*
X165122974Y-114538355D01*
X165130368Y-114594507D01*
X165111217Y-114627681D01*
X165101773Y-114637124D01*
X165042466Y-114739847D01*
X165042464Y-114739852D01*
X165011765Y-114854423D01*
X165011765Y-114973046D01*
X165042464Y-115087617D01*
X165042466Y-115087622D01*
X165101773Y-115190344D01*
X165101774Y-115190345D01*
X165101776Y-115190348D01*
X165185652Y-115274224D01*
X165185654Y-115274225D01*
X165185655Y-115274226D01*
X165229431Y-115299500D01*
X165288379Y-115333534D01*
X165288380Y-115333534D01*
X165288382Y-115333535D01*
X165315089Y-115340691D01*
X165402953Y-115364234D01*
X165402954Y-115364235D01*
X165402956Y-115364235D01*
X165521576Y-115364235D01*
X165521576Y-115364234D01*
X165636151Y-115333534D01*
X165738878Y-115274224D01*
X165822754Y-115190348D01*
X165882064Y-115087621D01*
X165912764Y-114973046D01*
X165912765Y-114973046D01*
X165912765Y-114854424D01*
X165912764Y-114854423D01*
X165882065Y-114739852D01*
X165882063Y-114739847D01*
X165822756Y-114637125D01*
X165822755Y-114637124D01*
X165822754Y-114637122D01*
X165738878Y-114553246D01*
X165738875Y-114553244D01*
X165738874Y-114553243D01*
X165636152Y-114493936D01*
X165630554Y-114492436D01*
X165620944Y-114489861D01*
X165576011Y-114455383D01*
X165568618Y-114399231D01*
X165587770Y-114366059D01*
X165597211Y-114356619D01*
X165656521Y-114253892D01*
X165687221Y-114139317D01*
X165687222Y-114139317D01*
X165687222Y-114020695D01*
X165687221Y-114020694D01*
X165656522Y-113906123D01*
X165656520Y-113906118D01*
X165597213Y-113803396D01*
X165597212Y-113803395D01*
X165597211Y-113803393D01*
X165513335Y-113719517D01*
X165513332Y-113719515D01*
X165513331Y-113719514D01*
X165410609Y-113660207D01*
X165410604Y-113660205D01*
X165296033Y-113629506D01*
X165296031Y-113629506D01*
X165177413Y-113629506D01*
X165177411Y-113629506D01*
X165062839Y-113660205D01*
X165062834Y-113660207D01*
X164960112Y-113719514D01*
X164876230Y-113803396D01*
X164816923Y-113906118D01*
X164816921Y-113906123D01*
X164786222Y-114020694D01*
X164150500Y-114020694D01*
X164150500Y-113940689D01*
X164150499Y-113940688D01*
X164119800Y-113826117D01*
X164119798Y-113826112D01*
X164060491Y-113723390D01*
X164060490Y-113723389D01*
X164060489Y-113723387D01*
X163976613Y-113639511D01*
X163976610Y-113639509D01*
X163976609Y-113639508D01*
X163873887Y-113580201D01*
X163873882Y-113580199D01*
X163759311Y-113549500D01*
X163759309Y-113549500D01*
X163640691Y-113549500D01*
X163640689Y-113549500D01*
X163526117Y-113580199D01*
X163526112Y-113580201D01*
X163423390Y-113639508D01*
X163339508Y-113723390D01*
X163280201Y-113826112D01*
X163280199Y-113826117D01*
X163249500Y-113940688D01*
X161650499Y-113940688D01*
X161619800Y-113826117D01*
X161619798Y-113826112D01*
X161560491Y-113723390D01*
X161560490Y-113723389D01*
X161560489Y-113723387D01*
X161476613Y-113639511D01*
X161476610Y-113639509D01*
X161476609Y-113639508D01*
X161433552Y-113614649D01*
X161399073Y-113569715D01*
X161406466Y-113513563D01*
X161418221Y-113498243D01*
X161428969Y-113487496D01*
X161488279Y-113384769D01*
X161518979Y-113270194D01*
X161518980Y-113270194D01*
X161518980Y-113151572D01*
X161518979Y-113151571D01*
X161488280Y-113037000D01*
X161488278Y-113036995D01*
X161428971Y-112934273D01*
X161428970Y-112934272D01*
X161428969Y-112934270D01*
X161345093Y-112850394D01*
X161345090Y-112850392D01*
X161345089Y-112850391D01*
X161242367Y-112791084D01*
X161242362Y-112791082D01*
X161127791Y-112760383D01*
X161127789Y-112760383D01*
X161009171Y-112760383D01*
X161009169Y-112760383D01*
X160894597Y-112791082D01*
X160894592Y-112791084D01*
X160791870Y-112850391D01*
X160707988Y-112934273D01*
X160648681Y-113036995D01*
X160648679Y-113037000D01*
X160617980Y-113151571D01*
X153077761Y-113151571D01*
X153061491Y-113123390D01*
X153061490Y-113123389D01*
X153061489Y-113123387D01*
X152977613Y-113039511D01*
X152977610Y-113039509D01*
X152977609Y-113039508D01*
X152874887Y-112980201D01*
X152874882Y-112980199D01*
X152760311Y-112949500D01*
X152760309Y-112949500D01*
X152641691Y-112949500D01*
X152641689Y-112949500D01*
X152527117Y-112980199D01*
X152527112Y-112980201D01*
X152424390Y-113039508D01*
X152340508Y-113123390D01*
X152281201Y-113226112D01*
X152281199Y-113226117D01*
X152250500Y-113340688D01*
X147757126Y-113340688D01*
X147800500Y-113297314D01*
X147866392Y-113183186D01*
X147900499Y-113055894D01*
X147900500Y-113055894D01*
X147900500Y-112924106D01*
X147900499Y-112924105D01*
X147900307Y-112923390D01*
X147866392Y-112796814D01*
X147800500Y-112682686D01*
X147707314Y-112589500D01*
X147655022Y-112559309D01*
X147593190Y-112523610D01*
X147593188Y-112523609D01*
X147593187Y-112523608D01*
X147593186Y-112523608D01*
X147532393Y-112507318D01*
X147532392Y-112507318D01*
X147465894Y-112489500D01*
X147465892Y-112489500D01*
X147334108Y-112489500D01*
X147334106Y-112489500D01*
X147206818Y-112523606D01*
X147206809Y-112523610D01*
X147092685Y-112589500D01*
X146999500Y-112682685D01*
X146933610Y-112796809D01*
X146933606Y-112796818D01*
X146899500Y-112924105D01*
X143860903Y-112924105D01*
X143860489Y-112923387D01*
X143776613Y-112839511D01*
X143776610Y-112839509D01*
X143776609Y-112839508D01*
X143673887Y-112780201D01*
X143673882Y-112780199D01*
X143559311Y-112749500D01*
X143559309Y-112749500D01*
X143440691Y-112749500D01*
X143440689Y-112749500D01*
X143326117Y-112780199D01*
X143326112Y-112780201D01*
X143223390Y-112839508D01*
X143139508Y-112923390D01*
X143080201Y-113026112D01*
X143080199Y-113026117D01*
X143049500Y-113140688D01*
X138804500Y-113140688D01*
X138804500Y-113110915D01*
X138769740Y-112936167D01*
X138701557Y-112771559D01*
X138602571Y-112623415D01*
X138476585Y-112497429D01*
X138464718Y-112489500D01*
X138391665Y-112440688D01*
X163449500Y-112440688D01*
X163449500Y-112559311D01*
X163480199Y-112673882D01*
X163480201Y-112673887D01*
X163539508Y-112776609D01*
X163539509Y-112776610D01*
X163539511Y-112776613D01*
X163623387Y-112860489D01*
X163623389Y-112860490D01*
X163623390Y-112860491D01*
X163726112Y-112919798D01*
X163726114Y-112919799D01*
X163726115Y-112919799D01*
X163726117Y-112919800D01*
X163742195Y-112924108D01*
X163840688Y-112950499D01*
X163840689Y-112950500D01*
X163840691Y-112950500D01*
X163959311Y-112950500D01*
X163959311Y-112950499D01*
X164073886Y-112919799D01*
X164176613Y-112860489D01*
X164260489Y-112776613D01*
X164277358Y-112747396D01*
X167862000Y-112747396D01*
X167862000Y-112872603D01*
X167894404Y-112993535D01*
X167930407Y-113055894D01*
X167957005Y-113101964D01*
X168045536Y-113190495D01*
X168153964Y-113253095D01*
X168153963Y-113253095D01*
X168217770Y-113270192D01*
X168274896Y-113285499D01*
X168274897Y-113285500D01*
X168274899Y-113285500D01*
X168400103Y-113285500D01*
X168400103Y-113285499D01*
X168521036Y-113253095D01*
X168629464Y-113190495D01*
X168717995Y-113101964D01*
X168780595Y-112993536D01*
X168812999Y-112872603D01*
X168813000Y-112872603D01*
X168813000Y-112747397D01*
X168812999Y-112747396D01*
X168780595Y-112626464D01*
X168717995Y-112518036D01*
X168629463Y-112429504D01*
X168521034Y-112366904D01*
X168521036Y-112366904D01*
X168400103Y-112334500D01*
X168400101Y-112334500D01*
X168274899Y-112334500D01*
X168274897Y-112334500D01*
X168153964Y-112366904D01*
X168045536Y-112429504D01*
X167957004Y-112518036D01*
X167894404Y-112626464D01*
X167862000Y-112747396D01*
X164277358Y-112747396D01*
X164319799Y-112673886D01*
X164350499Y-112559311D01*
X164350500Y-112559311D01*
X164350500Y-112440689D01*
X164350499Y-112440688D01*
X164319800Y-112326117D01*
X164319798Y-112326112D01*
X164260491Y-112223390D01*
X164260490Y-112223389D01*
X164260489Y-112223387D01*
X164176613Y-112139511D01*
X164176610Y-112139509D01*
X164176609Y-112139508D01*
X164073887Y-112080201D01*
X164073882Y-112080199D01*
X163959311Y-112049500D01*
X163959309Y-112049500D01*
X163840691Y-112049500D01*
X163840689Y-112049500D01*
X163726117Y-112080199D01*
X163726112Y-112080201D01*
X163623390Y-112139508D01*
X163539508Y-112223390D01*
X163480201Y-112326112D01*
X163480199Y-112326117D01*
X163449500Y-112440688D01*
X138391665Y-112440688D01*
X138328441Y-112398443D01*
X138163833Y-112330260D01*
X138163827Y-112330258D01*
X138046806Y-112306981D01*
X137989085Y-112295500D01*
X137810915Y-112295500D01*
X137761375Y-112305354D01*
X137636172Y-112330258D01*
X137636166Y-112330260D01*
X137471558Y-112398443D01*
X137323415Y-112497428D01*
X137323414Y-112497430D01*
X137197430Y-112623414D01*
X137197428Y-112623415D01*
X137098443Y-112771558D01*
X137030260Y-112936166D01*
X137030258Y-112936172D01*
X137001240Y-113082054D01*
X136997281Y-113101964D01*
X136995500Y-113110916D01*
X134199185Y-113110916D01*
X134199184Y-113107291D01*
X134198991Y-111750499D01*
X134198732Y-109931180D01*
X136995500Y-109931180D01*
X136995500Y-111468820D01*
X137004233Y-111512722D01*
X137037496Y-111562504D01*
X137087278Y-111595767D01*
X137131180Y-111604500D01*
X137131181Y-111604500D01*
X138668819Y-111604500D01*
X138668820Y-111604500D01*
X138712722Y-111595767D01*
X138762504Y-111562504D01*
X138795767Y-111512722D01*
X138804500Y-111468820D01*
X138804500Y-111284105D01*
X148999500Y-111284105D01*
X148999500Y-111415894D01*
X149033606Y-111543181D01*
X149033610Y-111543190D01*
X149044761Y-111562504D01*
X149099500Y-111657314D01*
X149192686Y-111750500D01*
X149306814Y-111816392D01*
X149434105Y-111850499D01*
X149434106Y-111850500D01*
X149434108Y-111850500D01*
X149565894Y-111850500D01*
X149565894Y-111850499D01*
X149693186Y-111816392D01*
X149807314Y-111750500D01*
X149900500Y-111657314D01*
X149966392Y-111543186D01*
X150000499Y-111415894D01*
X150000500Y-111415894D01*
X150000500Y-111284106D01*
X150000499Y-111284105D01*
X149966393Y-111156818D01*
X149966392Y-111156814D01*
X149900500Y-111042686D01*
X149807314Y-110949500D01*
X149693190Y-110883610D01*
X149693181Y-110883606D01*
X149565894Y-110849500D01*
X149565892Y-110849500D01*
X149434108Y-110849500D01*
X149434106Y-110849500D01*
X149306818Y-110883606D01*
X149306809Y-110883610D01*
X149192685Y-110949500D01*
X149099500Y-111042685D01*
X149033610Y-111156809D01*
X149033606Y-111156818D01*
X148999500Y-111284105D01*
X138804500Y-111284105D01*
X138804500Y-109931180D01*
X138795767Y-109887278D01*
X138762504Y-109837496D01*
X138722531Y-109810787D01*
X138722530Y-109810785D01*
X138712723Y-109804233D01*
X138690771Y-109799866D01*
X138668820Y-109795500D01*
X137131180Y-109795500D01*
X137109229Y-109799866D01*
X137087277Y-109804233D01*
X137037496Y-109837495D01*
X137037495Y-109837496D01*
X137004233Y-109887277D01*
X137004233Y-109887278D01*
X136995500Y-109931180D01*
X134198732Y-109931180D01*
X134198707Y-109754105D01*
X144899500Y-109754105D01*
X144899500Y-109885894D01*
X144933606Y-110013181D01*
X144933607Y-110013184D01*
X144933608Y-110013186D01*
X144999500Y-110127314D01*
X145092686Y-110220500D01*
X145206814Y-110286392D01*
X145334105Y-110320499D01*
X145334106Y-110320500D01*
X145334108Y-110320500D01*
X145465894Y-110320500D01*
X145465894Y-110320499D01*
X145593186Y-110286392D01*
X145707314Y-110220500D01*
X145800500Y-110127314D01*
X145866392Y-110013186D01*
X145900499Y-109885894D01*
X145900500Y-109885894D01*
X145900500Y-109754106D01*
X145900499Y-109754105D01*
X145866393Y-109626818D01*
X145866392Y-109626814D01*
X145800500Y-109512686D01*
X145707314Y-109419500D01*
X145593190Y-109353610D01*
X145593181Y-109353606D01*
X145465894Y-109319500D01*
X145465892Y-109319500D01*
X145334108Y-109319500D01*
X145334106Y-109319500D01*
X145206818Y-109353606D01*
X145206809Y-109353610D01*
X145092685Y-109419500D01*
X144999500Y-109512685D01*
X144933610Y-109626809D01*
X144933606Y-109626818D01*
X144899500Y-109754105D01*
X134198707Y-109754105D01*
X134198378Y-107448041D01*
X156056853Y-107448041D01*
X156056853Y-107566664D01*
X156087552Y-107681235D01*
X156087554Y-107681240D01*
X156146861Y-107783962D01*
X156146862Y-107783963D01*
X156146864Y-107783966D01*
X156230740Y-107867842D01*
X156333467Y-107927152D01*
X156333468Y-107927152D01*
X156333470Y-107927153D01*
X156390755Y-107942502D01*
X156448041Y-107957852D01*
X156448042Y-107957853D01*
X156448044Y-107957853D01*
X156566664Y-107957853D01*
X156566664Y-107957852D01*
X156681239Y-107927152D01*
X156783966Y-107867842D01*
X156867842Y-107783966D01*
X156927152Y-107681239D01*
X156957852Y-107566664D01*
X156957853Y-107566664D01*
X156957853Y-107448042D01*
X156957852Y-107448041D01*
X156927153Y-107333470D01*
X156927151Y-107333465D01*
X156867844Y-107230743D01*
X156867843Y-107230742D01*
X156867842Y-107230740D01*
X156783966Y-107146864D01*
X156783963Y-107146862D01*
X156783962Y-107146861D01*
X156681240Y-107087554D01*
X156681235Y-107087552D01*
X156566664Y-107056853D01*
X156566662Y-107056853D01*
X156448044Y-107056853D01*
X156448042Y-107056853D01*
X156333470Y-107087552D01*
X156333465Y-107087554D01*
X156230743Y-107146861D01*
X156146861Y-107230743D01*
X156087554Y-107333465D01*
X156087552Y-107333470D01*
X156056853Y-107448041D01*
X134198378Y-107448041D01*
X134198234Y-106434105D01*
X145499500Y-106434105D01*
X145499500Y-106565894D01*
X145533606Y-106693181D01*
X145533607Y-106693184D01*
X145533608Y-106693186D01*
X145599500Y-106807314D01*
X145692686Y-106900500D01*
X145806814Y-106966392D01*
X145934105Y-107000499D01*
X145934106Y-107000500D01*
X145934108Y-107000500D01*
X146065894Y-107000500D01*
X146065894Y-107000499D01*
X146193186Y-106966392D01*
X146307314Y-106900500D01*
X146400241Y-106807573D01*
X154872968Y-106807573D01*
X154872968Y-106939362D01*
X154907074Y-107066649D01*
X154907078Y-107066658D01*
X154953384Y-107146861D01*
X154972968Y-107180782D01*
X155066154Y-107273968D01*
X155180282Y-107339860D01*
X155307573Y-107373967D01*
X155307574Y-107373968D01*
X155307576Y-107373968D01*
X155439362Y-107373968D01*
X155439362Y-107373967D01*
X155442935Y-107373009D01*
X155447767Y-107371716D01*
X155524889Y-107351050D01*
X155566654Y-107339860D01*
X155680782Y-107273968D01*
X155773968Y-107180782D01*
X155839860Y-107066654D01*
X155873967Y-106939362D01*
X155873968Y-106939362D01*
X155873968Y-106807574D01*
X155873967Y-106807573D01*
X155862754Y-106765726D01*
X155856045Y-106740688D01*
X156849500Y-106740688D01*
X156849500Y-106859311D01*
X156880199Y-106973882D01*
X156880201Y-106973887D01*
X156939508Y-107076609D01*
X156939509Y-107076610D01*
X156939511Y-107076613D01*
X157023387Y-107160489D01*
X157126114Y-107219799D01*
X157126115Y-107219799D01*
X157126117Y-107219800D01*
X157166946Y-107230740D01*
X157240688Y-107250499D01*
X157240689Y-107250500D01*
X157240691Y-107250500D01*
X157359311Y-107250500D01*
X157359311Y-107250499D01*
X157473886Y-107219799D01*
X157576613Y-107160489D01*
X157660489Y-107076613D01*
X157719799Y-106973886D01*
X157750499Y-106859311D01*
X157750500Y-106859311D01*
X157750500Y-106740689D01*
X157750499Y-106740688D01*
X157719800Y-106626117D01*
X157719798Y-106626112D01*
X157660491Y-106523390D01*
X157660490Y-106523389D01*
X157660489Y-106523387D01*
X157576613Y-106439511D01*
X157576610Y-106439509D01*
X157576609Y-106439508D01*
X157473887Y-106380201D01*
X157473882Y-106380199D01*
X157359311Y-106349500D01*
X157359309Y-106349500D01*
X157240691Y-106349500D01*
X157240689Y-106349500D01*
X157126117Y-106380199D01*
X157126112Y-106380201D01*
X157023390Y-106439508D01*
X156939508Y-106523390D01*
X156880201Y-106626112D01*
X156880199Y-106626117D01*
X156849500Y-106740688D01*
X155856045Y-106740688D01*
X155839860Y-106680282D01*
X155773968Y-106566154D01*
X155680782Y-106472968D01*
X155613475Y-106434108D01*
X155566658Y-106407078D01*
X155566649Y-106407074D01*
X155439362Y-106372968D01*
X155439360Y-106372968D01*
X155307576Y-106372968D01*
X155307574Y-106372968D01*
X155180286Y-106407074D01*
X155180277Y-106407078D01*
X155066153Y-106472968D01*
X154972968Y-106566153D01*
X154907078Y-106680277D01*
X154907074Y-106680286D01*
X154872968Y-106807573D01*
X146400241Y-106807573D01*
X146400500Y-106807314D01*
X146466392Y-106693186D01*
X146500499Y-106565894D01*
X146500500Y-106565894D01*
X146500500Y-106434106D01*
X146500499Y-106434105D01*
X146477829Y-106349500D01*
X146466392Y-106306814D01*
X146400500Y-106192686D01*
X146307314Y-106099500D01*
X146193190Y-106033610D01*
X146193181Y-106033606D01*
X146065894Y-105999500D01*
X146065892Y-105999500D01*
X145934108Y-105999500D01*
X145934106Y-105999500D01*
X145806818Y-106033606D01*
X145806809Y-106033610D01*
X145692685Y-106099500D01*
X145599500Y-106192685D01*
X145533610Y-106306809D01*
X145533606Y-106306818D01*
X145499500Y-106434105D01*
X134198234Y-106434105D01*
X134198101Y-105498041D01*
X158006853Y-105498041D01*
X158006853Y-105616664D01*
X158037552Y-105731235D01*
X158037554Y-105731240D01*
X158096861Y-105833962D01*
X158096862Y-105833963D01*
X158096864Y-105833966D01*
X158180740Y-105917842D01*
X158283467Y-105977152D01*
X158283468Y-105977152D01*
X158283470Y-105977153D01*
X158340755Y-105992502D01*
X158398041Y-106007852D01*
X158398042Y-106007853D01*
X158398044Y-106007853D01*
X158516664Y-106007853D01*
X158516664Y-106007852D01*
X158631239Y-105977152D01*
X158733966Y-105917842D01*
X158817842Y-105833966D01*
X158877152Y-105731239D01*
X158907852Y-105616664D01*
X158907853Y-105616664D01*
X158907853Y-105498042D01*
X158907852Y-105498041D01*
X158877153Y-105383470D01*
X158877151Y-105383465D01*
X158817844Y-105280743D01*
X158817843Y-105280742D01*
X158817842Y-105280740D01*
X158733966Y-105196864D01*
X158733963Y-105196862D01*
X158733962Y-105196861D01*
X158631240Y-105137554D01*
X158631235Y-105137552D01*
X158516664Y-105106853D01*
X158516662Y-105106853D01*
X158398044Y-105106853D01*
X158398042Y-105106853D01*
X158283470Y-105137552D01*
X158283465Y-105137554D01*
X158180743Y-105196861D01*
X158096861Y-105280743D01*
X158037554Y-105383465D01*
X158037552Y-105383470D01*
X158006853Y-105498041D01*
X134198101Y-105498041D01*
X134198024Y-104960932D01*
X151543211Y-104960932D01*
X151543211Y-105079555D01*
X151573910Y-105194126D01*
X151573912Y-105194131D01*
X151633219Y-105296853D01*
X151633220Y-105296854D01*
X151633222Y-105296857D01*
X151717098Y-105380733D01*
X151717100Y-105380734D01*
X151717101Y-105380735D01*
X151800885Y-105429108D01*
X151819825Y-105440043D01*
X151819826Y-105440043D01*
X151819828Y-105440044D01*
X151877113Y-105455393D01*
X151934399Y-105470743D01*
X151934400Y-105470744D01*
X151934402Y-105470744D01*
X152053022Y-105470744D01*
X152053022Y-105470743D01*
X152167597Y-105440043D01*
X152270324Y-105380733D01*
X152354200Y-105296857D01*
X152413510Y-105194130D01*
X152444210Y-105079555D01*
X152444211Y-105079555D01*
X152444211Y-104956085D01*
X152445640Y-104956085D01*
X152458915Y-104906551D01*
X152507965Y-104878235D01*
X152517621Y-104877602D01*
X152589852Y-104877602D01*
X152589852Y-104877601D01*
X152704427Y-104846901D01*
X152807154Y-104787591D01*
X152891030Y-104703715D01*
X152950340Y-104600988D01*
X152981040Y-104486413D01*
X152981041Y-104486413D01*
X152981041Y-104440688D01*
X156049500Y-104440688D01*
X156049500Y-104559311D01*
X156080199Y-104673882D01*
X156080201Y-104673887D01*
X156139508Y-104776609D01*
X156139509Y-104776610D01*
X156139511Y-104776613D01*
X156223387Y-104860489D01*
X156223389Y-104860490D01*
X156223390Y-104860491D01*
X156303168Y-104906551D01*
X156326114Y-104919799D01*
X156326115Y-104919799D01*
X156326117Y-104919800D01*
X156383402Y-104935149D01*
X156440688Y-104950499D01*
X156440689Y-104950500D01*
X156440691Y-104950500D01*
X156559311Y-104950500D01*
X156559311Y-104950499D01*
X156673886Y-104919799D01*
X156776613Y-104860489D01*
X156860489Y-104776613D01*
X156919799Y-104673886D01*
X156950499Y-104559311D01*
X156950500Y-104559311D01*
X156950500Y-104440689D01*
X156950499Y-104440688D01*
X156919800Y-104326117D01*
X156919798Y-104326112D01*
X156860491Y-104223390D01*
X156860490Y-104223389D01*
X156860489Y-104223387D01*
X156776613Y-104139511D01*
X156776610Y-104139509D01*
X156776609Y-104139508D01*
X156696650Y-104093344D01*
X156673886Y-104080201D01*
X156673883Y-104080200D01*
X156673882Y-104080199D01*
X156559311Y-104049500D01*
X156559309Y-104049500D01*
X156440691Y-104049500D01*
X156440689Y-104049500D01*
X156326117Y-104080199D01*
X156326112Y-104080201D01*
X156223390Y-104139508D01*
X156139508Y-104223390D01*
X156080201Y-104326112D01*
X156080199Y-104326117D01*
X156049500Y-104440688D01*
X152981041Y-104440688D01*
X152981041Y-104367791D01*
X152981040Y-104367790D01*
X152969872Y-104326112D01*
X152950340Y-104253216D01*
X152921291Y-104202902D01*
X152891032Y-104150492D01*
X152891031Y-104150491D01*
X152891030Y-104150489D01*
X152807154Y-104066613D01*
X152807151Y-104066611D01*
X152807150Y-104066610D01*
X152750850Y-104034105D01*
X159899500Y-104034105D01*
X159899500Y-104165894D01*
X159933606Y-104293181D01*
X159933607Y-104293184D01*
X159933608Y-104293186D01*
X159999500Y-104407314D01*
X160092686Y-104500500D01*
X160206814Y-104566392D01*
X160334105Y-104600499D01*
X160334106Y-104600500D01*
X160334108Y-104600500D01*
X160465894Y-104600500D01*
X160465894Y-104600499D01*
X160593186Y-104566392D01*
X160707314Y-104500500D01*
X160800500Y-104407314D01*
X160866392Y-104293186D01*
X160900499Y-104165894D01*
X160900500Y-104165894D01*
X160900500Y-104034106D01*
X160900499Y-104034105D01*
X160866393Y-103906818D01*
X160866392Y-103906814D01*
X160800500Y-103792686D01*
X160707314Y-103699500D01*
X160621233Y-103649801D01*
X160593190Y-103633610D01*
X160593181Y-103633606D01*
X160465894Y-103599500D01*
X160465892Y-103599500D01*
X160334108Y-103599500D01*
X160334106Y-103599500D01*
X160206818Y-103633606D01*
X160206809Y-103633610D01*
X160092685Y-103699500D01*
X159999500Y-103792685D01*
X159933610Y-103906809D01*
X159933606Y-103906818D01*
X159899500Y-104034105D01*
X152750850Y-104034105D01*
X152704428Y-104007303D01*
X152704423Y-104007301D01*
X152589852Y-103976602D01*
X152589850Y-103976602D01*
X152471232Y-103976602D01*
X152471230Y-103976602D01*
X152356658Y-104007301D01*
X152356653Y-104007303D01*
X152253931Y-104066610D01*
X152170049Y-104150492D01*
X152110742Y-104253214D01*
X152110740Y-104253219D01*
X152080041Y-104367790D01*
X152080041Y-104491261D01*
X152078612Y-104491261D01*
X152065337Y-104540795D01*
X152016287Y-104569111D01*
X152006631Y-104569744D01*
X151934400Y-104569744D01*
X151819828Y-104600443D01*
X151819823Y-104600445D01*
X151717101Y-104659752D01*
X151633219Y-104743634D01*
X151573912Y-104846356D01*
X151573910Y-104846361D01*
X151543211Y-104960932D01*
X134198024Y-104960932D01*
X134197836Y-103636507D01*
X145271601Y-103636507D01*
X145271601Y-103768296D01*
X145305707Y-103895583D01*
X145305711Y-103895592D01*
X145370207Y-104007301D01*
X145371601Y-104009716D01*
X145464787Y-104102902D01*
X145578915Y-104168794D01*
X145706206Y-104202901D01*
X145706207Y-104202902D01*
X145706209Y-104202902D01*
X145837995Y-104202902D01*
X145837995Y-104202901D01*
X145965287Y-104168794D01*
X146079415Y-104102902D01*
X146172601Y-104009716D01*
X146238493Y-103895588D01*
X146272600Y-103768296D01*
X146272601Y-103768296D01*
X146272601Y-103636508D01*
X146272600Y-103636507D01*
X146268123Y-103619800D01*
X146238493Y-103509216D01*
X146172601Y-103395088D01*
X146079415Y-103301902D01*
X146017905Y-103266389D01*
X145965291Y-103236012D01*
X145965282Y-103236008D01*
X145837995Y-103201902D01*
X145837993Y-103201902D01*
X145706209Y-103201902D01*
X145706207Y-103201902D01*
X145578919Y-103236008D01*
X145578910Y-103236012D01*
X145464786Y-103301902D01*
X145371601Y-103395087D01*
X145305711Y-103509211D01*
X145305707Y-103509220D01*
X145271601Y-103636507D01*
X134197836Y-103636507D01*
X134197711Y-102756403D01*
X143999500Y-102756403D01*
X143999500Y-102888192D01*
X144033606Y-103015479D01*
X144033610Y-103015488D01*
X144082540Y-103100236D01*
X144099500Y-103129612D01*
X144192686Y-103222798D01*
X144306814Y-103288690D01*
X144434105Y-103322797D01*
X144434106Y-103322798D01*
X144434108Y-103322798D01*
X144565894Y-103322798D01*
X144565894Y-103322797D01*
X144693186Y-103288690D01*
X144807314Y-103222798D01*
X144900500Y-103129612D01*
X144966392Y-103015484D01*
X145000499Y-102888192D01*
X145000500Y-102888192D01*
X145000500Y-102756406D01*
X144999203Y-102751567D01*
X144994524Y-102734105D01*
X150399500Y-102734105D01*
X150399500Y-102865894D01*
X150433606Y-102993181D01*
X150433610Y-102993190D01*
X150496685Y-103102439D01*
X150499500Y-103107314D01*
X150592686Y-103200500D01*
X150706814Y-103266392D01*
X150834105Y-103300499D01*
X150834106Y-103300500D01*
X150834108Y-103300500D01*
X150965894Y-103300500D01*
X150965894Y-103300499D01*
X151093186Y-103266392D01*
X151207314Y-103200500D01*
X151300500Y-103107314D01*
X151300500Y-103107313D01*
X151303930Y-103103884D01*
X151305702Y-103105656D01*
X151347680Y-103081401D01*
X151402392Y-103096041D01*
X151409690Y-103102439D01*
X151410626Y-103103375D01*
X151524754Y-103169267D01*
X151652045Y-103203374D01*
X151652046Y-103203375D01*
X151652048Y-103203375D01*
X151783834Y-103203375D01*
X151783834Y-103203374D01*
X151911126Y-103169267D01*
X152025254Y-103103375D01*
X152028396Y-103100233D01*
X152314316Y-103100233D01*
X152314316Y-103218856D01*
X152345015Y-103333427D01*
X152345017Y-103333432D01*
X152404324Y-103436154D01*
X152404325Y-103436155D01*
X152404327Y-103436158D01*
X152488203Y-103520034D01*
X152488205Y-103520035D01*
X152488206Y-103520036D01*
X152590926Y-103579342D01*
X152590928Y-103579342D01*
X152590930Y-103579344D01*
X152590931Y-103579344D01*
X152590933Y-103579345D01*
X152648218Y-103594694D01*
X152705504Y-103610044D01*
X152705505Y-103610045D01*
X152705507Y-103610045D01*
X152824127Y-103610045D01*
X152824127Y-103610044D01*
X152938702Y-103579344D01*
X152938704Y-103579342D01*
X152938706Y-103579342D01*
X152994039Y-103547395D01*
X153041429Y-103520034D01*
X153125305Y-103436158D01*
X153184615Y-103333431D01*
X153215315Y-103218856D01*
X153215316Y-103218856D01*
X153215316Y-103140688D01*
X155749500Y-103140688D01*
X155749500Y-103259311D01*
X155780199Y-103373882D01*
X155780201Y-103373887D01*
X155839508Y-103476609D01*
X155839509Y-103476610D01*
X155839511Y-103476613D01*
X155923387Y-103560489D01*
X155923389Y-103560490D01*
X155923390Y-103560491D01*
X156018183Y-103615220D01*
X156026114Y-103619799D01*
X156026115Y-103619799D01*
X156026117Y-103619800D01*
X156077642Y-103633606D01*
X156140688Y-103650499D01*
X156140689Y-103650500D01*
X156140691Y-103650500D01*
X156259311Y-103650500D01*
X156259311Y-103650499D01*
X156373886Y-103619799D01*
X156476613Y-103560489D01*
X156560489Y-103476613D01*
X156619799Y-103373886D01*
X156650499Y-103259311D01*
X156650500Y-103259311D01*
X156650500Y-103140689D01*
X156650499Y-103140688D01*
X156640637Y-103103884D01*
X156619799Y-103026114D01*
X156560489Y-102923387D01*
X156476613Y-102839511D01*
X156476610Y-102839509D01*
X156476609Y-102839508D01*
X156373887Y-102780201D01*
X156373882Y-102780199D01*
X156259311Y-102749500D01*
X156259309Y-102749500D01*
X156140691Y-102749500D01*
X156140689Y-102749500D01*
X156026117Y-102780199D01*
X156026112Y-102780201D01*
X155923390Y-102839508D01*
X155839508Y-102923390D01*
X155780201Y-103026112D01*
X155780199Y-103026117D01*
X155749500Y-103140688D01*
X153215316Y-103140688D01*
X153215316Y-103100234D01*
X153215315Y-103100233D01*
X153184616Y-102985662D01*
X153184614Y-102985657D01*
X153125307Y-102882935D01*
X153125306Y-102882934D01*
X153125305Y-102882932D01*
X153041429Y-102799056D01*
X153041426Y-102799054D01*
X153041425Y-102799053D01*
X152938703Y-102739746D01*
X152938698Y-102739744D01*
X152824127Y-102709045D01*
X152824125Y-102709045D01*
X152705507Y-102709045D01*
X152705505Y-102709045D01*
X152590933Y-102739744D01*
X152590928Y-102739746D01*
X152488206Y-102799053D01*
X152404324Y-102882935D01*
X152345017Y-102985657D01*
X152345015Y-102985662D01*
X152314316Y-103100233D01*
X152028396Y-103100233D01*
X152118440Y-103010189D01*
X152184332Y-102896061D01*
X152218439Y-102768769D01*
X152218440Y-102768769D01*
X152218440Y-102636981D01*
X152218439Y-102636980D01*
X152216329Y-102629107D01*
X152184332Y-102509689D01*
X152118440Y-102395561D01*
X152025254Y-102302375D01*
X151964672Y-102267398D01*
X151911130Y-102236485D01*
X151911121Y-102236481D01*
X151783834Y-102202375D01*
X151783832Y-102202375D01*
X151652048Y-102202375D01*
X151652046Y-102202375D01*
X151524758Y-102236481D01*
X151524749Y-102236485D01*
X151410625Y-102302375D01*
X151379395Y-102333606D01*
X151317440Y-102395561D01*
X151317438Y-102395563D01*
X151314011Y-102398991D01*
X151312255Y-102397235D01*
X151270171Y-102421484D01*
X151215476Y-102406778D01*
X151208249Y-102400435D01*
X151207314Y-102399500D01*
X151093190Y-102333610D01*
X151093181Y-102333606D01*
X150965894Y-102299500D01*
X150965892Y-102299500D01*
X150834108Y-102299500D01*
X150834106Y-102299500D01*
X150706818Y-102333606D01*
X150706809Y-102333610D01*
X150592685Y-102399500D01*
X150499500Y-102492685D01*
X150433610Y-102606809D01*
X150433606Y-102606818D01*
X150399500Y-102734105D01*
X144994524Y-102734105D01*
X144966392Y-102629112D01*
X144900500Y-102514984D01*
X144807314Y-102421798D01*
X144764770Y-102397235D01*
X144693190Y-102355908D01*
X144693181Y-102355904D01*
X144565894Y-102321798D01*
X144565892Y-102321798D01*
X144434108Y-102321798D01*
X144434106Y-102321798D01*
X144306818Y-102355904D01*
X144306809Y-102355908D01*
X144192685Y-102421798D01*
X144099500Y-102514983D01*
X144033610Y-102629107D01*
X144033606Y-102629116D01*
X143999500Y-102756403D01*
X134197711Y-102756403D01*
X134197573Y-101788286D01*
X142966799Y-101788286D01*
X142966799Y-101906909D01*
X142997498Y-102021480D01*
X142997500Y-102021485D01*
X143056807Y-102124207D01*
X143056808Y-102124208D01*
X143056810Y-102124211D01*
X143140686Y-102208087D01*
X143140688Y-102208088D01*
X143140689Y-102208089D01*
X143243411Y-102267396D01*
X143243413Y-102267397D01*
X143243414Y-102267397D01*
X143243416Y-102267398D01*
X143300701Y-102282747D01*
X143357987Y-102298097D01*
X143357988Y-102298098D01*
X143357990Y-102298098D01*
X143476610Y-102298098D01*
X143476610Y-102298097D01*
X143591185Y-102267397D01*
X143693912Y-102208087D01*
X143777788Y-102124211D01*
X143837098Y-102021484D01*
X143867798Y-101906909D01*
X143867799Y-101906909D01*
X143867799Y-101840688D01*
X149649500Y-101840688D01*
X149649500Y-101959311D01*
X149680199Y-102073882D01*
X149680201Y-102073887D01*
X149739508Y-102176609D01*
X149739509Y-102176610D01*
X149739511Y-102176613D01*
X149823387Y-102260489D01*
X149823389Y-102260490D01*
X149823390Y-102260491D01*
X149888525Y-102298097D01*
X149926114Y-102319799D01*
X149926115Y-102319799D01*
X149926117Y-102319800D01*
X149941001Y-102323788D01*
X150040688Y-102350499D01*
X150040689Y-102350500D01*
X150040691Y-102350500D01*
X150159311Y-102350500D01*
X150159311Y-102350499D01*
X150273886Y-102319799D01*
X150376613Y-102260489D01*
X150460489Y-102176613D01*
X150519799Y-102073886D01*
X150525910Y-102051081D01*
X150543381Y-101985881D01*
X157060799Y-101985881D01*
X157060799Y-103514121D01*
X157069532Y-103558023D01*
X157102795Y-103607805D01*
X157152577Y-103641068D01*
X157196479Y-103649801D01*
X157196480Y-103649801D01*
X158724718Y-103649801D01*
X158724719Y-103649801D01*
X158768621Y-103641068D01*
X158818403Y-103607805D01*
X158851666Y-103558023D01*
X158860399Y-103514121D01*
X158860399Y-102661378D01*
X161560800Y-102661378D01*
X161560800Y-102838624D01*
X161569614Y-102882935D01*
X161595377Y-103012457D01*
X161595380Y-103012467D01*
X161663205Y-103176213D01*
X161761150Y-103322798D01*
X161761680Y-103323590D01*
X161887011Y-103448921D01*
X162034385Y-103547394D01*
X162034386Y-103547394D01*
X162034387Y-103547395D01*
X162185637Y-103610044D01*
X162198138Y-103615222D01*
X162371977Y-103649801D01*
X162371979Y-103649801D01*
X162549221Y-103649801D01*
X162549223Y-103649801D01*
X162723062Y-103615222D01*
X162886815Y-103547394D01*
X163034189Y-103448921D01*
X163159520Y-103323590D01*
X163257993Y-103176216D01*
X163325821Y-103012463D01*
X163360400Y-102838624D01*
X163360400Y-102661378D01*
X163325821Y-102487539D01*
X163317676Y-102467875D01*
X163257994Y-102323788D01*
X163256664Y-102321798D01*
X163159520Y-102176412D01*
X163034189Y-102051081D01*
X162989894Y-102021484D01*
X162886812Y-101952606D01*
X162723066Y-101884781D01*
X162723056Y-101884778D01*
X162593126Y-101858934D01*
X162549223Y-101850201D01*
X162371977Y-101850201D01*
X162328074Y-101858934D01*
X162198143Y-101884778D01*
X162198133Y-101884781D01*
X162034387Y-101952606D01*
X161887014Y-102051078D01*
X161761677Y-102176415D01*
X161663205Y-102323788D01*
X161595380Y-102487534D01*
X161595377Y-102487544D01*
X161571653Y-102606818D01*
X161560800Y-102661378D01*
X158860399Y-102661378D01*
X158860399Y-101985881D01*
X158851666Y-101941979D01*
X158818403Y-101892197D01*
X158768621Y-101858934D01*
X158724719Y-101850201D01*
X157196479Y-101850201D01*
X157174528Y-101854567D01*
X157152576Y-101858934D01*
X157102795Y-101892196D01*
X157102794Y-101892197D01*
X157069532Y-101941978D01*
X157069532Y-101941979D01*
X157060799Y-101985881D01*
X150543381Y-101985881D01*
X150549487Y-101963092D01*
X150550499Y-101959311D01*
X150550500Y-101959311D01*
X150550500Y-101840689D01*
X150550499Y-101840688D01*
X150519800Y-101726117D01*
X150519798Y-101726112D01*
X150460491Y-101623390D01*
X150460490Y-101623389D01*
X150460489Y-101623387D01*
X150376613Y-101539511D01*
X150376610Y-101539509D01*
X150376609Y-101539508D01*
X150273887Y-101480201D01*
X150273882Y-101480199D01*
X150159311Y-101449500D01*
X150159309Y-101449500D01*
X150040691Y-101449500D01*
X150040689Y-101449500D01*
X149926117Y-101480199D01*
X149926112Y-101480201D01*
X149823390Y-101539508D01*
X149739508Y-101623390D01*
X149680201Y-101726112D01*
X149680199Y-101726117D01*
X149649500Y-101840688D01*
X143867799Y-101840688D01*
X143867799Y-101788287D01*
X143867798Y-101788286D01*
X143837099Y-101673715D01*
X143837097Y-101673710D01*
X143777790Y-101570988D01*
X143777789Y-101570987D01*
X143777788Y-101570985D01*
X143693912Y-101487109D01*
X143693909Y-101487107D01*
X143693908Y-101487106D01*
X143591186Y-101427799D01*
X143591181Y-101427797D01*
X143476610Y-101397098D01*
X143476608Y-101397098D01*
X143357990Y-101397098D01*
X143357988Y-101397098D01*
X143243416Y-101427797D01*
X143243411Y-101427799D01*
X143140689Y-101487106D01*
X143056807Y-101570988D01*
X142997500Y-101673710D01*
X142997498Y-101673715D01*
X142966799Y-101788286D01*
X134197573Y-101788286D01*
X134197437Y-100834105D01*
X151699500Y-100834105D01*
X151699500Y-100965894D01*
X151733606Y-101093181D01*
X151733607Y-101093184D01*
X151733608Y-101093186D01*
X151799500Y-101207314D01*
X151892686Y-101300500D01*
X152006814Y-101366392D01*
X152134105Y-101400499D01*
X152134106Y-101400500D01*
X152134108Y-101400500D01*
X152265894Y-101400500D01*
X152265894Y-101400499D01*
X152393186Y-101366392D01*
X152507314Y-101300500D01*
X152600500Y-101207314D01*
X152666392Y-101093186D01*
X152700499Y-100965894D01*
X152700500Y-100965894D01*
X152700500Y-100834106D01*
X152700499Y-100834105D01*
X152666393Y-100706818D01*
X152666392Y-100706814D01*
X152600500Y-100592686D01*
X152507314Y-100499500D01*
X152393190Y-100433610D01*
X152393181Y-100433606D01*
X152265894Y-100399500D01*
X152265892Y-100399500D01*
X152134108Y-100399500D01*
X152134106Y-100399500D01*
X152006818Y-100433606D01*
X152006809Y-100433610D01*
X151892685Y-100499500D01*
X151799500Y-100592685D01*
X151733610Y-100706809D01*
X151733606Y-100706818D01*
X151699500Y-100834105D01*
X134197437Y-100834105D01*
X134196878Y-96901582D01*
X135549500Y-96901582D01*
X135549500Y-97098417D01*
X135580290Y-97292823D01*
X135580293Y-97292836D01*
X135641113Y-97480019D01*
X135730475Y-97655404D01*
X135803130Y-97755405D01*
X135846172Y-97814646D01*
X135985354Y-97953828D01*
X136144595Y-98069524D01*
X136319975Y-98158884D01*
X136319977Y-98158884D01*
X136319980Y-98158886D01*
X136507163Y-98219706D01*
X136507169Y-98219707D01*
X136507174Y-98219709D01*
X136636780Y-98240236D01*
X136701582Y-98250500D01*
X136701583Y-98250500D01*
X136898418Y-98250500D01*
X136947019Y-98242802D01*
X137092826Y-98219709D01*
X137092833Y-98219706D01*
X137092836Y-98219706D01*
X137280019Y-98158886D01*
X137280019Y-98158885D01*
X137280025Y-98158884D01*
X137455405Y-98069524D01*
X137614646Y-97953828D01*
X137753828Y-97814646D01*
X137869524Y-97655405D01*
X137958884Y-97480025D01*
X138019709Y-97292826D01*
X138050500Y-97098417D01*
X138050500Y-96901583D01*
X138019709Y-96707174D01*
X138019707Y-96707169D01*
X138019706Y-96707163D01*
X137958886Y-96519980D01*
X137958884Y-96519977D01*
X137958884Y-96519975D01*
X137869524Y-96344595D01*
X137753828Y-96185354D01*
X137729852Y-96161378D01*
X157060799Y-96161378D01*
X157060799Y-96338621D01*
X157095376Y-96512456D01*
X157095379Y-96512466D01*
X157163204Y-96676212D01*
X157250710Y-96807174D01*
X157261679Y-96823589D01*
X157387010Y-96948920D01*
X157534384Y-97047393D01*
X157698137Y-97115221D01*
X157871976Y-97149800D01*
X157871978Y-97149800D01*
X158049220Y-97149800D01*
X158049222Y-97149800D01*
X158223061Y-97115221D01*
X158386814Y-97047393D01*
X158534188Y-96948920D01*
X158659519Y-96823589D01*
X158757992Y-96676215D01*
X158825820Y-96512462D01*
X158860399Y-96338623D01*
X158860399Y-96161378D01*
X161560800Y-96161378D01*
X161560800Y-96338621D01*
X161595377Y-96512456D01*
X161595380Y-96512466D01*
X161663205Y-96676212D01*
X161750711Y-96807174D01*
X161761680Y-96823589D01*
X161887011Y-96948920D01*
X162034385Y-97047393D01*
X162198138Y-97115221D01*
X162371977Y-97149800D01*
X162371979Y-97149800D01*
X162549221Y-97149800D01*
X162549223Y-97149800D01*
X162723062Y-97115221D01*
X162886815Y-97047393D01*
X162955375Y-97001582D01*
X170449500Y-97001582D01*
X170449500Y-97198417D01*
X170480290Y-97392823D01*
X170480293Y-97392836D01*
X170541113Y-97580019D01*
X170630475Y-97755404D01*
X170673513Y-97814641D01*
X170746172Y-97914646D01*
X170885354Y-98053828D01*
X170885357Y-98053830D01*
X170885358Y-98053831D01*
X171029950Y-98158884D01*
X171044595Y-98169524D01*
X171219975Y-98258884D01*
X171219977Y-98258884D01*
X171219980Y-98258886D01*
X171407163Y-98319706D01*
X171407169Y-98319707D01*
X171407174Y-98319709D01*
X171536780Y-98340236D01*
X171601582Y-98350500D01*
X171601583Y-98350500D01*
X171798418Y-98350500D01*
X171847019Y-98342802D01*
X171992826Y-98319709D01*
X171992833Y-98319706D01*
X171992836Y-98319706D01*
X172180019Y-98258886D01*
X172180019Y-98258885D01*
X172180025Y-98258884D01*
X172355405Y-98169524D01*
X172514646Y-98053828D01*
X172653828Y-97914646D01*
X172769524Y-97755405D01*
X172858884Y-97580025D01*
X172919709Y-97392826D01*
X172950500Y-97198417D01*
X172950500Y-97001583D01*
X172919709Y-96807174D01*
X172919707Y-96807169D01*
X172919706Y-96807163D01*
X172858886Y-96619980D01*
X172858884Y-96619977D01*
X172858884Y-96619975D01*
X172769524Y-96444595D01*
X172653828Y-96285354D01*
X172514646Y-96146172D01*
X172514638Y-96146166D01*
X172355404Y-96030475D01*
X172180019Y-95941113D01*
X171992836Y-95880293D01*
X171992823Y-95880290D01*
X171798418Y-95849500D01*
X171798417Y-95849500D01*
X171601583Y-95849500D01*
X171601582Y-95849500D01*
X171407176Y-95880290D01*
X171407163Y-95880293D01*
X171219980Y-95941113D01*
X171044595Y-96030475D01*
X170885362Y-96146166D01*
X170885354Y-96146172D01*
X170885349Y-96146177D01*
X170746168Y-96285358D01*
X170630475Y-96444595D01*
X170541113Y-96619980D01*
X170480293Y-96807163D01*
X170480290Y-96807176D01*
X170449500Y-97001582D01*
X162955375Y-97001582D01*
X163034189Y-96948920D01*
X163159520Y-96823589D01*
X163257993Y-96676215D01*
X163325821Y-96512462D01*
X163360400Y-96338623D01*
X163360400Y-96161377D01*
X163325821Y-95987538D01*
X163306591Y-95941113D01*
X163257994Y-95823787D01*
X163197636Y-95733456D01*
X163159520Y-95676411D01*
X163034189Y-95551080D01*
X162986561Y-95519256D01*
X162886812Y-95452605D01*
X162723066Y-95384780D01*
X162723056Y-95384777D01*
X162606643Y-95361621D01*
X162549223Y-95350200D01*
X162371977Y-95350200D01*
X162322695Y-95360002D01*
X162198143Y-95384777D01*
X162198133Y-95384780D01*
X162034387Y-95452605D01*
X161887014Y-95551077D01*
X161761677Y-95676414D01*
X161663205Y-95823787D01*
X161595380Y-95987533D01*
X161595377Y-95987543D01*
X161567854Y-96125912D01*
X161563824Y-96146177D01*
X161560800Y-96161378D01*
X158860399Y-96161378D01*
X158860399Y-96161377D01*
X158825820Y-95987538D01*
X158806590Y-95941113D01*
X158757993Y-95823787D01*
X158697635Y-95733456D01*
X158659519Y-95676411D01*
X158534188Y-95551080D01*
X158486560Y-95519256D01*
X158386811Y-95452605D01*
X158223065Y-95384780D01*
X158223055Y-95384777D01*
X158106642Y-95361621D01*
X158049222Y-95350200D01*
X157871976Y-95350200D01*
X157822694Y-95360002D01*
X157698142Y-95384777D01*
X157698132Y-95384780D01*
X157534386Y-95452605D01*
X157387013Y-95551077D01*
X157261676Y-95676414D01*
X157163204Y-95823787D01*
X157095379Y-95987533D01*
X157095376Y-95987543D01*
X157067853Y-96125912D01*
X157063823Y-96146177D01*
X157060799Y-96161378D01*
X137729852Y-96161378D01*
X137614646Y-96046172D01*
X137614643Y-96046169D01*
X137614641Y-96046168D01*
X137455404Y-95930475D01*
X137280019Y-95841113D01*
X137092836Y-95780293D01*
X137092823Y-95780290D01*
X136898418Y-95749500D01*
X136898417Y-95749500D01*
X136701583Y-95749500D01*
X136701582Y-95749500D01*
X136507176Y-95780290D01*
X136507163Y-95780293D01*
X136319980Y-95841113D01*
X136144595Y-95930475D01*
X135985358Y-96046168D01*
X135846168Y-96185358D01*
X135730475Y-96344595D01*
X135641113Y-96519980D01*
X135580293Y-96707163D01*
X135580290Y-96707176D01*
X135549500Y-96901582D01*
X134196878Y-96901582D01*
X134196777Y-96194162D01*
X134196936Y-96189321D01*
X134197196Y-96185354D01*
X134211857Y-95961726D01*
X134213117Y-95952151D01*
X134257152Y-95730785D01*
X134259656Y-95721441D01*
X134317488Y-95551077D01*
X134332205Y-95507724D01*
X134335909Y-95498784D01*
X134435733Y-95296364D01*
X134440554Y-95288013D01*
X134565959Y-95100333D01*
X134571833Y-95092678D01*
X134720653Y-94922983D01*
X134727488Y-94916148D01*
X134897184Y-94767329D01*
X134904839Y-94761455D01*
X135092516Y-94636052D01*
X135100868Y-94631230D01*
X135303302Y-94531401D01*
X135312228Y-94527703D01*
X135525953Y-94455152D01*
X135535292Y-94452650D01*
X135756654Y-94408616D01*
X135766221Y-94407356D01*
X135994020Y-94392424D01*
X135998837Y-94392267D01*
X172440664Y-94403772D01*
G37*
%TD.AperFunction*%
%TD*%
M02*
